<?xml version="1.0" encoding="utf-8"?>
<!-- Generator: Adobe Illustrator 23.0.6, SVG Export Plug-In . SVG Version: 6.00 Build 0)  -->
<svg version="1.1" id="Comunication" xmlns="http://www.w3.org/2000/svg" xmlns:xlink="http://www.w3.org/1999/xlink" x="0px"
	 y="0px" viewBox="0 0 800 800" style="enable-background:new 0 0 800 800;" xml:space="preserve">
<style type="text/css">
	.st0{fill:none;stroke:#000000;stroke-width:10.1633;stroke-linecap:round;stroke-linejoin:round;stroke-miterlimit:10;}
</style>
<g>
	<g>
		<path d="M628.14,450.35l-203.82,74.08l1.64-0.96h0l-0.29,0.28l-0.38,0.38l-0.78,0.82c-0.52,0.58-1.04,1.17-1.55,1.78
			c-1.02,1.22-1.98,2.52-2.9,3.86c-1.84,2.67-3.49,5.5-4.94,8.44c-2.91,5.88-4.98,12.19-6.37,18.65
			c-2.72,12.98-2.44,26.58-0.13,39.86c1.07,6.56,3.01,12.82,5.65,18.82c2.68,5.97,6.11,11.59,10.2,16.72
			c4.09,5.13,8.8,9.79,13.99,13.87c2.59,2.04,5.29,3.96,8.08,5.69c1.39,0.88,2.81,1.69,4.24,2.47c0.71,0.39,1.43,0.76,2.15,1.11
			l1.06,0.51l0.94,0.42l0,0l-3.13-0.4l209.27-27.75c2.1-0.28,4.03,1.2,4.31,3.3c0.27,2.07-1.16,3.98-3.22,4.3l-208.67,31.98
			c-1.07,0.16-2.12,0.02-3.05-0.36l-0.08-0.03l0,0c-0.61-0.26-0.99-0.45-1.46-0.67l-1.31-0.65c-0.86-0.43-1.69-0.88-2.52-1.34
			c-1.65-0.92-3.27-1.87-4.84-2.88c-3.16-2-6.18-4.19-9.09-6.53c-5.81-4.67-11.11-10.01-15.72-15.91c-4.62-5.9-8.5-12.41-11.5-19.3
			c-2.96-6.89-5.11-14.19-6.24-21.52c-2.36-14.4-2.57-29.4,0.64-43.96c1.63-7.25,4.05-14.38,7.44-21.07
			c1.69-3.35,3.63-6.59,5.8-9.68c1.09-1.55,2.24-3.06,3.48-4.53c0.62-0.74,1.26-1.46,1.93-2.18c0.35-0.36,0.68-0.71,1.04-1.07
			l0.56-0.54l0.3-0.28l0.37-0.34l0,0l0.02-0.02c0.49-0.42,1.05-0.74,1.62-0.94l204.93-70.97c1.81-0.63,3.78,0.33,4.41,2.14
			C630.86,447.75,629.92,449.7,628.14,450.35z"/>
	</g>
	<g>
		<path d="M584.38,648.97c-2.58,0.46-4.22-0.37-5.71-1.48c-1.51-1.06-2.98-2.14-4.43-3.26c-2.91-2.21-5.7-4.56-8.43-6.98
			c-5.43-4.86-10.54-10.09-15.19-15.71c-9.23-11.3-16.82-24.14-21.43-38.12c-2.27-6.99-3.82-14.2-4.67-21.48l-0.45-5.48
			c-0.12-1.83-0.08-3.66-0.12-5.48l-0.03-2.74l0.16-2.73c0.12-1.82,0.18-3.64,0.35-5.45c0.51-3.6,0.8-7.24,1.63-10.77
			c0.37-1.77,0.68-3.56,1.12-5.32l1.48-5.22l0.77-2.59c0.3-0.85,0.62-1.69,0.93-2.54l1.96-5.03c0.32-0.84,0.7-1.65,1.1-2.46
			l1.19-2.42c0.79-1.61,1.62-3.2,2.46-4.77c0.45-0.83,1.48-1.15,2.31-0.7c0.72,0.38,1.05,1.2,0.84,1.95l-0.03,0.11
			c-0.46,1.7-0.94,3.38-1.45,5.04l-0.77,2.49c-0.27,0.82-0.53,1.65-0.72,2.5l-1.32,5.02l-0.69,2.49l-0.53,2.53l-1.12,5.03
			c-0.31,1.69-0.54,3.38-0.82,5.07c-0.65,3.36-0.77,6.78-1.12,10.17c-0.09,1.7-0.07,3.4-0.12,5.1l-0.05,2.55l0.14,2.54
			c0.11,1.69,0.13,3.39,0.32,5.07l0.63,5.04c1.04,6.68,2.69,13.25,5,19.59c4.77,12.62,11.84,24.35,20.69,34.65
			c4.38,5.18,9.15,10.05,14.24,14.56c2.55,2.24,5.17,4.42,7.88,6.46c1.35,1.03,2.72,2.03,4.1,2.98c1.4,0.91,2.68,2.04,3.12,4.33
			l0.12,0.63c0.43,2.25-1.05,4.41-3.3,4.84L584.38,648.97z"/>
	</g>
	<g>
		<path d="M466.78,522.91c-0.73,3.17-1.43,6.3-2.09,9.42c-0.6,3.14-1.21,6.26-1.69,9.4c-0.98,6.27-1.74,12.55-1.9,18.85
			c-0.17,6.29,0.2,12.58,1.18,18.75c0.94,6.17,2.48,12.21,4.67,17.99c2.2,5.77,4.98,11.3,8.38,16.43c3.4,5.12,7.37,9.88,11.78,14.2
			c4.49,4.26,9.38,8.12,14.58,11.57l3.97,2.5c1.34,0.81,2.74,1.53,4.11,2.3l2.06,1.15l2.12,1.05l4.24,2.1l0.19,0.1
			c2.52,1.24,3.55,4.29,2.31,6.8c-1.21,2.45-4.14,3.49-6.61,2.39c-6.22-2.75-12.35-5.79-18.11-9.55
			c-5.76-3.74-11.28-7.93-16.27-12.75c-9.95-9.67-17.76-21.7-22.33-34.8c-2.3-6.54-3.86-13.32-4.73-20.14
			c-0.84-6.83-1-13.7-0.59-20.51c0.2-3.4,0.58-6.79,1.06-10.16c0.58-3.35,1.19-6.7,2.13-9.96c1.79-6.54,4.29-12.92,7.92-18.69
			c0.59-0.94,1.83-1.22,2.76-0.63c0.74,0.47,1.07,1.34,0.89,2.14L466.78,522.91z"/>
	</g>
	<g>
		<path d="M629.79,452.89c-0.05,0.03-0.1,0.05-0.16,0.05c-0.03,0-0.05-0.01-0.09,0l-0.15,0.07c-0.1,0.04-0.2,0.08-0.31,0.11
			c-0.12,0.06-0.26,0.16-0.39,0.22c-0.14,0.08-0.26,0.12-0.41,0.23l-0.45,0.33c-0.3,0.19-0.61,0.48-0.92,0.76
			c-1.25,1.13-2.51,2.56-3.65,4.15c-2.31,3.17-4.27,6.84-6,10.61c-3.43,7.6-5.78,15.8-7.36,24.11c-1.58,8.32-2.21,16.83-2.08,25.28
			c0.11,4.23,0.38,8.45,0.9,12.63c0.55,4.2,1.24,8.29,2.22,12.49c3.76,16.68,9.83,32.9,18.17,47.67c4.14,7.39,8.93,14.4,14.38,20.53
			c2.72,3.05,5.63,5.89,8.7,8.11c1.52,1.16,3.08,2.05,4.58,2.78c1.5,0.73,2.94,1.1,4.01,1.14c0.29,0.06,0.48-0.04,0.73-0.01
			c0.13,0.02,0.21-0.02,0.29-0.05c0.08-0.02,0.16-0.04,0.25-0.05c0.17-0.01,0.38-0.18,0.58-0.22c0.21-0.06,0.45-0.28,0.69-0.39
			c0.98-0.64,2.11-1.76,3.16-3.1c2.08-2.8,3.9-6.35,5.35-10.11c2.92-7.57,4.84-15.86,6.04-24.24c0.6-4.2,1.06-8.43,1.36-12.67
			c0.28-4.25,0.4-8.52,0.38-12.78c-0.07-8.53-0.75-17.05-2.18-25.42c-2.88-16.73-8.61-33.12-16.64-48.19
			c-4.07-7.5-8.69-14.73-14.06-21.15c-2.69-3.19-5.56-6.22-8.63-8.68c-1.52-1.24-3.1-2.34-4.62-3.1
			C631.96,453.21,630.47,452.84,629.79,452.89z M628.98,442.95c1.84-0.09,3.56,0.12,5.01,0.55c0.73,0.21,1.47,0.43,2.09,0.71
			c0.65,0.27,1.33,0.54,1.9,0.86c2.43,1.22,4.47,2.67,6.38,4.21c3.83,3.06,7.05,6.47,10.06,10c5.99,7.09,11.02,14.74,15.44,22.7
			c8.79,15.94,15.24,33.15,18.68,51.15c1.7,9,2.6,18.11,2.85,27.22c0.22,9.12-0.18,18.25-1.4,27.34c-0.6,4.55-1.39,9.08-2.45,13.6
			c-1.06,4.51-2.34,9.02-4.06,13.48c-1.72,4.46-3.85,8.9-7.02,13.19c-1.66,2.13-3.59,4.26-6.3,6.05c-0.73,0.42-1.37,0.88-2.19,1.23
			c-0.83,0.33-1.6,0.72-2.51,0.94c-0.45,0.11-0.91,0.22-1.37,0.31c-0.46,0.1-0.92,0.19-1.34,0.2c-0.85,0.04-1.77,0.14-2.57,0.06
			c-3.34-0.19-6.21-1.15-8.68-2.32c-2.47-1.19-4.72-2.55-6.72-4.07c-4.07-2.99-7.47-6.39-10.61-9.92
			c-6.24-7.1-11.31-14.85-15.72-22.89c-8.77-16.11-14.82-33.45-18.51-51.25c-0.94-4.41-1.65-9.04-2.16-13.6
			c-0.48-4.58-0.7-9.18-0.73-13.78c0.01-9.19,0.91-18.36,2.72-27.35c1.8-9,4.47-17.84,8.34-26.32c1.96-4.24,4.18-8.39,7.08-12.35
			c1.44-1.98,3.09-3.91,5.12-5.73c0.51-0.45,1.02-0.9,1.64-1.33l0.89-0.64c0.3-0.21,0.68-0.4,1.02-0.59
			c0.35-0.19,0.69-0.39,1.06-0.56c0.41-0.17,0.82-0.33,1.24-0.48l0.63-0.22c0.23-0.06,0.48-0.11,0.72-0.16
			C627.99,443.1,628.49,443.02,628.98,442.95z"/>
	</g>
	<g>
		<path d="M148.94,314.93l206.46-44.04l-2.88,1.6l0,0l0.56-0.67l0.64-0.81c0.43-0.56,0.86-1.13,1.28-1.72
			c0.85-1.17,1.66-2.38,2.45-3.61c1.56-2.48,2.99-5.06,4.29-7.71c2.62-5.28,4.74-10.83,6.23-16.55c1.52-5.71,2.49-11.57,2.95-17.47
			c0.41-5.91,0.33-11.88-0.28-17.82c-1.1-11.74-4.82-23.05-10.94-33.07c-3.04-5.02-6.72-9.68-10.88-13.89
			c-2.06-2.12-4.24-4.14-6.53-6.01c-1.15-0.93-2.32-1.83-3.51-2.68c-0.59-0.43-1.19-0.85-1.79-1.25l-0.89-0.58l-0.8-0.5l0,0
			l1.97,0.51c-16.16-0.4-32.31-0.88-48.47-1.46l-24.23-0.85l-24.23-0.97l-24.23-0.97l-24.22-1.14c-8.07-0.35-16.14-0.86-24.21-1.31
			c-4.04-0.22-8.07-0.47-12.1-0.75c-4.03-0.27-8.07-0.53-12.1-0.85c-1.68-0.13-2.94-1.6-2.8-3.28c0.12-1.59,1.45-2.79,3.01-2.81
			c4.04-0.04,8.09-0.03,12.13-0.02c4.04-0.01,8.09,0.02,12.13,0.07c8.08,0.09,16.17,0.14,24.25,0.34l24.24,0.51l24.23,0.68
			l24.23,0.68l24.23,0.81c16.15,0.53,32.31,1.14,48.45,1.85l0.1,0c0.67,0.03,1.31,0.21,1.87,0.5l0,0c0.53,0.26,0.87,0.43,1.28,0.65
			l1.15,0.62c0.75,0.42,1.49,0.85,2.22,1.29c1.44,0.9,2.85,1.84,4.22,2.82c2.74,1.96,5.36,4.09,7.85,6.35
			c4.94,4.58,9.39,9.72,13.16,15.37c0.97,1.4,1.83,2.86,2.72,4.31c0.82,1.49,1.67,2.96,2.41,4.5c1.54,3.03,2.86,6.18,4.01,9.38
			c2.26,6.42,3.8,13.11,4.51,19.81c0.72,6.64,0.9,13.37,0.43,20.08c-0.55,6.7-1.61,13.39-3.5,19.87
			c-1.83,6.49-4.34,12.79-7.47,18.77c-1.59,2.98-3.34,5.88-5.26,8.68c-0.97,1.4-1.97,2.78-3.03,4.13c-0.54,0.67-1.09,1.34-1.67,2
			l-0.89,1l-0.47,0.51l-0.56,0.58l0,0c-0.8,0.83-1.79,1.36-2.83,1.59l-0.05,0.01l-206.24,45.04c-3.35,0.73-6.66-1.39-7.39-4.74
			c-0.73-3.35,1.39-6.66,4.74-7.39L148.94,314.93z"/>
	</g>
	<g>
		<path d="M235.47,299.95c-0.63-2.3,0.01-3.7,0.83-5.03c0.74-1.38,1.56-2.71,2.24-4.12c1.42-2.79,2.74-5.65,3.89-8.59
			c2.34-5.86,4.18-11.95,5.59-18.15c2.92-12.39,3.98-25.24,3.5-38.02c-0.55-12.77-2.83-25.51-7.25-37.51
			c-2.21-6-4.99-11.76-8.26-17.25c-3.25-5.5-6.96-10.73-11.06-15.79l-0.01-0.01c-0.6-0.74-0.48-1.82,0.25-2.41
			c0.63-0.51,1.51-0.5,2.13-0.03c5.38,4.14,10.03,9.25,13.95,14.84c3.9,5.61,7.09,11.7,9.74,17.98c5.29,12.59,8.3,26.06,9.37,39.63
			c0.55,6.79,0.61,13.63,0.14,20.43c-0.45,6.81-1.37,13.59-2.78,20.29c-1.45,6.69-3.42,13.29-5.94,19.71
			c-1.25,3.21-2.67,6.37-4.23,9.47c-0.75,1.56-1.64,3.06-2.46,4.59c-0.39,0.78-0.91,1.49-1.59,2.09c-0.71,0.59-1.51,1.11-2.73,1.34
			c-2.37,0.44-4.65-1.01-5.28-3.29L235.47,299.95z"/>
	</g>
	<g>
		<path d="M284.45,142.83c3.06,1.62,6.06,3.4,8.81,5.53c0.69,0.53,1.41,1.02,2.08,1.58l2,1.68c1.37,1.09,2.55,2.37,3.83,3.56
			c4.95,4.92,9.16,10.55,12.76,16.52c7.19,11.98,11.75,25.48,13.74,39.34c2.01,13.86,1.39,28.15-1.85,41.84
			c-3.13,13.73-9.08,26.74-16.88,38.36c-1.56,2.33-4.72,2.95-7.05,1.39c-2.29-1.54-2.93-4.61-1.47-6.92l0.05-0.08
			c3.44-5.45,6.56-11.09,9.13-16.97c0.61-1.48,1.29-2.94,1.85-4.44l1.69-4.51l1.47-4.58c0.45-1.54,0.83-3.1,1.25-4.64
			c3.05-12.46,3.97-25.45,2.61-38.27c-1.38-12.81-5.02-25.43-10.89-36.97c-5.85-11.52-14.06-22.03-24.82-29.56l-0.04-0.03
			c-0.75-0.52-0.93-1.55-0.41-2.3C282.81,142.65,283.73,142.45,284.45,142.83z"/>
	</g>
	<g>
		<path d="M148.85,313.29c-0.47-0.03-0.55,0.13-0.27,0c0.25-0.1,0.72-0.37,1.22-0.76c1.03-0.79,2.19-2.01,3.28-3.37
			c2.2-2.75,4.19-6.07,5.95-9.51c3.53-6.95,6.28-14.53,8.39-22.27c2.11-7.75,3.61-15.71,4.44-23.74c0.42-4.01,0.67-8.04,0.74-12.08
			c0.09-4.03-0.05-8.05-0.28-12.17c-0.49-8.18-1.43-16.35-2.78-24.45c-1.37-8.09-3.11-16.13-5.45-23.97
			c-2.34-7.82-5.14-15.52-8.8-22.6c-1.83-3.52-3.89-6.89-6.23-9.77c-1.17-1.42-2.42-2.71-3.69-3.69c-1.26-0.98-2.54-1.61-3.53-1.76
			c-0.23-0.04-0.51-0.06-0.67-0.05c-0.08,0-0.17,0-0.26,0.02c-0.09,0.01-0.18,0.02-0.28,0.06c-0.38,0.1-0.86,0.31-1.39,0.67
			c-1.06,0.7-2.22,1.93-3.26,3.33c-2.1,2.86-3.86,6.4-5.36,10.05c-2.98,7.36-5.04,15.31-6.67,23.32c-1.57,8.03-2.65,16.2-3.3,24.38
			c-0.64,8.18-0.89,16.39-0.56,24.54c0.67,16.25,3.62,32.45,8.46,47.89c2.45,7.7,5.41,15.24,9.11,22.12c1.85,3.42,3.9,6.69,6.13,9.4
			c1.1,1.35,2.28,2.52,3.33,3.35c0.52,0.4,1.01,0.71,1.34,0.87C148.79,313.28,148.95,313.29,148.85,313.29z M148.03,327.19
			c-2.19-0.14-4.07-0.77-5.63-1.5c-1.56-0.74-2.83-1.62-3.95-2.51c-2.23-1.8-3.93-3.71-5.45-5.64c-3.01-3.86-5.28-7.83-7.31-11.85
			c-4.01-8.04-6.95-16.29-9.36-24.66c-2.39-8.37-4.17-16.86-5.39-25.43c-1.22-8.57-1.89-17.21-1.96-25.87
			c-0.1-17.28,1.7-34.37,5.36-51.18c1.83-8.41,4.11-16.75,7.5-24.94c1.72-4.09,3.68-8.15,6.56-12.06c1.48-1.94,3.16-3.88,5.61-5.52
			c1.22-0.81,2.65-1.53,4.3-1.95c0.41-0.11,0.83-0.19,1.26-0.25c0.43-0.07,0.87-0.1,1.31-0.11c0.89-0.03,1.66,0.04,2.46,0.17
			c3.18,0.53,5.68,2.01,7.74,3.56c2.06,1.58,3.73,3.34,5.24,5.14c2.98,3.63,5.31,7.47,7.37,11.37c4.1,7.82,7.19,15.92,9.77,24.14
			c5.14,16.44,8.35,33.36,9.83,50.48c0.36,4.25,0.66,8.62,0.71,12.99c0.06,4.36-0.07,8.73-0.38,13.07c-0.62,8.7-1.93,17.35-4,25.86
			c-2.08,8.51-4.85,16.88-8.72,25.01c-1.96,4.06-4.17,8.06-7.11,11.97c-1.49,1.95-3.14,3.88-5.37,5.74
			c-1.13,0.92-2.41,1.84-4.06,2.63C152.77,326.63,150.6,327.31,148.03,327.19z"/>
	</g>
	<path class="st0" d="M376.77,204.45c91.27-1.42,195.95,23.59,192.8,59.57c-5.58,63.63-226.6,36.55-244.8,91.16
		c-4.55,13.64,7.47,27.16,19.73,34.67c12.51,7.67,26.5,12.9,40.97,15.32c6.26,1.05,12.91,1.53,18.75-0.95
		c5.84-2.48,10.5-8.74,9.22-14.96c-1.4-6.83-8.76-10.53-15.44-12.49c-14.42-4.22-30.72-4.77-43.77,2.67s-21.19,24.45-15.21,38.23
		c3.21,7.41,9.79,12.84,16.72,16.98c22.12,13.23,50.34,15.75,74.45,6.65c4.78-1.8,10.08-4.97,10.38-10.07
		c0.14-2.32-0.84-4.57-2-6.59c-6.58-11.53-18.76-18.54-30.51-24.73c-16.04-8.44-32.48-16.4-49.99-21.08
		c-12.98-3.47-27.18-5-39.57,0.2c-12.39,5.21-21.96,18.86-18.77,31.92c1.96,8.03,8.12,14.32,14.48,19.59
		c17.35,14.4,41.06,24.74,62.28,17.12c4.07-1.46,8.01-3.62,10.75-6.96c7.94-9.66,3.08-24.11,5.33-36.41
		c2.13-11.66,11.1-21.35,21.86-26.33s23.08-5.71,34.85-4.23c15.58,1.96,32.46,9.47,37.33,24.39c3.43,10.53-0.19,22.41-7.08,31.08
		s-16.62,14.6-26.55,19.49c-31.68,15.59-89.71,22.17-137.1,26.73c-72.73,7-133.18,33.61-128.61,65.77
		c6.76,47.6,131.72,69.97,216.11,58.48"/>
	<g>
		<path d="M92.23,237.82c-4.55,1.49-9.13,2.23-13.72,2.77c-4.59,0.54-9.2,0.68-13.81,0.78c-4.61,0.09-9.22,0.06-13.84-0.13
			c-4.62-0.2-9.25-0.52-13.88-1.19c-1.11-0.16-1.88-1.19-1.72-2.3c0.12-0.86,0.77-1.51,1.56-1.69c4.57-1.04,9.15-1.73,13.74-2.3
			c4.59-0.55,9.19-0.96,13.79-1.24c4.6-0.27,9.2-0.5,13.82-0.34c4.62,0.16,9.25,0.54,13.9,1.65c1.12,0.27,1.8,1.39,1.54,2.5
			C93.43,237.06,92.89,237.6,92.23,237.82z"/>
	</g>
	<g>
		<path d="M91.28,185.72c-3.63-0.4-7.03-1.32-10.34-2.39c-3.31-1.08-6.52-2.37-9.65-3.84c-3.13-1.46-6.18-3.08-9.14-4.9
			c-2.95-1.84-5.83-3.82-8.48-6.29c-1.06-0.99-1.12-2.65-0.13-3.7c0.6-0.65,1.47-0.92,2.28-0.81c3.58,0.51,6.94,1.5,10.22,2.64
			c3.27,1.16,6.45,2.52,9.56,4.03c3.11,1.51,6.12,3.2,9.05,5.09c2.92,1.91,5.76,3.97,8.36,6.54c0.83,0.82,0.84,2.16,0.02,2.99
			C92.55,185.58,91.9,185.79,91.28,185.72z"/>
	</g>
	<g>
		<path d="M95.87,287.82c-2.39,2.26-4.97,4.2-7.59,6.08c-2.63,1.86-5.33,3.6-8.1,5.24c-2.76,1.65-5.59,3.19-8.49,4.6
			c-2.91,1.4-5.87,2.73-9.02,3.73c-1.08,0.35-2.24-0.25-2.59-1.33c-0.24-0.76-0.02-1.55,0.5-2.08c2.34-2.34,4.87-4.37,7.45-6.31
			c2.59-1.93,5.25-3.74,7.98-5.44c2.73-1.7,5.51-3.31,8.37-4.8c2.87-1.47,5.78-2.87,8.88-3.96c1.33-0.47,2.79,0.23,3.26,1.56
			C96.87,286.09,96.58,287.15,95.87,287.82z"/>
	</g>
	<g>
		<path d="M704.4,523.54c5.04-2.6,10.26-4.33,15.53-5.81c5.27-1.48,10.63-2.5,15.99-3.47c5.37-0.96,10.77-1.77,16.21-2.4
			c2.72-0.3,5.44-0.6,8.19-0.78c2.74-0.22,5.49-0.36,8.27-0.37c1.13-0.01,2.04,0.9,2.05,2.03c0,0.86-0.52,1.59-1.26,1.9
			c-2.57,1.05-5.17,1.98-7.78,2.84c-2.6,0.89-5.23,1.67-7.86,2.43c-5.26,1.5-10.56,2.83-15.89,4.01c-5.33,1.17-10.67,2.29-16.1,2.95
			c-5.43,0.66-10.91,1.06-16.57,0.61c-1.15-0.09-2-1.1-1.91-2.24C703.34,524.48,703.79,523.86,704.4,523.54z"/>
	</g>
	<g>
		<path d="M687.03,470.72c1.49-3.57,3.47-6.75,5.58-9.82c2.11-3.08,4.48-5.94,6.89-8.77c2.42-2.83,4.92-5.58,7.54-8.25
			c2.62-2.66,5.34-5.25,8.29-7.64c0.88-0.71,2.17-0.57,2.88,0.3c0.52,0.64,0.59,1.5,0.24,2.2c-1.69,3.41-3.63,6.62-5.66,9.75
			c-2.04,3.13-4.18,6.17-6.42,9.15c-2.24,2.97-4.52,5.9-7.06,8.63c-2.54,2.72-5.22,5.35-8.38,7.57c-1.17,0.83-2.8,0.55-3.63-0.63
			C686.78,472.47,686.71,471.52,687.03,470.72z"/>
	</g>
	<g>
		<path d="M707.36,581.43c3.78-0.1,7.42,0.31,11.02,0.87c3.6,0.57,7.14,1.36,10.64,2.3c3.5,0.93,6.98,1.98,10.4,3.2
			c3.42,1.23,6.82,2.59,10.11,4.32c1.25,0.66,1.74,2.21,1.08,3.46c-0.47,0.9-1.41,1.4-2.36,1.37c-3.72-0.13-7.33-0.64-10.92-1.27
			c-3.58-0.64-7.12-1.45-10.62-2.38c-3.5-0.93-6.97-1.99-10.38-3.29c-3.4-1.3-6.77-2.76-10-4.72c-0.98-0.6-1.3-1.88-0.7-2.86
			C706.01,581.8,706.68,581.45,707.36,581.43z"/>
	</g>
</g>
</svg>
