<?xml version="1.0" encoding="utf-8"?>
<!-- Generator: Adobe Illustrator 23.0.6, SVG Export Plug-In . SVG Version: 6.00 Build 0)  -->
<svg version="1.1" id="Flask" xmlns="http://www.w3.org/2000/svg" xmlns:xlink="http://www.w3.org/1999/xlink" x="0px" y="0px"
	 viewBox="0 0 800 800" style="enable-background:new 0 0 800 800;" xml:space="preserve">
<g>
	<g>
		<path d="M134.16,396.57c15.86-5.69,32.36-9.75,49.14-12.23c16.79-2.4,33.86-3.19,50.82-2.31c16.97,0.84,33.77,3.39,50.29,6.65
			c16.53,3.3,32.81,7.31,49.1,10.98l12.21,2.69c4.07,0.89,8.14,1.76,12.21,2.58l6.11,1.21l6.12,1.12c4.08,0.78,8.16,1.42,12.25,2.07
			c8.17,1.32,16.35,2.4,24.55,3.24c1.03,0.1,2.05,0.25,3.07,0.34l3.08,0.26l6.15,0.52c2.05,0.2,4.1,0.3,6.16,0.41l6.16,0.34
			c16.43,0.74,32.91,0.27,49.31-1.41c16.4-1.7,32.72-4.49,48.94-8.11l0.02,0c1.35-0.3,2.69,0.55,2.99,1.9
			c0.28,1.26-0.46,2.52-1.66,2.92c-31.97,10.52-66.01,15.79-99.96,14.75l-6.36-0.26c-2.12-0.09-4.24-0.15-6.35-0.36l-6.33-0.53
			c-2.11-0.17-4.22-0.34-6.32-0.63c-8.41-1-16.78-2.22-25.08-3.71c-4.15-0.76-8.3-1.5-12.41-2.38l-6.18-1.27l-6.16-1.35
			c-4.11-0.87-8.2-1.78-12.29-2.72l-12.24-2.82c-16.3-3.73-32.56-7.39-48.88-10.21c-16.31-2.88-32.68-4.97-49.08-6.02l-6.15-0.39
			c-2.05-0.12-4.1-0.11-6.16-0.18l-6.16-0.19c-2.05-0.02-4.11,0.04-6.16,0.05l-6.16,0.07l-6.16,0.29l-6.16,0.3
			c-2.05,0.13-4.1,0.37-6.15,0.55c-16.41,1.39-32.72,4.18-49,7.68l-0.02,0c-1.08,0.23-2.15-0.46-2.38-1.54
			C132.67,397.88,133.23,396.9,134.16,396.57z"/>
	</g>
	<g>
		<path d="M603.92,138.03c-4.17-2.34-8.41-4.51-12.72-6.29c-1.08-0.42-2.15-0.88-3.24-1.22c-0.54-0.18-1.08-0.38-1.63-0.55
			l-1.63-0.46c-2.15-0.57-4.32-1.04-6.31-1.06c-1.99-0.05-3.75,0.34-4.8,1.06c-0.21,0.24-0.49,0.38-0.68,0.62
			c-0.09,0.13-0.19,0.24-0.29,0.36c-0.05,0.07-0.1,0.08-0.16,0.19l-0.21,0.33c-0.54,0.9-1.16,1.71-1.62,2.71
			c-2,3.81-3.49,8.2-4.94,12.75c-2.93,9.09-6.22,18.83-11.83,27.57c-0.65,1.12-1.4,2.17-2.15,3.23c-0.75,1.06-1.46,2.14-2.31,3.13
			l-2.46,3.02l-2.67,2.84c-0.9,0.99-1.76,1.8-2.63,2.65l-2.6,2.54l-5.19,5.08l-20.78,20.32l-20.89,20.2
			c-13.91,13.49-27.91,26.88-41.97,40.21c-1.2,1.14-3.1,1.09-4.24-0.11c-1.11-1.17-1.08-3,0.02-4.15
			c13.42-13.98,26.89-27.89,40.46-41.72l20.32-20.76l20.44-20.65l5.11-5.16l2.56-2.58c0.85-0.86,1.73-1.73,2.45-2.55l2.27-2.49
			l2.08-2.65c0.72-0.86,1.31-1.82,1.95-2.75c0.63-0.93,1.28-1.85,1.82-2.84c2.36-3.85,4.29-7.99,6.06-12.3
			c1.79-4.29,3.4-8.76,5.18-13.33c1.83-4.55,3.73-9.29,6.62-13.85c0.66-1.15,1.57-2.24,2.38-3.34l0.31-0.41
			c0.11-0.14,0.3-0.32,0.45-0.48c0.32-0.33,0.64-0.65,0.97-0.96c0.66-0.62,1.46-1.07,2.21-1.56c0.79-0.35,1.6-0.74,2.41-0.97
			c0.8-0.18,1.62-0.44,2.39-0.49c0.77-0.05,1.57-0.17,2.3-0.13c0.73,0.04,1.48,0.04,2.19,0.13c5.66,0.72,10.34,2.9,14.79,5.28
			c4.44,2.4,8.52,5.22,12.41,8.23c0.88,0.68,1.04,1.94,0.36,2.81C605.88,138.31,604.78,138.51,603.92,138.03L603.92,138.03z"/>
	</g>
	<g>
		<path d="M642.86,636.85c-11.34,1.34-22.7,2.26-34.07,3c-5.68,0.37-11.37,0.69-17.05,1l-17.05,0.92
			c-11.37,0.61-22.74,1.12-34.12,1.62c-5.69,0.26-11.37,0.52-17.06,0.71c-5.69,0.21-11.38,0.43-17.07,0.59l-0.05,0
			c-2.75,0.07-5.05-2.1-5.12-4.85l0-0.02l-4.83-206.55l0-0.01c-0.03-1.38,0.58-2.65,1.54-3.5l75.06-65.49
			c1.57-1.37,3.81-1.45,5.46-0.35l0.02,0.02l80.95,54.33c1.41,0.95,2.18,2.5,2.19,4.08l0,0.06l0.02,26.49
			c0.01,8.83-0.04,17.66-0.1,26.49c-0.1,17.66-0.19,35.33-0.43,52.99l-0.3,26.49c-0.1,8.83-0.19,17.66-0.37,26.49
			c-0.16,8.83-0.38,17.66-0.7,26.49c-0.27,8.83-0.63,17.66-1.12,26.49c-0.06,1.1-1.01,1.95-2.11,1.89
			c-1.03-0.06-1.83-0.88-1.89-1.89c-0.49-8.83-0.85-17.66-1.12-26.49c-0.32-8.83-0.54-17.66-0.7-26.49
			c-0.18-8.83-0.27-17.66-0.37-26.49l-0.3-26.49c-0.24-17.66-0.34-35.33-0.43-52.99c-0.06-8.83-0.11-17.66-0.1-26.49l0.02-26.49
			l2.19,4.14l-80.39-55.16l5.48-0.33l-75.06,65.49l1.54-3.51l5.83,206.53l-5.18-4.87c5.69-0.25,11.38-0.43,17.07-0.62
			c5.69-0.21,11.38-0.36,17.07-0.5c11.38-0.3,22.76-0.6,34.15-0.8l17.08-0.29c5.69-0.1,11.39-0.18,17.08-0.21
			c11.39-0.06,22.78,0.05,34.2,0.58c1.11,0.05,1.96,0.99,1.91,2.1C644.58,635.94,643.82,636.73,642.86,636.85z"/>
	</g>
	<g>
		<path d="M592.27,434.76c-1.13,2.01-2.86,3.77-4.91,5.05c-2.05,1.28-4.42,2.1-6.83,2.42c-4.85,0.7-9.86-0.55-14.02-3.17
			c-0.51-0.35-1.04-0.66-1.52-1.05l-1.44-1.16c-0.9-0.85-1.79-1.72-2.57-2.73c-1.57-1.97-2.86-4.25-3.64-6.73
			c-0.79-2.47-1.09-5.12-0.89-7.72c0.22-2.6,0.94-5.14,2.08-7.45c2.32-4.59,6.11-8.26,10.85-10.33c2.35-1.03,4.91-1.63,7.5-1.71
			c2.58-0.1,5.18,0.37,7.56,1.26c2.39,0.89,4.56,2.23,6.43,3.82c0.93,0.81,1.81,1.64,2.58,2.58c0.8,0.92,1.51,1.92,2.13,2.98
			c2.49,4.21,3.2,9.54,1.53,13.94c-0.44,1.16-1.73,1.74-2.89,1.3c-0.77-0.29-1.29-0.97-1.41-1.73l-0.02-0.13
			c-0.6-3.63-1.82-6.64-3.71-9.22c-0.92-1.28-2.05-2.49-3.33-3.43c-1.26-0.95-2.64-1.67-4.06-2.1c-2.85-0.87-5.92-0.63-8.56,0.67
			c-2.62,1.29-4.91,3.6-6.21,6.22c-0.67,1.31-1.08,2.72-1.2,4.15c-0.15,1.42-0.03,2.87,0.36,4.25c0.76,2.76,2.64,5.37,5.22,7.25
			c5.03,3.8,12.54,4.96,18.3,0.54l0.07-0.05c0.78-0.6,1.89-0.45,2.48,0.33C592.58,433.4,592.61,434.16,592.27,434.76z"/>
	</g>
	<g>
		<path d="M498.7,223.5c4.62,1.37,9.18,3.08,13.51,5.25c2.22,0.99,4.29,2.25,6.43,3.39c1.05,0.6,2.07,1.27,3.1,1.9
			c1.03,0.64,2.07,1.27,3.06,1.97c4.04,2.69,7.88,5.67,11.64,8.73c3.74,3.09,7.3,6.39,10.75,9.81c3.43,3.43,6.7,7.02,9.81,10.74
			c3.11,3.72,6.09,7.55,8.86,11.53c2.8,3.96,5.4,8.06,7.83,12.27c1.22,2.1,2.39,4.24,3.52,6.4c0.57,1.08,1.11,2.18,1.64,3.29
			c0.54,1.13,1.02,2.19,1.57,3.48l0,0c0.23,0.53,0.35,1.07,0.38,1.61l0.01,0.21c0.19,4.67,0.31,9.33,0.43,14
			c0.14,4.67,0.25,9.33,0.33,14c0.17,9.33,0.29,18.67,0.34,28.01c0.09,9.34,0.06,18.68,0.06,28.01c-0.04,4.67-0.12,9.34-0.34,14.01
			c-0.21,4.67-0.51,9.35-1.06,14.03c-0.16,1.38-1.42,2.37-2.8,2.21c-1.15-0.14-2.02-1.02-2.2-2.11c-0.74-4.65-1.22-9.31-1.62-13.97
			c-0.41-4.66-0.68-9.32-0.91-13.99c-0.38-9.33-0.78-18.66-1.07-27.99c-0.32-9.33-0.58-18.66-0.79-28c-0.11-4.67-0.19-9.33-0.24-14
			c-0.06-4.67-0.14-9.34-0.13-14l0.39,1.83l0,0c-0.39-0.88-0.9-1.96-1.4-2.95l-1.54-3.03c-1.05-2.02-2.14-4.02-3.3-6
			c-2.29-3.96-4.75-7.84-7.31-11.64c-5.15-7.59-10.88-14.79-17.1-21.53c-3.14-3.34-6.39-6.57-9.77-9.67
			c-3.42-3.05-6.9-6.04-10.6-8.76c-7.3-5.57-15.06-10.47-23.04-15.37l-0.04-0.02c-0.95-0.58-1.25-1.82-0.66-2.77
			C496.9,223.59,497.85,223.25,498.7,223.5z"/>
	</g>
	<g>
		<path d="M557.67,464.35c5.56,0.82,10.95,2.05,16.35,3.49c5.38,1.49,10.72,3.21,15.96,5.39c5.24,2.18,10.4,4.75,15.28,8.27
			c2.43,1.78,4.8,3.82,6.87,6.39c2.06,2.54,3.88,5.76,4.51,9.55c0.09,0.95,0.28,1.9,0.24,2.85c-0.06,0.96-0.05,1.9-0.23,2.87
			c-0.33,1.93-1.07,3.92-2.18,5.64c-1.11,1.73-2.54,3.16-4.02,4.28c-1.49,1.12-3.03,1.96-4.57,2.61
			c-6.15,2.55-11.96,3.08-17.63,3.53c-5.67,0.37-11.2,0.38-16.64,0.49c-5.42,0.12-10.82,0.21-15.83,1.02
			c-2.47,0.4-4.89,0.98-6.73,1.91c-0.92,0.45-1.65,0.98-2.14,1.51c-0.49,0.53-0.74,1.05-0.89,1.73c-0.3,1.65,0.11,3.06,1.19,4.64
			c1.11,1.56,3.01,3.02,5.05,4.33c2.07,1.3,4.4,2.43,6.79,3.5c2.4,1.07,4.87,2.07,7.39,3.06c5.06,2,10.24,3.88,15.49,6.51
			c2.61,1.36,5.28,2.81,7.89,5.04c0.65,0.59,1.3,1.19,1.92,1.89c0.62,0.75,1.24,1.44,1.78,2.41c0.58,0.85,1,1.95,1.38,3.03
			c0.17,0.55,0.25,1.16,0.36,1.75c0.04,0.29,0.1,0.61,0.11,0.87l0.01,0.76c0.02,2.01-0.41,4.18-1.27,6.04
			c-0.85,1.88-2.01,3.39-3.16,4.63c-2.33,2.5-4.71,4.12-6.86,5.77c-2.15,1.63-4.17,3.17-5.98,4.85c-1.81,1.68-3.4,3.49-4.76,5.5
			c-1.34,2.02-2.46,4.22-3.31,6.59c-0.86,2.37-1.49,4.89-1.96,7.5l-0.01,0.04c-0.2,1.09-1.25,1.82-2.34,1.62
			c-0.92-0.17-1.58-0.94-1.65-1.83c-0.43-5.7,0.36-11.84,3.07-17.4c0.66-1.39,1.42-2.73,2.27-4.01c0.87-1.26,1.79-2.49,2.78-3.63
			c1.95-2.32,4.13-4.31,6.22-6.16c2.07-1.83,4.05-3.59,5.38-5.17c0.66-0.8,1.13-1.54,1.36-2.18c0.24-0.65,0.31-1.24,0.26-1.96
			l-0.01-0.27c-0.01-0.07-0.04-0.09-0.05-0.14c-0.04-0.08-0.01-0.16-0.05-0.26c-0.13-0.19-0.14-0.4-0.37-0.68
			c-0.11-0.26-0.44-0.56-0.68-0.87c-0.3-0.31-0.67-0.64-1.03-0.96c-1.6-1.3-3.69-2.62-5.94-3.79c-4.5-2.38-9.53-4.53-14.53-6.86
			c-5.03-2.36-10.17-4.74-15.15-8.17c-2.48-1.74-4.99-3.71-7.04-6.67c-0.49-0.77-1.01-1.48-1.37-2.39
			c-0.19-0.43-0.39-0.86-0.56-1.31l-0.39-1.42l-0.18-0.71l-0.08-0.73c-0.05-0.49-0.08-0.98-0.11-1.47c0.04-0.97,0.11-1.9,0.28-2.88
			c0.4-2,1.4-4.03,2.76-5.52c1.36-1.5,2.92-2.54,4.45-3.33c3.07-1.53,6.04-2.26,8.94-2.85c5.8-1.07,11.38-1.48,16.9-1.86
			c5.51-0.37,10.93-0.67,16.19-1.24c2.62-0.27,5.2-0.62,7.66-1.12c2.45-0.47,4.81-1.09,6.77-1.97c1.97-0.87,3.46-1.92,4.19-3.06
			c0.38-0.57,0.64-1.19,0.79-1.95c0.08-0.38,0.07-0.81,0.14-1.22c0.06-0.41-0.06-0.82-0.05-1.24c-0.19-1.65-1-3.45-2.31-5.19
			c-1.31-1.74-3.02-3.42-4.9-5.01c-3.84-3.14-8.39-5.79-13.06-8.25c-9.44-4.82-19.63-8.74-29.85-12.24l-0.05-0.02
			c-1.05-0.36-1.61-1.5-1.25-2.55C555.8,464.75,556.73,464.21,557.67,464.35z"/>
	</g>
	<g>
		<path d="M344.7,610.01c0.04,2.42-0.46,4.91-1.51,7.14c-1.05,2.24-2.6,4.19-4.43,5.74c-1.83,1.55-3.92,2.72-6.1,3.51
			c-2.2,0.77-4.46,1.18-6.75,1.29c-4.73,0.18-9.39-1.42-13.08-4.41c-1.85-1.49-3.42-3.4-4.55-5.6c-1.13-2.2-1.73-4.73-1.7-7.21
			c0.04-2.4,0.49-4.72,1.44-6.99c0.93-2.25,2.39-4.32,4.2-5.99c1.8-1.68,3.94-2.96,6.19-3.79c2.26-0.84,4.61-1.27,6.94-1.36
			c2.37-0.08,4.72,0.45,6.95,1.23c2.23,0.8,4.34,1.95,6.21,3.47c1.87,1.52,3.49,3.44,4.61,5.68
			C344.23,604.95,344.8,607.52,344.7,610.01z M337.7,610.01c-0.18-2.65-1.75-4.94-4.11-6.49c-1.17-0.77-2.52-1.34-3.92-1.69
			c-1.41-0.37-2.87-0.41-4.31-0.48c-2.95-0.16-5.83,0.54-8.02,2.14c-1.09,0.8-1.98,1.84-2.63,3.06c-0.64,1.2-1.02,2.67-1.09,4.07
			c-0.07,1.33,0.23,2.63,0.87,3.8c0.63,1.18,1.64,2.19,2.81,3.01c1.18,0.82,2.55,1.41,3.97,1.78c1.42,0.38,2.89,0.55,4.34,0.49
			c3.04-0.09,6.06-1.02,8.31-2.72C336.2,615.27,337.62,612.79,337.7,610.01z"/>
	</g>
	<g>
		<path d="M384.28,492.89c-0.02,2.98-0.52,6.05-1.71,8.93c-1.18,2.88-3.07,5.51-5.4,7.56c-2.33,2.07-5.09,3.52-7.91,4.44
			c-2.83,0.92-5.7,1.32-8.55,1.38c-5.77,0.15-11.91-1.73-16.32-5.95c-2.21-2.07-3.9-4.7-4.92-7.52c-1.03-2.82-1.41-5.82-1.22-8.71
			c0.15-2.8,0.62-5.58,1.57-8.32c0.95-2.72,2.39-5.4,4.47-7.64c2.07-2.23,4.72-3.97,7.54-5c2.83-1.05,5.77-1.47,8.64-1.5
			c5.77-0.09,11.88,1.82,16.5,5.91c2.29,2.04,4.18,4.58,5.43,7.42C383.65,486.74,384.26,489.83,384.28,492.89z M376.28,492.89
			c0.04-4.06-1.59-7.95-4.52-10.72c-2.9-2.8-7.02-4.46-11.39-4.6c-4.41-0.2-8.65,0.94-11.54,3.84c-1.43,1.45-2.54,3.29-3.29,5.34
			c-0.74,2.05-1.16,4.32-1.3,6.59c-0.27,4.36,1.27,8.6,4.4,11.3c3.1,2.72,7.47,3.89,11.8,3.57c4.46-0.29,8.7-1.79,11.53-4.54
			C374.84,500.98,376.32,497.1,376.28,492.89z"/>
	</g>
	<g>
		<path d="M240.19,459.99c-2.38,2.78-5.43,4.6-8.49,5.88c-3.09,1.27-6.32,1.95-9.54,2.17c-3.23,0.2-6.48-0.02-9.66-0.79
			c-3.17-0.75-6.29-2.01-9.09-3.91l-1.05-0.72l-1-0.86l-0.99-0.87l-0.87-0.98l-0.86-0.99l-0.74-1.07l-0.74-1.07l-0.61-1.13
			c-1.6-3.04-2.56-6.32-2.9-9.65c-0.34-3.33-0.13-6.71,0.71-9.99c0.84-3.27,2.31-6.47,4.53-9.25c4.47-5.64,11.37-8.54,18.02-8.78
			c6.68-0.25,13.3,1.93,18.41,6.05c2.58,2.05,4.72,4.67,6.28,7.52c1.57,2.87,2.62,5.98,3.14,9.2c0.52,3.22,0.5,6.56-0.19,9.85
			C243.85,453.92,242.45,457.19,240.19,459.99z M234.08,454.75c2.94-3.18,4.45-8.22,4.08-13.17c-0.33-4.97-2.67-9.85-6.58-12.79
			c-1.95-1.51-4.26-2.52-6.66-3.04c-2.41-0.51-4.9-0.51-7.27-0.08c-4.75,0.85-9,3.35-11.74,6.73c-2.72,3.44-4.31,8.3-4.27,13.1
			c0.04,2.39,0.46,4.8,1.43,6.9c0.96,2.13,2.38,3.86,4.29,5.19c3.88,2.73,9.16,3.66,14.13,3.11c2.49-0.29,4.92-0.97,7.11-1.97
			C230.8,457.74,232.68,456.32,234.08,454.75z"/>
	</g>
	<g>
		<path d="M249.49,528.88c1.26,2.12,2.21,4.53,2.61,7.1c0.4,2.57,0.19,5.27-0.58,7.76c-0.76,2.49-2.11,4.73-3.71,6.59
			c-1.61,1.87-3.48,3.38-5.45,4.64c-2.11,1.34-4.56,2.25-7.06,2.57c-2.51,0.34-5.02,0.08-7.35-0.57c-2.34-0.65-4.5-1.73-6.45-3.1
			c-1.94-1.38-3.68-3.08-5.04-5.16c-2.77-4.05-3.57-9.54-2.16-14.24c1.32-4.72,4.42-8.87,8.64-11.47c4.06-2.56,9.29-3.83,14.35-2.79
			c2.51,0.51,4.94,1.54,7.03,3.05C246.41,524.76,248.17,526.71,249.49,528.88z M242.63,533c-1.55-2.63-4.07-4.53-7.01-5.25
			c-2.93-0.76-6.22-0.3-9.14,1.3c-2.82,1.48-5.13,4.15-6.16,7.23c-0.5,1.53-0.69,3.15-0.49,4.71c0.21,1.56,0.76,3.07,1.65,4.43
			c1.76,2.67,4.85,4.75,8.05,5.48c3.23,0.75,6.43,0.09,8.95-1.76c2.83-2.02,4.93-4.71,5.64-7.56
			C244.87,538.74,244.31,535.73,242.63,533z"/>
	</g>
	<g>
		<path d="M408.84,537.51c1.79-1.5,3.88-2.37,5.94-2.92c2.08-0.54,4.19-0.68,6.28-0.5c2.08,0.18,4.15,0.68,6.09,1.58
			c1.94,0.86,3.77,2.11,5.28,3.71c1.61,1.65,2.73,3.75,3.37,5.87c0.64,2.13,0.87,4.31,0.71,6.46c-0.3,4.26-2.02,8.54-5.6,11.67
			c-3.62,3.11-8.41,4.06-12.63,3.35c-4.24-0.72-8.07-2.9-10.85-6.02c-1.41-1.55-2.53-3.48-3.19-5.5c-0.66-2.04-0.91-4.17-0.77-6.27
			C403.74,544.74,405.45,540.57,408.84,537.51z M413.96,543.72c-1.8,1.26-3.38,3.5-3.93,5.99c-0.58,2.5,0.06,5.11,1.84,6.89
			c1.79,1.87,4.52,2.66,6.99,2.43c2.48-0.2,4.66-1.21,6.18-2.5c1.52-1.3,2.9-3.49,3.48-5.89c0.28-1.19,0.37-2.43,0.17-3.56
			c-0.19-1.14-0.67-2.13-1.37-2.93c-0.79-0.87-1.8-1.57-2.95-2.03c-1.16-0.44-2.43-0.68-3.71-0.68
			C418.1,541.43,415.54,542.36,413.96,543.72z"/>
	</g>
	<g>
		<path d="M541.02,395.87c-4.94-14.25-11.43-27.95-19.24-40.82l0,0c-1.2-1.96-0.86-4.44,0.69-6.01l0.14-0.13l6.4-6.47l6.45-6.42
			l12.9-12.84c8.65-8.51,17.32-17,26.04-25.44c8.68-8.47,17.48-16.84,26.21-25.26l6.59-6.28l1.65-1.57l1.78-1.64l1.79-1.64l0.9-0.82
			l0.96-0.76c5.01-4.19,10.56-7.69,16.28-10.55c5.72-2.87,11.59-5.13,17.27-7.28c5.69-2.14,11.19-4.23,16.16-6.83l1.85-0.99
			c0.62-0.33,1.17-0.72,1.76-1.08c0.57-0.37,1.18-0.72,1.73-1.11l1.62-1.22c1.38-1.01,1.42-1.09,1.82-1.72
			c0.32-0.58,0.57-1.42,0.65-2.47c0.13-2.13-0.3-4.74-1.07-7.34c-0.77-2.61-1.83-5.26-3.04-7.86c-2.45-5.21-5.5-10.28-8.78-15.21
			c-3.28-4.94-6.87-9.72-10.61-14.39c-3.72-4.69-7.65-9.24-11.71-13.67c-2-2.25-4.18-4.32-6.27-6.49l-6.29-6.5l-0.09-0.09
			c-0.77-0.79-0.75-2.06,0.04-2.83c0.75-0.73,1.93-0.74,2.71-0.07c4.59,4.03,9.3,7.97,13.76,12.18c4.44,4.22,8.77,8.59,12.92,13.14
			c4.14,4.56,8.1,9.3,11.82,14.28c1.87,2.48,3.66,5.03,5.36,7.67c1.7,2.64,3.33,5.33,4.81,8.17c1.48,2.83,2.83,5.78,3.93,8.94
			c1.08,3.16,1.9,6.59,1.83,10.53c-0.08,1.98-0.46,4.16-1.51,6.3c-0.25,0.54-0.53,1.06-0.91,1.56c-0.35,0.5-0.7,1.01-1.14,1.44
			c-0.95,1.03-1.51,1.39-2.18,1.95l-1.96,1.59c-0.67,0.5-1.37,0.95-2.05,1.42c-0.69,0.46-1.37,0.96-2.07,1.38l-2.12,1.24
			c-5.67,3.26-11.54,5.55-17.13,7.85c-5.61,2.28-11.02,4.55-16.09,7.26c-1.24,0.71-2.51,1.37-3.74,2.09l-3.61,2.25l-3.44,2.45
			c-1.12,0.85-2.18,1.77-3.28,2.65l-0.82,0.67l-0.77,0.73l-1.54,1.46l-1.55,1.47l-1.62,1.59l-6.51,6.37
			c-8.72,8.45-17.39,16.95-26.16,25.35c-8.74,8.43-17.53,16.81-26.34,25.17l-13.28,12.47l-6.64,6.23l-6.69,6.18l0.83-6.14l0,0
			c7.88,13.64,14.35,28.09,19.17,43.06c0.76,2.37-0.54,4.9-2.9,5.66C544.32,399.43,541.82,398.17,541.02,395.87z"/>
	</g>
	<g>
		<path d="M466.47,289.58c-17.16-11.6-35.63-21.17-55.18-27.6c-9.74-3.28-19.68-5.96-29.79-7.7c-10.11-1.75-20.31-2.89-30.55-3.22
			c-10.24-0.38-20.5,0.12-30.66,1.33c-10.16,1.21-20.23,3.15-30.1,5.8c-9.86,2.73-19.51,6.15-28.88,10.23
			c-2.32,1.07-4.69,2.03-6.97,3.18l-6.85,3.43c-4.47,2.46-8.97,4.89-13.27,7.65c-17.43,10.65-33.25,23.88-47.1,38.89
			c-6.84,7.57-13.39,15.44-19.13,23.89l-2.21,3.13l-2.06,3.23c-1.36,2.16-2.77,4.29-4.09,6.47c-2.52,4.44-5.16,8.81-7.39,13.41
			c-2.42,4.5-4.43,9.19-6.56,13.83c-0.99,2.35-1.9,4.74-2.86,7.1c-0.47,1.18-0.98,2.36-1.42,3.55l-1.27,3.61l-1.27,3.61
			c-0.43,1.2-0.87,2.4-1.21,3.63l-2.21,7.33c-0.39,1.21-0.68,2.46-0.99,3.69l-0.93,3.71l-0.93,3.71l-0.77,3.75
			c-2.16,9.97-3.53,20.11-4.28,30.28c-0.83,10.18-0.65,20.41,0.09,30.58c0.69,10.19,2.39,20.29,4.74,30.21
			c2.32,9.94,5.68,19.61,9.66,28.99l1.53,3.5c0.52,1.16,0.99,2.35,1.59,3.48l3.46,6.82c0.55,1.15,1.23,2.23,1.87,3.33l1.94,3.3
			l1.93,3.3l2.12,3.18c5.48,8.6,11.96,16.52,18.85,24.01l5.29,5.52l5.6,5.2c0.94,0.86,1.84,1.76,2.82,2.58l2.95,2.46
			c1.98,1.62,3.9,3.33,5.93,4.89l6.12,4.65l1.53,1.16l1.58,1.09l3.17,2.18c4.16,2.99,8.59,5.58,12.92,8.31
			c8.86,5.13,17.96,9.84,27.38,13.83c2.34,1.03,4.75,1.89,7.12,2.84l3.57,1.4l3.63,1.23c2.43,0.8,4.82,1.7,7.27,2.41l7.36,2.13
			c39.42,10.7,81.78,10.17,120.61-2.05c9.69-3.09,19.14-6.87,28.33-11.21c9.12-4.48,17.97-9.51,26.47-15.09
			c4.13-2.96,8.38-5.76,12.34-8.96l3.02-2.33l1.51-1.16c0.5-0.4,0.97-0.82,1.46-1.23l5.81-4.95c0.99-0.8,1.9-1.7,2.83-2.57
			l2.78-2.62c1.85-1.75,3.75-3.45,5.53-5.28c3.61-3.61,7.08-7.34,10.46-11.16l0.01-0.01c2.01-2.27,5.49-2.48,7.77-0.47
			c2.22,1.97,2.47,5.33,0.61,7.61c-13.58,16.55-29.71,31.01-47.47,43.08c-8.98,5.88-18.28,11.29-27.98,15.92
			c-9.75,4.52-19.77,8.42-30.02,11.61c-10.29,3.06-20.77,5.44-31.37,7.13c-10.62,1.54-21.33,2.38-32.05,2.49
			c-10.72,0.03-21.42-0.74-32.04-2.13c-10.61-1.45-21.08-3.74-31.39-6.57c-10.3-2.89-20.34-6.61-30.16-10.8
			c-9.79-4.28-19.23-9.3-28.4-14.74c-4.48-2.89-9.06-5.64-13.36-8.8l-3.27-2.3l-1.63-1.15l-1.58-1.22l-6.33-4.87
			c-2.1-1.63-4.09-3.41-6.14-5.11l-3.05-2.58c-1.01-0.86-1.96-1.82-2.95-2.72l-5.86-5.5l-5.53-5.83
			c-7.21-7.91-13.97-16.28-19.69-25.35c-5.79-9-10.96-18.43-15.15-28.28c-4.24-9.82-7.81-19.96-10.31-30.36
			c-2.58-10.37-4.59-20.92-5.49-31.59c-0.96-10.65-1.33-21.38-0.66-32.06c0.63-10.67,1.76-21.35,4.03-31.82l0.78-3.94l0.95-3.9
			l0.96-3.9c0.32-1.3,0.61-2.6,1.02-3.88l2.27-7.7c0.36-1.29,0.81-2.55,1.25-3.81l1.31-3.79l1.32-3.79
			c0.46-1.26,0.98-2.49,1.47-3.73c1.01-2.48,1.99-4.97,3.04-7.43c2.25-4.85,4.39-9.76,6.95-14.46
			c19.68-37.98,49.73-70.56,86.33-92.73c4.55-2.82,9.29-5.3,14.01-7.8l7.22-3.48c2.41-1.16,4.9-2.14,7.34-3.22
			c9.86-4.12,20-7.55,30.34-10.24c10.36-2.62,20.89-4.48,31.5-5.59c10.61-1.11,21.3-1.47,31.95-0.91
			c10.64,0.53,21.26,1.78,31.69,3.91c10.45,2.08,20.68,5.11,30.65,8.76l3.74,1.38c1.25,0.44,2.45,1.03,3.68,1.53l3.66,1.57
			c1.22,0.53,2.45,1.03,3.63,1.63l7.16,3.47l7,3.77l1.75,0.95l1.71,1.02l3.39,2.07l3.38,2.07l3.29,2.22l3.28,2.22l1.64,1.11
			l1.59,1.18l6.33,4.76c0.88,0.66,1.06,1.92,0.39,2.8c-0.64,0.85-1.84,1.05-2.71,0.46L466.47,289.58z"/>
	</g>
</g>
</svg>
