<svg width="1140" height="762" viewBox="0 0 1140 762" fill="none" xmlns="http://www.w3.org/2000/svg">
<path fill-rule="evenodd" clip-rule="evenodd" d="M692.5 77.9995C692.6 78.8995 692.7 79.8995 692.7 80.7995C676.5 82.4995 660.4 91.9995 657.9 96.5994C657.4 97.5994 656.3 98.1995 655.2 98.1995C654.7 98.1995 654.2 98.0994 653.8 97.8995C652.3 97.0994 651.8 95.2995 652.6 93.7995C656 87.2995 673.8 76.4995 692.1 74.6995C692.2 75.6995 692.4 76.5994 692.5 77.4995C691.7 70.1995 689.4 62.0994 685 53.1995C685.3 53.6995 685.5 54.1995 685.8 54.7995C674.2 58.1995 659.9 64.6995 651.6 76.7995C651 77.5995 650.1 78.0995 649.1 78.0995C648.5 78.0995 647.9 77.8995 647.4 77.5995C646 76.6995 645.7 74.7995 646.6 73.3995C655.7 60.1995 670.6 53.0995 682.9 49.2995C683.2 49.8995 683.6 50.4995 683.9 51.0995C653 -8.20055 547.6 42.0994 528.8 103.499C510 164.899 602.3 177.499 634.7 150.699C653.1 135.599 696.4 117.799 692.5 77.9995Z" fill="#2E186A"/>
<path fill-rule="evenodd" clip-rule="evenodd" d="M683.9 51.1992C684.3 51.8992 684.6 52.5992 684.9 53.2992C684.6 52.5992 684.2 51.8992 683.9 51.1992Z" fill="#2E186A"/>
<path fill-rule="evenodd" clip-rule="evenodd" d="M802.8 33.1998C802.8 34.8998 804.1 36.1998 805.8 36.1998C807.5 36.1998 808.8 34.8998 808.8 33.1998V21.4998H820.5C822.2 21.4998 823.5 20.1998 823.5 18.4998C823.5 16.7998 822.2 15.4998 820.5 15.4998H808.8V3.7998C808.8 2.0998 807.5 0.799805 805.8 0.799805C804.1 0.799805 802.8 2.0998 802.8 3.7998V15.4998H791.1C789.4 15.4998 788.1 16.7998 788.1 18.4998C788.1 20.1998 789.4 21.4998 791.1 21.4998H802.8V33.1998Z" fill="#2E186A"/>
<path fill-rule="evenodd" clip-rule="evenodd" d="M314.099 111.3H302.399V99.5996C302.399 97.8996 301.099 96.5996 299.399 96.5996C297.699 96.5996 296.399 97.8996 296.399 99.5996V111.3H284.699C282.999 111.3 281.699 112.6 281.699 114.3C281.699 116 282.999 117.3 284.699 117.3H296.399V129C296.399 130.7 297.699 132 299.399 132C301.099 132 302.399 130.7 302.399 129V117.3H314.099C315.799 117.3 317.099 116 317.099 114.3C317.099 112.6 315.699 111.3 314.099 111.3Z" fill="#2E186A"/>
<path fill-rule="evenodd" clip-rule="evenodd" d="M259.2 249.3H247.5V237.6C247.5 235.9 246.2 234.6 244.5 234.6C242.8 234.6 241.5 235.9 241.5 237.6V249.3H229.8C228.1 249.3 226.8 250.6 226.8 252.3C226.8 254 228.1 255.3 229.8 255.3H241.5V267C241.5 268.7 242.8 270 244.5 270C246.2 270 247.5 268.7 247.5 267V255.3H259.2C260.9 255.3 262.2 254 262.2 252.3C262.2 250.6 260.8 249.3 259.2 249.3Z" fill="#2E186A"/>
<path fill-rule="evenodd" clip-rule="evenodd" d="M100.9 187.4H89.2V175.7C89.2 174 87.9 172.7 86.2 172.7C84.5 172.7 83.2 174 83.2 175.7V187.4H71.5C69.8 187.4 68.5 188.7 68.5 190.4C68.5 192.1 69.8 193.4 71.5 193.4H83.2V205.1C83.2 206.8 84.5 208.1 86.2 208.1C87.9 208.1 89.2 206.8 89.2 205.1V193.4H100.9C102.6 193.4 103.9 192.1 103.9 190.4C103.9 188.7 102.5 187.4 100.9 187.4Z" fill="#2E186A"/>
<path fill-rule="evenodd" clip-rule="evenodd" d="M180.7 368.4H169V356.7C169 355 167.7 353.7 166 353.7C164.3 353.7 163 355 163 356.7V368.4H151.3C149.6 368.4 148.3 369.7 148.3 371.4C148.3 373.1 149.6 374.4 151.3 374.4H163V386.1C163 387.8 164.3 389.1 166 389.1C167.7 389.1 169 387.8 169 386.1V374.4H180.7C182.4 374.4 183.7 373.1 183.7 371.4C183.7 369.7 182.4 368.4 180.7 368.4Z" fill="#2E186A"/>
<path fill-rule="evenodd" clip-rule="evenodd" d="M32.9996 298.3H21.2996V286.6C21.2996 284.9 19.9996 283.6 18.2996 283.6C16.5996 283.6 15.2996 284.9 15.2996 286.6V298.3H3.59961C1.89961 298.3 0.599609 299.6 0.599609 301.3C0.599609 303 1.89961 304.3 3.59961 304.3H15.2996V316C15.2996 317.7 16.5996 319 18.2996 319C19.9996 319 21.2996 317.7 21.2996 316V304.3H32.9996C34.6996 304.3 35.9996 303 35.9996 301.3C35.9996 299.6 34.6996 298.3 32.9996 298.3Z" fill="#2E186A"/>
<path fill-rule="evenodd" clip-rule="evenodd" d="M957.9 291.2H946.2V279.5C946.2 277.8 944.9 276.5 943.2 276.5C941.5 276.5 940.2 277.8 940.2 279.5V291.2H928.5C926.8 291.2 925.5 292.5 925.5 294.2C925.5 295.9 926.8 297.2 928.5 297.2H940.2V308.9C940.2 310.6 941.5 311.9 943.2 311.9C944.9 311.9 946.2 310.6 946.2 308.9V297.2H957.9C959.6 297.2 960.9 295.9 960.9 294.2C960.9 292.5 959.5 291.2 957.9 291.2Z" fill="#2E186A"/>
<path fill-rule="evenodd" clip-rule="evenodd" d="M998.2 423.7H986.5V412C986.5 410.3 985.2 409 983.5 409C981.8 409 980.5 410.3 980.5 412V423.7H968.8C967.1 423.7 965.8 425 965.8 426.7C965.8 428.4 967.1 429.7 968.8 429.7H980.5V441.4C980.5 443.1 981.8 444.4 983.5 444.4C985.2 444.4 986.5 443.1 986.5 441.4V429.7H998.2C999.9 429.7 1001.2 428.4 1001.2 426.7C1001.2 425 999.9 423.7 998.2 423.7Z" fill="#2E186A"/>
<path fill-rule="evenodd" clip-rule="evenodd" d="M1112 289.299C1112 290.999 1113.3 292.299 1115 292.299C1116.7 292.299 1118 290.999 1118 289.299V277.599H1129.7C1131.4 277.599 1132.7 276.299 1132.7 274.599C1132.7 272.899 1131.4 271.599 1129.7 271.599H1118V259.899C1118 258.199 1116.7 256.899 1115 256.899C1113.3 256.899 1112 258.199 1112 259.899V271.599H1100.3C1098.6 271.599 1097.3 272.899 1097.3 274.599C1097.3 276.299 1098.6 277.599 1100.3 277.599H1112V289.299Z" fill="#2E186A"/>
<path fill-rule="evenodd" clip-rule="evenodd" d="M830.4 486.9H818.7V475.2C818.7 473.5 817.4 472.2 815.7 472.2C814 472.2 812.7 473.5 812.7 475.2V486.9H801C799.3 486.9 798 488.2 798 489.9C798 491.6 799.3 492.9 801 492.9H812.7V504.6C812.7 506.3 814 507.6 815.7 507.6C817.4 507.6 818.7 506.3 818.7 504.6V492.9H830.4C832.1 492.9 833.4 491.6 833.4 489.9C833.4 488.2 832.1 486.9 830.4 486.9Z" fill="#2E186A"/>
<path fill-rule="evenodd" clip-rule="evenodd" d="M1136.4 486.9H1124.7V475.2C1124.7 473.5 1123.4 472.2 1121.7 472.2C1120 472.2 1118.7 473.5 1118.7 475.2V486.9H1107C1105.3 486.9 1104 488.2 1104 489.9C1104 491.6 1105.3 492.9 1107 492.9H1118.7V504.6C1118.7 506.3 1120 507.6 1121.7 507.6C1123.4 507.6 1124.7 506.3 1124.7 504.6V492.9H1136.4C1138.1 492.9 1139.4 491.6 1139.4 489.9C1139.4 488.2 1138.1 486.9 1136.4 486.9Z" fill="#2E186A"/>
<path fill-rule="evenodd" clip-rule="evenodd" d="M346.7 398.8C315.8 409.9 296 432.2 296 432.2L231 505C227.8 508.9 231.8 514.4 236.5 512.7L286.8 505C286.8 505 218.8 584.6 238.7 619.5C258.6 654.4 370.3 627.1 370.3 627.1L339.6 669.6C336.5 673.6 340.7 679 345.3 677.1L436.4 645.9C436.4 645.9 482.4 623.4 504.6 581.6L346.7 398.8Z" fill="#968BB4"/>
<path fill-rule="evenodd" clip-rule="evenodd" d="M131.7 539.4C140.647 539.4 147.9 532.147 147.9 523.2C147.9 514.253 140.647 507 131.7 507C122.753 507 115.5 514.253 115.5 523.2C115.5 532.147 122.753 539.4 131.7 539.4Z" fill="#2E186A"/>
<path fill-rule="evenodd" clip-rule="evenodd" d="M378.182 433.578C379.74 433.016 381.46 433.823 382.022 435.382C382.565 436.884 381.833 438.537 380.383 439.157L380.219 439.222L148.619 522.822C147.061 523.385 145.341 522.577 144.779 521.019C144.236 519.516 144.968 517.864 146.418 517.243L146.582 517.178L378.182 433.578Z" fill="#2E186A"/>
<path fill-rule="evenodd" clip-rule="evenodd" d="M151.2 693.8C160.147 693.8 167.4 686.547 167.4 677.6C167.4 668.653 160.147 661.4 151.2 661.4C142.253 661.4 135 668.653 135 677.6C135 686.547 142.253 693.8 151.2 693.8Z" fill="#2E186A"/>
<path fill-rule="evenodd" clip-rule="evenodd" d="M415.606 478.295C416.935 477.305 418.814 477.579 419.805 478.907C420.757 480.184 420.541 481.971 419.342 482.987L419.193 483.105L167.893 670.505C166.565 671.496 164.685 671.222 163.695 669.894C162.742 668.617 162.959 666.83 164.158 665.814L164.306 665.695L415.606 478.295Z" fill="#2E186A"/>
<path fill-rule="evenodd" clip-rule="evenodd" d="M313.9 761.9C322.847 761.9 330.1 754.647 330.1 745.7C330.1 736.753 322.847 729.5 313.9 729.5C304.953 729.5 297.7 736.753 297.7 745.7C297.7 754.647 304.953 761.9 313.9 761.9Z" fill="#2E186A"/>
<path fill-rule="evenodd" clip-rule="evenodd" d="M454.408 526.629C455.331 525.253 457.195 524.886 458.571 525.809C459.896 526.697 460.286 528.458 459.489 529.816L459.391 529.971L323.391 732.771C322.469 734.147 320.605 734.515 319.229 733.592C317.904 732.703 317.514 730.942 318.311 729.584L318.408 729.429L454.408 526.629Z" fill="#2E186A"/>
<path fill-rule="evenodd" clip-rule="evenodd" d="M964.497 50.63C965.861 49.6896 967.729 50.0329 968.669 51.397C969.575 52.7105 969.29 54.4916 968.05 55.4615L967.902 55.5697L929.902 81.7697C928.538 82.7102 926.67 82.3668 925.73 81.0028C924.824 79.6892 925.109 77.9082 926.349 76.9383L926.497 76.83L964.497 50.63Z" fill="#2E186A"/>
<path fill-rule="evenodd" clip-rule="evenodd" d="M974.199 62.1002C983.146 62.1002 990.399 54.8472 990.399 45.9002C990.399 36.9532 983.146 29.7002 974.199 29.7002C965.252 29.7002 957.999 36.9532 957.999 45.9002C957.999 54.8472 965.252 62.1002 974.199 62.1002Z" fill="#2E186A"/>
<path fill-rule="evenodd" clip-rule="evenodd" d="M927.919 75.4783C930.255 74.9337 932.229 77.2055 931.423 79.4175L931.362 79.5717L857.362 253.971C837.876 299.94 808.501 341.034 771.322 374.336L770.192 375.343L584.405 540.332C574.504 549.22 559.324 548.481 550.258 538.818L549.982 538.52L540.896 528.54L513.949 590.201C513.092 592.164 510.531 592.606 509.062 591.104L508.931 590.962L339.031 394.462C337.572 392.775 338.405 390.165 340.521 389.603L340.695 389.562L403.023 376.726L398.085 371.323C388.586 360.919 389.867 344.623 400.821 335.799L401.156 335.534L514.456 247.234C515.763 246.215 517.648 246.449 518.667 247.756C519.646 249.012 519.468 250.804 518.291 251.845L518.145 251.966L404.842 340.268C396.436 346.806 395.306 359.074 402.274 367.007L402.515 367.276L411.015 376.576C412.545 378.25 411.73 380.927 409.578 381.498L409.405 381.538L346.915 394.406L510.357 583.437L537.251 521.899C538.096 519.965 540.602 519.5 542.087 520.944L542.219 521.08L554.421 534.483C561.161 541.906 572.58 542.618 580.134 536.098L766.209 370.856C802.886 338.298 831.917 298.056 851.256 252.995L851.839 251.628L923.533 82.6609L759.882 120.822C758.326 121.184 756.77 120.265 756.324 118.752L756.279 118.581C755.916 117.025 756.836 115.47 758.349 115.023L758.519 114.978L927.919 75.4783Z" fill="#2E186A"/>
<path fill-rule="evenodd" clip-rule="evenodd" d="M699.8 272.901C698.9 272.901 698.1 272.501 697.5 271.801L673.8 243.501C672.7 242.201 672.9 240.301 674.2 239.301C675.5 238.201 677.4 238.401 678.4 239.701L700.2 265.701L719.1 249.901L687.2 211.801C686.1 210.501 686.3 208.601 687.6 207.601C688.9 206.501 690.8 206.701 691.8 208.001L725.6 248.401C726.1 249.001 726.4 249.801 726.3 250.601C726.2 251.401 725.8 252.101 725.2 252.601L701.7 272.301C701.2 272.701 700.5 272.901 699.8 272.901Z" fill="#2E186A"/>
<path fill-rule="evenodd" clip-rule="evenodd" d="M541.8 334.5C541 334.5 540.1 334.1 539.5 333.4L498.4 285.1C497.5 284.1 497.4 282.7 498.2 281.5C498.9 280.4 500.3 279.9 501.5 280.2L507.2 281.8C508.8 282.2 509.7 283.9 509.3 285.5C509.1 286.2 508.7 286.8 508.1 287.2L542.2 327.3L561.1 311.5L547.9 295.8C546.8 294.5 547 292.6 548.3 291.6C549.6 290.5 551.5 290.7 552.5 292L567.6 310C568.1 310.6 568.4 311.4 568.3 312.2C568.2 313 567.8 313.7 567.2 314.2L543.7 333.9C543.1 334.3 542.4 334.5 541.8 334.5Z" fill="#2E186A"/>
<path fill-rule="evenodd" clip-rule="evenodd" d="M525.1 390.9C525 390.9 524.9 390.9 524.8 390.9C524 390.8 523.3 390.4 522.8 389.8L485.2 344.9C484.1 343.6 484.3 341.7 485.6 340.7L509 321C509.6 320.5 510.4 320.2 511.2 320.3C512 320.4 512.7 320.8 513.2 321.4L550.8 366.3C551.9 367.6 551.7 369.5 550.4 370.5L526.9 390.2C526.4 390.6 525.8 390.9 525.1 390.9ZM491.7 343.3L525.5 383.6L544.4 367.8L510.6 327.5L491.7 343.3Z" fill="#2E186A"/>
<path fill-rule="evenodd" clip-rule="evenodd" d="M755.2 272.8C755.1 272.8 755.1 272.8 755 272.8C754.2 272.7 753.5 272.4 752.9 271.8L714.6 227.5C714.1 226.9 713.8 226.1 713.9 225.3C714 224.5 714.3 223.8 714.9 223.2L738.1 203.2C739.4 202.1 741.2 202.3 742.3 203.5L780.6 247.8C781.1 248.4 781.4 249.2 781.3 250C781.2 250.8 780.9 251.5 780.3 252.1L757.1 272.1C756.6 272.5 755.9 272.8 755.2 272.8ZM721.1 225.8L755.5 265.6L774.1 249.5L739.7 209.7L721.1 225.8Z" fill="#2E186A"/>
<path fill-rule="evenodd" clip-rule="evenodd" d="M488.7 320.001C487.6 320.001 486.6 319.401 486.1 318.501C485.3 317.101 485.8 315.201 487.3 314.401C491.9 311.801 497.3 307.801 497 303.201C496.4 296.301 483.7 289.601 480.4 288.401C478.8 287.901 478 286.201 478.4 284.701C478.9 283.101 480.6 282.201 482.2 282.701C482.4 282.801 501.7 290.301 503 302.501C503.7 308.801 499.4 314.601 490.3 319.701C489.7 319.901 489.2 320.001 488.7 320.001Z" fill="#2E186A"/>
<path fill-rule="evenodd" clip-rule="evenodd" d="M687.7 204.1C683.3 216.6 678.8 225.3 678.7 225.5C645.1 288.5 560.7 302 498.5 278.6C497 278 495.2 278.8 494.6 280.4C494 282 494.8 283.7 496.4 284.3C515.8 291.6 537.2 295.4 558.7 295.4C608.9 295.4 659.4 274.6 684 228.4C684.1 228.2 689.5 217.8 694.3 203.2L687.7 204.1Z" fill="#2E186A"/>
<path fill-rule="evenodd" clip-rule="evenodd" d="M696.2 162.601L702.2 161.601C702.2 157.901 702.1 154.301 701.6 150.701C701.5 150.201 695.7 151.701 695.7 152.001C696.1 155.401 696.2 158.801 696.2 162.301C696.2 162.401 696.2 162.501 696.2 162.601Z" fill="#2E186A"/>
<path fill-rule="evenodd" clip-rule="evenodd" d="M466.4 425.5C465.9 425.5 465.4 425.5 464.9 425.4C459.1 424.6 455 419.1 455.8 413.3C456.6 407.5 462.1 403.4 467.9 404.2C473.7 405 477.8 410.5 477 416.3C476.6 419.1 475.1 421.6 472.8 423.3C470.9 424.8 468.7 425.5 466.4 425.5ZM466.3 410.1C464 410.1 462 411.8 461.6 414.1C461.2 416.7 463 419.1 465.6 419.4C466.8 419.6 468.1 419.3 469.1 418.5C470.1 417.7 470.8 416.6 470.9 415.4C471.3 412.8 469.5 410.4 466.9 410.1C466.8 410.1 466.6 410.1 466.3 410.1Z" fill="#2E186A"/>
<path fill-rule="evenodd" clip-rule="evenodd" d="M430 382.101C429.5 382.101 429 382.101 428.5 382.001C422.7 381.201 418.6 375.701 419.4 369.901C419.8 367.101 421.3 364.601 423.6 362.901C425.9 361.201 428.7 360.501 431.5 360.901C437.3 361.701 441.4 367.201 440.6 373.001C440.2 375.801 438.7 378.301 436.4 380.001C434.5 381.301 432.3 382.101 430 382.101ZM429.9 366.701C428.9 366.701 427.9 367.001 427.1 367.601C426.1 368.401 425.4 369.501 425.3 370.701C424.9 373.301 426.7 375.701 429.3 376.001C430.5 376.201 431.8 375.901 432.8 375.101C433.8 374.301 434.5 373.201 434.6 372.001C435 369.401 433.2 367.001 430.6 366.701C430.4 366.701 430.2 366.701 429.9 366.701Z" fill="#2E186A"/>
<path fill-rule="evenodd" clip-rule="evenodd" d="M510.3 471.901C509.8 471.901 509.3 471.901 508.8 471.801C506 471.401 503.5 469.901 501.8 467.601C500.1 465.301 499.4 462.501 499.8 459.701C500.2 456.901 501.7 454.401 504 452.701C506.3 451.001 509.1 450.301 511.9 450.701C514.7 451.101 517.2 452.601 518.9 454.901C520.6 457.201 521.3 460.001 520.9 462.801C520.1 468.001 515.5 471.901 510.3 471.901ZM510.3 456.501C508 456.501 506 458.201 505.6 460.501C505.4 461.701 505.7 463.001 506.5 464.001C507.3 465.001 508.4 465.701 509.6 465.801C512.2 466.201 514.6 464.401 514.9 461.801C515.1 460.601 514.8 459.301 514 458.301C513.2 457.301 512.1 456.601 510.9 456.501C510.7 456.501 510.5 456.501 510.3 456.501Z" fill="#2E186A"/>
<path fill-rule="evenodd" clip-rule="evenodd" d="M554.7 518C554.2 518 553.7 518 553.2 517.9C547.4 517.1 543.3 511.6 544.1 505.8C544.9 500 550.4 495.9 556.2 496.7C562 497.5 566.1 503 565.3 508.8C564.9 511.6 563.4 514.1 561.1 515.8C559.2 517.3 557 518 554.7 518ZM554.7 502.6C552.4 502.6 550.4 504.3 550 506.6C549.6 509.2 551.4 511.6 554 511.9C555.2 512.1 556.5 511.8 557.5 511C558.5 510.2 559.2 509.1 559.3 507.9C559.7 505.3 557.9 502.9 555.3 502.6C555.1 502.6 554.9 502.6 554.7 502.6Z" fill="#2E186A"/>
<path fill-rule="evenodd" clip-rule="evenodd" d="M653.6 429.7C652.8 429.7 651.9 429.3 651.4 428.7L624.3 398.5C623.5 397.7 623.3 396.5 623.7 395.4C624.1 394.3 625.1 393.6 626.2 393.5L650.4 391.4C655.6 362.1 680.2 357.4 694.8 357.2C698.9 357.2 702.6 359 705 362.3C707.4 365.6 708.1 369.9 706.8 373.8C695.7 406.6 670.9 407.3 662.4 406.6L656.5 427.6C656.2 428.7 655.4 429.5 654.3 429.7C654 429.7 653.8 429.7 653.6 429.7ZM632.7 399L652.1 420.7L657.2 402.5C657.6 401 659.2 400 660.8 400.4C662 400.7 689.4 406.3 701 371.9C701.7 369.8 701.4 367.6 700.1 365.9C698.8 364.2 697 363.2 694.8 363.2C679 363.4 659.4 369 656 394.6C655.8 396 654.7 397.1 653.3 397.2L632.7 399Z" fill="#2E186A"/>
<path fill-rule="evenodd" clip-rule="evenodd" d="M750.1 358.201C749.3 358.101 748.5 358.401 747.9 358.901L724.4 378.601C723.1 379.701 723 381.601 724 382.801L738.2 399.801L742.7 395.801L730.5 381.201L749.4 365.401L761.2 379.401L765.7 375.401L752.1 359.201C751.6 358.601 750.9 358.201 750.1 358.201Z" fill="#2E186A"/>
<path fill-rule="evenodd" clip-rule="evenodd" d="M771.5 321L748 340.7C747.4 341.2 747 341.9 746.9 342.7C746.8 343.5 747.1 344.3 747.6 344.9L769.9 371.6C771.4 370.3 772.9 368.9 774.3 367.5L754.1 343.4L773 327.6L791.8 350C793.2 348.5 794.5 347 795.9 345.5L775.7 321.4C774.7 320.1 772.8 319.9 771.5 321Z" fill="#2E186A"/>
<path fill-rule="evenodd" clip-rule="evenodd" d="M636.6 451.701C635.8 451.601 635 451.901 634.4 452.401L610.9 472.101C609.6 473.201 609.5 475.101 610.5 476.301L628.2 497.401L632.7 493.401L617 474.701L635.9 458.901L651.1 477.101L655.6 473.101L638.6 452.801C638.1 452.201 637.4 451.801 636.6 451.701Z" fill="#2E186A"/>
<path fill-rule="evenodd" clip-rule="evenodd" d="M590.6 465.401C589.5 464.101 587.6 464.001 586.4 465.001L562.9 484.701L568.3 488.001L587.9 471.601L617.5 507.001L622 503.001L590.6 465.401Z" fill="#2E186A"/>
<path fill-rule="evenodd" clip-rule="evenodd" d="M743 134.2L737.4 136.5C763.2 177.3 802.1 230.7 847.8 267.7C848.7 265.8 849.6 264 850.4 262.1C806.2 226 768.4 174.2 743 134.2Z" fill="#2E186A"/>
<path fill-rule="evenodd" clip-rule="evenodd" d="M760.4 121.9L757.3 128.1C781.7 164.8 817 211.2 857.7 244.3C857.8 244.4 858 244.5 858.1 244.6L860.5 238.9C819.8 205.4 784.4 158.4 760.4 121.9Z" fill="#2E186A"/>
<path fill-rule="evenodd" clip-rule="evenodd" d="M541.6 520.601L410.3 376.101L403.5 377.501L538.9 526.601L541.6 520.601Z" fill="#2E186A"/>
<path fill-rule="evenodd" clip-rule="evenodd" d="M413.5 329.7L595.8 526.3L600.3 522.3L418.3 326L413.5 329.7Z" fill="#2E186A"/>
<path fill-rule="evenodd" clip-rule="evenodd" d="M462.8 330.3C473.3 330.3 485.6 326.3 498.4 313.8C499.6 312.6 499.6 310.7 498.4 309.6C497.2 308.4 495.3 308.4 494.2 309.6C463.4 339.7 436.9 314.9 435.8 313.9L435 313.1L430.2 316.8C432.1 318.4 445.7 330.3 462.8 330.3Z" fill="#2E186A"/>
<path fill-rule="evenodd" clip-rule="evenodd" d="M691.448 124.013C681.783 127.101 671.893 130.49 662.265 133.952L659.492 134.954C657.984 135.501 656.531 136.033 655.137 136.547L651.173 138.021L648.326 139.098C648.09 139.188 647.866 139.308 647.66 139.455C645.658 140.88 643.816 142.353 642.13 143.87C635.752 149.609 631.754 155.816 629.73 162.174C628.391 166.381 628.054 170.085 628.294 173.262L628.329 173.673C628.344 173.839 628.358 173.977 628.375 174.125L628.402 174.347C628.485 175.801 629.561 177.199 631.4 177.199L631.928 177.128C632.072 177.107 632.187 177.085 632.29 177.059L632.402 177.024L632.403 177.026L751.303 134.826L751.447 134.771C754.375 133.56 759.873 129.063 762.102 125.251C766.15 118.327 761.886 112.948 750.314 111.562L749.916 111.516C739.607 110.421 719.05 115.194 691.448 124.013ZM749.283 117.482L749.27 117.481C753.875 117.99 756.482 118.976 757.322 120.011C757.66 120.426 757.621 121.027 756.922 122.223C756.101 123.627 754.575 125.249 752.692 126.788L752.484 126.957C751.236 127.958 749.94 128.827 749.333 129.142L749.195 129.207L634.269 169.996L634.285 169.767C634.419 168.025 634.778 166.099 635.448 163.994C637.149 158.65 640.559 153.355 646.143 148.33L646.718 147.821C647.882 146.805 649.13 145.807 650.465 144.83L650.838 144.56L653.766 143.457L656.392 142.48C658.838 141.575 661.484 140.609 664.295 139.598C673.86 136.159 683.684 132.793 693.274 129.728L696.445 128.724C721.554 120.837 740.522 116.552 749.283 117.482Z" fill="#2E186A"/>
<path fill-rule="evenodd" clip-rule="evenodd" d="M609.59 6.76176C635.373 1.41763 657.149 5.59848 674.912 17.307C688.317 26.1429 698.53 38.6858 705.189 52.0711C710.919 63.6748 712.403 76.5111 710.376 89.5358C708.81 99.5943 705.141 109.314 700.832 116.139L692.93 128.61C692.04 130.008 690.186 130.42 688.788 129.53C687.39 128.641 686.978 126.787 687.868 125.389L695.482 113.367C699.476 107.209 702.975 98.0689 704.447 88.6128C706.295 76.7429 704.954 65.1464 699.813 54.7356C693.598 42.2434 684.05 30.5161 671.61 22.3166C655.178 11.4853 635.028 7.61668 610.81 12.6364L608.326 13.1574C568.377 21.6052 538.577 31.2727 514.282 46.038C481.531 65.9424 464.977 92.5954 467.889 128.158C470.506 160.603 481.983 178.047 499.387 184.323C508.246 187.517 517.8 187.529 526.757 185.609C527.869 185.371 528.882 185.119 529.784 184.866L530.589 184.632C530.979 184.514 531.249 184.425 531.389 184.374C533.581 183.591 535.768 185.489 535.351 187.737L535.316 187.899L517.743 261.216L517.917 261.348C527.749 268.596 553.551 270.3 580.15 264.675L581 264.493C613.819 257.364 640.798 241.201 653.059 218.475C653.845 217.017 655.665 216.472 657.123 217.259C658.582 218.046 659.126 219.866 658.339 221.324C645.116 245.834 616.646 262.889 582.273 270.356C552.175 276.894 522.776 274.587 512.312 264.455C511.598 263.763 511.276 262.766 511.442 261.794L511.482 261.6L528.303 191.412L528.014 191.476C518.267 193.565 507.873 193.597 497.995 190.194L497.352 189.967C477.562 182.831 464.703 163.286 461.909 128.644C458.794 90.6021 476.614 61.9091 511.166 40.9106C536.693 25.3966 567.766 15.4635 609.59 6.76176Z" fill="#2E186A"/>
<path fill-rule="evenodd" clip-rule="evenodd" d="M670.612 159.685C671.062 158.09 672.72 157.162 674.315 157.613C675.852 158.047 676.77 159.604 676.43 161.144L676.387 161.315L673.987 169.815C673.536 171.409 671.879 172.337 670.284 171.887C668.747 171.453 667.829 169.896 668.169 168.356L668.212 168.185L670.612 159.685Z" fill="#2E186A"/>
<path fill-rule="evenodd" clip-rule="evenodd" d="M488.899 315.7C495.299 310.7 498.399 303.6 499.099 297.2C501.499 274.3 491.699 233.9 456.499 215.4C414.699 193.4 380.899 208.4 364.399 247.1C347.899 285.9 378.899 299.3 412.599 251.7C412.599 251.7 427.499 228.8 441.999 245.6C456.499 262.3 420.099 302.1 438.799 318C454.399 331.2 480.499 322.2 488.899 315.7Z" fill="#968BB4"/>
<path fill-rule="evenodd" clip-rule="evenodd" d="M657.899 96.6994C657.399 97.6994 656.299 98.2994 655.199 98.2994C654.699 98.2994 654.199 98.1994 653.799 97.9994C652.299 97.1994 651.799 95.3994 652.599 93.8994C654.799 89.7994 662.799 83.8994 673.099 79.6994C670.999 74.1994 667.999 69.0994 664.299 64.4994C659.399 67.7994 654.899 71.7994 651.399 76.8994C650.799 77.6994 649.899 78.1994 648.899 78.1994C648.299 78.1994 647.699 77.9994 647.199 77.6994C645.799 76.7994 645.499 74.8994 646.399 73.4994C650.199 67.9994 654.999 63.4994 660.199 59.8994C642.899 41.6994 616.299 31.8994 606.399 30.3994C572.099 42.2994 538.499 71.3994 528.599 103.599C509.799 164.899 589.799 172.499 634.499 150.799C642.699 144.099 655.699 136.799 667.399 127.399C670.799 121.399 673.099 115.399 674.199 109.499C676.499 100.799 676.499 92.7994 674.699 85.4994C666.199 89.0994 659.399 93.7994 657.899 96.6994Z" fill="#968BB4"/>
<path fill-rule="evenodd" clip-rule="evenodd" d="M592.52 97.2461C595.237 96.1572 596.058 91.8253 594.352 87.5704C592.647 83.3156 589.062 80.7491 586.345 81.838C583.628 82.9269 582.808 87.2588 584.513 91.5136C586.219 95.7685 589.803 98.335 592.52 97.2461Z" fill="#2E186A"/>
<path fill-rule="evenodd" clip-rule="evenodd" d="M631.417 82.6611C634.134 81.5722 634.954 77.2403 633.249 72.9855C631.544 68.7306 627.959 66.1641 625.242 67.253C622.525 68.3419 621.705 72.6738 623.41 76.9287C625.115 81.1835 628.7 83.75 631.417 82.6611Z" fill="#2E186A"/>
<path fill-rule="evenodd" clip-rule="evenodd" d="M627.7 90.4993L623.8 99.0993C623.2 100.299 621.7 100.899 620.5 100.299L612.5 96.7993C610.6 95.9993 610.6 93.2993 612.6 92.4993L624.5 87.4993C626.5 86.5993 628.6 88.4993 627.7 90.4993Z" fill="#2E186A"/>
<path fill-rule="evenodd" clip-rule="evenodd" d="M620.657 94.1252C622.189 93.4943 623.943 94.2249 624.574 95.757C625.473 97.9419 628.094 101.329 630.178 102.88L630.37 103.018L630.381 102.872C630.389 102.736 630.395 102.592 630.397 102.438L630.4 102.199C630.4 100.542 631.743 99.1992 633.4 99.1992C635.056 99.1992 636.4 100.542 636.4 102.199C636.4 105.699 635.443 108.171 633.023 109.166C630.906 110.037 628.776 109.315 626.596 107.694C623.636 105.491 620.338 101.228 619.026 98.0415C618.395 96.5094 619.125 94.756 620.657 94.1252Z" fill="#2E186A"/>
<path fill-rule="evenodd" clip-rule="evenodd" d="M620.858 94.0256C622.39 93.3947 624.143 94.1253 624.774 95.6574C626.186 99.0863 627.401 104.733 627.247 108.304C627.113 111.421 626.056 113.765 623.278 114.335C620.829 114.838 618.389 113.432 615.379 110.421C614.207 109.249 614.207 107.35 615.379 106.178C616.55 105.007 618.45 105.007 619.621 106.178C620.177 106.734 620.679 107.191 621.121 107.55L621.26 107.66L621.258 107.349C621.195 104.77 620.323 100.782 619.364 98.2878L619.226 97.9419C618.595 96.4098 619.326 94.6564 620.858 94.0256Z" fill="#2E186A"/>
<path fill-rule="evenodd" clip-rule="evenodd" d="M572.399 107.099C562.399 102.099 543.299 102.799 526.799 111.999C526.399 114.599 526.199 116.999 526.199 119.399C541.499 109.299 560.499 107.899 569.599 112.499C571.099 113.199 572.899 112.699 573.599 111.199C574.499 109.599 573.899 107.799 572.399 107.099Z" fill="#2E186A"/>
<path fill-rule="evenodd" clip-rule="evenodd" d="M574.699 116.4C560.399 115.4 541.899 119.7 529.199 133.9C529.999 135.9 531.099 137.8 532.199 139.6C546.699 121.6 569.599 122.1 574.299 122.4C575.999 122.5 577.399 121.3 577.499 119.6C577.599 117.9 576.399 116.5 574.699 116.4Z" fill="#2E186A"/>
<path fill-rule="evenodd" clip-rule="evenodd" d="M600.711 29.346C566.16 42.9676 535.858 71.7146 526.216 101.809L525.932 102.716C516.756 132.479 528.97 152.943 555.898 161.035C578.788 167.913 609.902 164.647 632.631 153.388L635.73 151.852C645.949 146.77 650.915 144.095 657.545 139.897L657.93 139.653C673.388 129.823 684.61 118.872 690.759 105.77C698.431 89.4231 697.502 70.8125 686.56 49.8131C671.428 20.774 638.007 14.6423 600.711 29.346ZM681.239 52.5858C691.344 71.9792 692.175 88.6298 685.327 103.221C679.743 115.119 669.294 125.316 654.71 134.59L653.242 135.515C646.864 139.498 641.713 142.201 630.605 147.696L629.97 148.01C608.565 158.613 579.013 161.716 557.625 155.289C534.007 148.192 523.717 131.277 531.428 105.269L531.668 104.478C540.403 75.9472 569.602 48.0599 602.912 34.9279C637.668 21.2257 667.776 26.7497 681.239 52.5858Z" fill="#2E186A"/>
<path fill-rule="evenodd" clip-rule="evenodd" d="M739.159 148.509L738.561 148.738C732.766 150.896 710.415 156.587 676.827 164.607L668.253 166.647C648.04 171.44 626.567 176.425 607.827 180.718L605.83 181.175C601.715 182.065 597.812 183.86 594.473 186.419L593.996 186.803L592.861 187.684C592.725 187.792 592.607 187.887 592.478 187.995C565.789 210.459 593.396 252.637 624.794 237.606L638.752 230.876C683.171 209.492 711.778 196.069 721.819 192.152L722.468 191.903C733.021 187.878 742.161 177.521 746.752 166.243C748.82 161.166 749.652 156.502 748.908 153.164C747.882 148.559 743.98 146.72 739.159 148.509ZM743.052 154.469C743.478 156.381 742.844 159.93 741.195 163.981C737.247 173.677 729.415 182.636 720.762 186.127L720.335 186.294L719.672 186.55C708.383 190.951 674.908 206.745 622.194 232.198C597.131 244.196 575.069 210.49 596.331 192.595L596.615 192.364L597.836 191.416L598.124 191.18C600.617 189.27 603.52 187.894 606.615 187.15L619.433 184.208C636.253 180.334 654.542 176.071 671.801 171.971L683.35 169.215C714.902 161.647 735.311 156.409 740.923 154.259L741.598 153.997C742.789 153.548 742.873 153.666 743.052 154.469Z" fill="#2E186A"/>
<path fill-rule="evenodd" clip-rule="evenodd" d="M524.9 61.599C539.1 43.699 555.8 34.999 567.5 30.799C527.4 22.799 498.5 20.399 496.6 38.199C498.8 45.199 517.1 56.899 524.9 61.599Z" fill="#968BB4"/>
<path fill-rule="evenodd" clip-rule="evenodd" d="M532.199 53.399C533.899 51.699 535.499 50.199 537.199 48.699C516.499 42.899 511.999 31.499 511.799 30.799C511.299 29.199 509.599 28.399 507.999 28.999C506.399 29.499 505.599 31.199 506.099 32.799C506.299 33.399 510.999 46.299 532.199 53.399Z" fill="#2E186A"/>
<path fill-rule="evenodd" clip-rule="evenodd" d="M502.399 109.7C507.099 90.2996 514.499 75.3996 522.899 64.0996C479.599 64.6996 443.899 64.4996 448.099 90.6996C456.099 111.2 501.099 112 501.099 112L502.399 109.7Z" fill="#968BB4"/>
<path fill-rule="evenodd" clip-rule="evenodd" d="M506.1 96.8998C475.8 102.9 456.1 83.9998 455.2 83.1998C454 81.9998 452.1 81.9998 451 83.1998C449.8 84.3998 449.8 86.2998 451 87.3998C451.8 88.1998 468.2 104.1 494.2 104.1C497.3 104.1 500.6 103.9 504.1 103.3C504.8 101.2 505.4 98.9998 506.1 96.8998Z" fill="#2E186A"/>
</svg>
