<svg width="802" height="413" viewBox="0 0 802 413" fill="none" xmlns="http://www.w3.org/2000/svg">
<path fill-rule="evenodd" clip-rule="evenodd" d="M266.1 192.741C266.907 192.741 267.561 193.396 267.561 194.202C267.561 194.98 266.953 195.616 266.186 195.661L266.1 195.663H203.302C166.999 195.663 141.219 224.535 145.14 260.472L145.268 261.563L157.155 356.327C157.256 357.127 156.688 357.858 155.887 357.958C155.115 358.055 154.408 357.53 154.268 356.775L154.255 356.69L142.368 261.926C137.628 224.124 164.329 193.362 202.153 192.751L203.302 192.741H266.1Z" fill="#473131"/>
<path fill-rule="evenodd" clip-rule="evenodd" d="M309.195 162.176C309.812 162.084 310.418 162.393 310.706 162.945L312.41 166.206C312.473 166.325 312.518 166.452 312.546 166.583L312.563 166.682L314.609 181.389C314.656 181.724 314.584 182.065 314.409 182.352L314.353 182.437L306.558 193.393C306.09 194.051 305.178 194.205 304.52 193.737C303.887 193.288 303.721 192.427 304.125 191.777L304.176 191.7L311.634 181.216L309.703 167.336L308.598 165.222L308.442 165.246C289.452 168.214 277.568 173.632 272.123 181.073L271.957 181.303C267.223 187.97 267.586 196.342 272.523 206.21C272.955 207.074 272.444 208.112 271.496 208.297C239.413 214.561 213.305 241.454 197.728 280.065C183.694 314.853 180.538 354.46 189.625 379.879L191.102 384.047C194.225 392.825 196.12 397.088 198.94 400.877C202.564 405.747 207.056 408.215 213.255 408.273C214.062 408.281 214.71 408.941 214.703 409.748C214.695 410.555 214.035 411.202 213.227 411.195C206.077 411.128 200.745 408.198 196.594 402.621L196.359 402.301C193.519 398.397 191.594 394.089 188.602 385.738L186.934 381.034C186.913 380.976 186.893 380.919 186.873 380.861C177.521 354.703 180.734 314.377 195.017 278.973C210.612 240.316 236.673 213.019 268.951 205.844L269.093 205.813L268.995 205.597C264.554 195.748 264.451 187.016 269.411 179.843L269.573 179.612C275.606 171.116 288.605 165.237 309.195 162.176Z" fill="#473131"/>
<path fill-rule="evenodd" clip-rule="evenodd" d="M327.582 231.942C327.582 231.845 327.582 231.748 327.582 231.65C329.872 231.894 332.113 231.894 334.306 230.043C339.664 225.417 341.564 224.005 341.564 224.005C341.564 224.005 342.052 224.589 342.929 225.563C344 223.615 345.072 221.57 346.193 219.525C323.052 201.604 305.367 192.547 305.367 192.547L304.052 191.621L295.575 201.994C295.575 201.994 309.411 211.49 327.582 231.942Z" fill="#473131"/>
<path fill-rule="evenodd" clip-rule="evenodd" d="M439.439 400.043C439.439 400.043 402.413 300.507 407.139 269.682C409.721 252.833 405.677 233.793 400.123 219.038L389.503 219.719L376.788 249.717C377.616 249.911 378.444 250.106 379.272 250.204C379.272 250.204 378.785 253.369 377.567 260.576C376.739 265.397 378.152 265.933 379.223 269.293C380.636 271.533 381.708 274.065 380.539 278.009C380.149 279.276 379.223 291.352 377.129 307.714C381.026 315.944 384.729 324.709 388.236 334.059C410.695 393.907 408.357 400.433 408.357 400.433L439.439 400.043Z" fill="#473131"/>
<path fill-rule="evenodd" clip-rule="evenodd" d="M392.748 165.534C393.01 164.77 393.841 164.363 394.605 164.625C409.409 169.694 419.742 177.699 426.484 188.151C431.371 195.727 433.972 203.612 435.696 213.576L435.766 213.989L436.753 214.741C483.92 250.848 517.622 291.561 540.017 334.276L540.699 335.585C549.119 351.826 555.463 367.546 560.019 382.401C563.223 392.846 565.212 401.727 566.283 408.734C566.405 409.532 565.857 410.277 565.059 410.399C564.261 410.521 563.516 409.973 563.394 409.175L563.28 408.445C562.205 401.69 560.274 393.201 557.224 383.258C552.718 368.567 546.441 353.01 538.104 336.929C515.683 293.677 481.594 252.444 433.537 215.964C433.239 215.739 433.039 215.407 432.979 215.039C431.316 204.965 428.819 197.163 424.027 189.735C417.644 179.839 407.844 172.247 393.657 167.389C392.894 167.128 392.487 166.297 392.748 165.534Z" fill="#473131"/>
<path fill-rule="evenodd" clip-rule="evenodd" d="M416.028 262.525C417.071 262.563 417.892 263.414 417.905 264.446L417.903 264.572L417.893 264.894C417.884 265.19 417.876 265.538 417.868 265.936C417.649 276.905 418.2 290.183 420.166 302.883C421.056 308.636 422.2 313.892 423.618 318.541C423.932 319.57 423.352 320.659 422.322 320.973C421.293 321.286 420.204 320.706 419.89 319.677C418.413 314.837 417.231 309.403 416.314 303.479C414.346 290.76 413.77 277.542 413.959 266.493L413.988 265.106L414.009 264.4C414.047 263.358 414.899 262.537 415.931 262.524L416.028 262.525Z" fill="#473131"/>
<path fill-rule="evenodd" clip-rule="evenodd" d="M432.959 214.412C433.3 216.506 433.593 218.405 433.836 220.06C436.808 239.442 430.426 252.346 426.188 261.258C437.539 253.223 445.236 237.932 449.085 226.294C444.457 222.593 438.075 218.21 432.959 214.412Z" fill="#473131"/>
<path fill-rule="evenodd" clip-rule="evenodd" d="M272.385 205.987C264.444 207.594 251.387 211.587 241.936 218.064C248.513 221.667 281.105 241.146 307.705 252.833C307.9 252.736 309.362 250.301 310.092 249.327C295.38 237.689 279.887 221.034 272.385 205.987Z" fill="#473131"/>
<path fill-rule="evenodd" clip-rule="evenodd" d="M293.437 127.004C294.215 126.792 295.019 127.251 295.231 128.029C295.435 128.78 295.015 129.554 294.287 129.798L294.032 129.874C293.954 129.897 293.856 129.928 293.741 129.966C293.343 130.097 292.898 130.26 292.416 130.455C291.038 131.014 289.661 131.721 288.384 132.58C283.005 136.201 281.07 141.162 284.375 148.144C286.45 152.531 289.347 154.393 293.046 154.375C295.992 154.36 299.265 153.181 302.843 151.15C303.544 150.752 304.437 150.998 304.835 151.699C305.234 152.401 304.988 153.293 304.286 153.691C300.311 155.947 296.615 157.279 293.06 157.296C288.215 157.32 284.288 154.796 281.733 149.393C277.748 140.976 280.265 134.522 286.751 130.157C288.209 129.175 289.763 128.378 291.317 127.748C292.254 127.368 292.992 127.124 293.437 127.004Z" fill="#473131"/>
<path fill-rule="evenodd" clip-rule="evenodd" d="M340.421 60.6848C337.385 61.2933 334.783 62.0177 332.617 62.7483L332.324 62.8479C313.918 69.1111 302.791 80.0865 297.752 94.3964C294.059 104.884 293.948 116.012 295.964 126.397C296.217 127.702 296.488 128.889 296.76 129.943L296.88 130.399L296.962 130.7C297.015 130.89 297.063 131.059 297.106 131.206L297.184 131.471C297.239 132.421 298.187 133.076 299.106 132.77L304.112 131.101L304.18 131.153C308.352 134.414 319.56 148.523 323.17 155.389C323.57 156.15 324.538 156.403 325.259 155.935L325.689 155.664L326.133 155.392C326.29 155.296 326.458 155.195 326.635 155.089L327.002 154.871C328.457 154.011 330.168 153.05 332.124 152.015C337.723 149.053 344.151 146.088 351.307 143.32L352.225 142.967C358.05 140.748 364.109 138.759 370.375 137.055L371.358 136.791L372.387 136.565C372.621 136.514 372.867 136.461 373.124 136.407L373.654 136.295C375.47 135.913 377.395 135.532 379.344 135.176C380.895 134.893 382.398 134.638 383.828 134.418L384.807 134.272C388.334 133.758 391.186 133.505 393.103 133.574C394.003 133.607 394.718 132.826 394.607 131.933C392.281 113.335 387.873 94.3069 381.557 78.3038C376.719 66.0334 367.066 60.2535 354.421 59.5582C349.844 59.3066 345.118 59.7431 340.421 60.6848ZM354.26 62.4756C365.847 63.1127 374.459 68.269 378.838 79.3755L379.123 80.1047C384.904 94.9743 389.041 112.478 391.375 129.749L391.496 130.658L391.458 130.659C389.312 130.734 386.585 131.038 383.384 131.531C381.925 131.755 380.396 132.014 378.819 132.302C377.09 132.618 375.381 132.953 373.748 133.291L372.516 133.549C372.168 133.623 371.84 133.693 371.535 133.76L370.666 133.952L370.614 133.965C363.559 135.843 356.759 138.078 350.253 140.595C342.985 143.406 336.454 146.418 330.757 149.433L329.971 149.852C328.297 150.75 326.808 151.591 325.514 152.356L324.999 152.663L324.945 152.571C320.261 144.548 308.961 130.59 305.105 128.237L305.019 128.189C304.669 128.007 304.258 127.973 303.881 128.098L299.667 129.502C299.384 128.438 299.099 127.209 298.833 125.84C296.908 115.922 297.014 105.292 300.509 95.3664C305.202 82.0379 315.498 71.7954 332.745 65.793L333.27 65.6124C335.383 64.8863 337.962 64.1578 340.996 63.5495C345.467 62.6531 349.953 62.2388 354.26 62.4756Z" fill="#473131"/>
<path fill-rule="evenodd" clip-rule="evenodd" d="M303.879 128.05C304.288 127.914 304.737 127.964 305.105 128.189C308.923 130.518 320.036 144.222 324.803 152.279L324.998 152.614L325.514 152.307L326.125 151.949C327.479 151.161 329.025 150.301 330.757 149.384C336.454 146.37 342.985 143.357 350.253 140.546C356.45 138.149 362.912 136.008 369.607 134.187L370.614 133.916L371.307 133.76L372.51 133.5L373.046 133.386C374.881 132.999 376.827 132.612 378.799 132.251C380.157 132.002 381.48 131.775 382.754 131.573L383.386 131.474C387.599 130.825 390.989 130.504 393.318 130.606C393.99 130.635 394.555 131.119 394.687 131.779L394.755 132.137L394.891 132.893C394.922 133.074 394.955 133.265 394.988 133.467L395.1 134.151C395.285 135.316 395.468 136.602 395.641 137.992C396.664 146.212 396.956 154.743 396.072 162.742C396.04 163.03 396.006 163.317 395.971 163.603C395.873 164.404 395.144 164.974 394.343 164.876C393.542 164.778 392.972 164.05 393.07 163.249C393.103 162.974 393.135 162.698 393.166 162.421C394.022 154.68 393.737 146.365 392.74 138.352L392.638 137.551C392.483 136.369 392.321 135.273 392.159 134.275L392.031 133.512L391.885 133.515C389.918 133.559 387.286 133.838 384.157 134.312L383.831 134.362C382.394 134.583 380.885 134.84 379.326 135.125C377.624 135.437 375.941 135.768 374.333 136.102L372.868 136.411L371.688 136.669L371.334 136.748L370.375 137.006C364.109 138.71 358.05 140.699 352.225 142.919L351.307 143.271C344.151 146.039 337.723 149.004 332.124 151.967L331.355 152.377C329.842 153.188 328.487 153.95 327.296 154.649L326.635 155.04C326.458 155.146 326.29 155.247 326.133 155.343L325.368 155.817C325.322 155.846 325.285 155.869 325.26 155.886C324.538 156.354 323.57 156.101 323.17 155.34C319.596 148.543 308.575 134.647 304.307 131.206L304.113 131.053L296.064 133.747L298.771 139.22L300.848 143.396C302.404 146.519 303.953 149.607 305.458 152.587L307.543 156.7C311.943 165.347 315.273 171.651 317.095 174.704C322.917 184.42 326.347 187.315 339.51 192.499C343.932 194.21 349.569 195.176 355.351 195.176C356.158 195.176 356.813 195.83 356.813 196.637C356.813 197.444 356.158 198.098 355.351 198.098C349.222 198.098 343.229 197.071 338.446 195.221L337.233 194.738C324.703 189.698 320.721 186.31 314.953 176.811L314.586 176.203C312.743 173.115 309.462 166.908 305.121 158.384L303.846 155.877C301.865 151.967 299.792 147.834 297.712 143.657L295.926 140.063L292.703 133.537C292.327 132.77 292.687 131.852 293.469 131.538L293.551 131.508L303.879 128.05Z" fill="#473131"/>
<path fill-rule="evenodd" clip-rule="evenodd" d="M295.282 137.325C295.282 137.325 285.977 126.514 279.254 113.609C272.92 101.484 275.551 86.4366 286.026 77.6712C294.795 70.318 303.174 72.2659 303.174 72.2659C303.174 72.2659 288.023 56.8777 299.959 36.9121C304.149 29.8997 311.115 24.8353 319.154 23.0822C338.738 18.7969 348.872 33.6981 348.872 33.6981C348.872 33.6981 360.126 -9.73936 408.454 2.24003C413.326 3.45744 419.756 8.61929 423.167 12.3202C443.774 34.7694 404.995 77.1355 381.415 85.6087C355.546 94.9585 338.885 94.4715 328.702 90.0888C336.059 92.3289 336.303 133.575 295.282 137.325Z" fill="#473131"/>
<path fill-rule="evenodd" clip-rule="evenodd" d="M369.28 122.062C370.255 121.694 371.341 122.16 371.753 123.105L371.79 123.198L380.949 147.497C381.42 148.747 380.523 150.078 379.206 150.13L379.116 150.132L369.713 150.083C368.637 150.077 367.769 149.201 367.774 148.125C367.78 147.082 368.605 146.235 369.636 146.189L369.733 146.187L376.303 146.221L368.143 124.571C367.776 123.596 368.242 122.511 369.187 122.099L369.28 122.062Z" fill="#473131"/>
<path fill-rule="evenodd" clip-rule="evenodd" d="M364.949 169.221C367.505 169.221 369.577 167.15 369.577 164.595C369.577 162.04 367.505 159.969 364.949 159.969C362.392 159.969 360.32 162.04 360.32 164.595C360.32 167.15 362.392 169.221 364.949 169.221Z" fill="#473131"/>
<path fill-rule="evenodd" clip-rule="evenodd" d="M380.785 125.847C382.194 125.495 382.892 123.432 382.344 121.241C381.795 119.049 380.208 117.558 378.798 117.911C377.389 118.263 376.691 120.326 377.239 122.517C377.788 124.709 379.375 126.2 380.785 125.847Z" fill="#473131"/>
<path fill-rule="evenodd" clip-rule="evenodd" d="M355.992 131.599C357.401 131.246 358.099 129.184 357.551 126.992C357.002 124.801 355.415 123.31 354.005 123.662C352.596 124.015 351.898 126.077 352.446 128.269C352.995 130.46 354.582 131.951 355.992 131.599Z" fill="#473131"/>
<path fill-rule="evenodd" clip-rule="evenodd" d="M348.685 103.1C349.757 102.997 350.709 103.781 350.812 104.852C350.915 105.923 350.13 106.875 349.058 106.978C346.385 107.235 344.301 108.307 342.686 109.949C342.03 110.617 341.499 111.333 341.086 112.045L340.975 112.241C340.821 112.521 340.721 112.732 340.673 112.851L340.658 112.887C340.277 113.893 339.152 114.4 338.146 114.019C337.139 113.638 336.632 112.513 337.014 111.507C337.135 111.187 337.363 110.696 337.714 110.091C338.284 109.11 339.008 108.133 339.906 107.219C342.136 104.95 345.055 103.449 348.685 103.1Z" fill="#473131"/>
<path fill-rule="evenodd" clip-rule="evenodd" d="M373.066 96.3238C374.839 95.7085 376.671 95.4419 378.464 95.7471C380.677 96.1237 382.554 97.3542 383.859 99.4967C384.419 100.415 384.128 101.614 383.209 102.174C382.289 102.733 381.09 102.442 380.531 101.523C379.824 100.363 378.932 99.7785 377.81 99.5875C376.762 99.4092 375.55 99.5855 374.344 100.004C374.031 100.113 373.745 100.229 373.495 100.343L373.276 100.447L373.236 100.468C372.291 100.982 371.108 100.633 370.593 99.6879C370.079 98.7429 370.428 97.5601 371.374 97.0459L371.541 96.9579C371.903 96.7742 372.422 96.5471 373.066 96.3238Z" fill="#473131"/>
<path fill-rule="evenodd" clip-rule="evenodd" d="M660.569 274.357H471.154C468.669 274.357 466.526 276.061 465.941 278.496L439.585 389.914H370.941C370.941 389.914 367.141 409.539 389.308 409.539C400.562 409.539 631.144 409.539 631.144 409.539C633.628 409.539 635.772 407.835 636.357 405.4L665.782 280.931C666.562 277.571 664.028 274.357 660.569 274.357Z" fill="#473131"/>
<path fill-rule="evenodd" clip-rule="evenodd" d="M727.25 356.221C735.074 355.623 741.868 361.49 742.411 369.302C743.009 377.122 737.139 383.914 729.286 384.459C728.06 384.52 727.06 384.495 726.073 384.347C725.274 384.227 724.724 383.483 724.844 382.685C724.964 381.888 725.708 381.338 726.506 381.457C727.273 381.572 728.092 381.593 729.111 381.542C735.318 381.111 739.97 375.728 739.496 369.514C739.065 363.31 733.679 358.66 727.483 359.133C726.469 359.217 725.463 359.427 724.511 359.745C723.745 360 722.917 359.586 722.662 358.821C722.407 358.056 722.82 357.228 723.586 356.973C724.757 356.583 725.991 356.325 727.25 356.221Z" fill="#473131"/>
<path fill-rule="evenodd" clip-rule="evenodd" d="M674.355 336.728C674.956 336.236 675.83 336.301 676.351 336.862L676.412 336.931L694.584 359.088C695.096 359.712 695.004 360.633 694.38 361.144C693.78 361.636 692.905 361.571 692.384 361.01L692.323 360.941L674.152 338.784C673.64 338.16 673.731 337.239 674.355 336.728Z" fill="#473131"/>
<path fill-rule="evenodd" clip-rule="evenodd" d="M672.603 353.148V394.93C672.603 403.014 679.131 409.539 687.218 409.539H711.869C719.956 409.539 726.485 403.014 726.485 394.93V353.148H672.603ZM694.428 383.73C694.769 383.973 694.915 384.217 694.915 384.606C694.915 384.899 694.818 385.093 694.623 385.288C694.428 385.483 694.184 385.58 693.941 385.58C693.746 385.58 693.6 385.532 693.454 385.434L683.71 379.591C683.369 379.347 683.174 379.055 683.174 378.714C683.174 378.373 683.369 378.081 683.71 377.838L693.454 371.994C693.6 371.897 693.746 371.848 693.941 371.848C694.233 371.848 694.428 371.945 694.623 372.14C694.818 372.335 694.915 372.578 694.915 372.822C694.915 373.163 694.769 373.455 694.428 373.698L686.049 378.714L694.428 383.73ZM706.608 369.316L698.764 388.892C698.715 388.989 698.667 389.086 698.569 389.184C698.374 389.379 698.131 389.476 697.887 389.476C697.595 389.476 697.4 389.379 697.205 389.184C697.01 388.989 696.913 388.746 696.913 388.502C696.913 388.356 696.962 388.21 697.01 388.064L704.854 368.488C704.903 368.39 704.951 368.293 705.049 368.196C705.244 368.001 705.487 367.903 705.731 367.903C706.023 367.903 706.218 368.001 706.413 368.196C706.608 368.39 706.705 368.634 706.705 368.877C706.705 369.072 706.656 369.218 706.608 369.316ZM719.859 379.591L710.115 385.434C709.969 385.532 709.823 385.58 709.628 385.58C709.336 385.58 709.141 385.483 708.946 385.288C708.751 385.093 708.654 384.85 708.654 384.606C708.654 384.266 708.8 383.973 709.141 383.73L717.52 378.714L709.141 373.698C708.8 373.455 708.654 373.211 708.654 372.822C708.654 372.53 708.751 372.335 708.946 372.14C709.141 371.945 709.384 371.848 709.628 371.848C709.823 371.848 709.969 371.897 710.115 371.994L719.859 377.838C720.2 378.081 720.395 378.373 720.395 378.714C720.395 379.055 720.249 379.396 719.859 379.591Z" fill="#473131"/>
<path fill-rule="evenodd" clip-rule="evenodd" d="M186.589 356.219C187.536 356.16 188.38 356.173 189.163 356.278C189.964 356.384 190.526 357.119 190.419 357.919C190.312 358.719 189.577 359.281 188.777 359.174C188.204 359.098 187.542 359.087 186.782 359.135C180.592 359.564 175.965 364.934 176.397 371.162C176.829 377.366 182.214 382.017 188.42 381.543C189.225 381.481 189.928 382.084 189.989 382.888C190.051 383.693 189.448 384.395 188.643 384.456C180.819 385.054 174.025 379.187 173.481 371.365C172.937 363.533 178.773 356.762 186.589 356.219Z" fill="#473131"/>
<path fill-rule="evenodd" clip-rule="evenodd" d="M186.875 353.148V394.93C186.875 403.014 193.404 409.539 201.491 409.539H226.142C234.229 409.539 240.758 403.014 240.758 394.93V353.148H186.875ZM208.652 383.73C208.993 383.973 209.139 384.217 209.139 384.606C209.139 384.899 209.042 385.093 208.847 385.288C208.652 385.483 208.409 385.58 208.165 385.58C207.97 385.58 207.824 385.532 207.678 385.434L197.934 379.591C197.593 379.347 197.398 379.055 197.398 378.714C197.398 378.373 197.593 378.081 197.934 377.838L207.678 371.994C207.824 371.897 207.97 371.848 208.165 371.848C208.457 371.848 208.652 371.945 208.847 372.14C209.042 372.335 209.139 372.578 209.139 372.822C209.139 373.163 208.993 373.455 208.652 373.698L200.273 378.714L208.652 383.73ZM229.211 379.591L219.468 385.434C219.322 385.532 219.175 385.58 218.981 385.58C218.688 385.58 218.493 385.483 218.299 385.288C218.104 385.093 218.006 384.85 218.006 384.606C218.006 384.266 218.152 383.973 218.493 383.73L226.873 378.714L218.493 373.698C218.152 373.455 218.006 373.212 218.006 372.822C218.006 372.53 218.104 372.335 218.299 372.14C218.493 371.945 218.737 371.848 218.981 371.848C219.175 371.848 219.322 371.897 219.468 371.994L229.211 377.838C229.552 378.081 229.747 378.373 229.747 378.714C229.747 379.055 229.552 379.396 229.211 379.591Z" fill="#473131"/>
<path fill-rule="evenodd" clip-rule="evenodd" d="M351.822 171.297C353.945 168.405 357.743 169.172 361.615 173.173C365.385 177.074 367.808 182.251 369.148 187.874C369.335 188.659 368.85 189.447 368.064 189.634C367.279 189.821 366.491 189.336 366.304 188.551C365.075 183.393 362.866 178.673 359.514 175.204C356.726 172.323 354.957 171.966 354.179 173.025C353.232 174.315 353.357 177.251 354.76 180.065L354.847 180.237C356.881 184.171 357.451 191.918 357.153 201.503C357.128 202.31 356.454 202.943 355.647 202.918C354.84 202.893 354.207 202.219 354.232 201.413L354.26 200.391C354.466 191.93 353.911 184.947 352.315 181.707L352.251 181.58C350.305 177.824 350.099 173.646 351.822 171.297Z" fill="#473131"/>
<path fill-rule="evenodd" clip-rule="evenodd" d="M417.028 164.497C409.199 164.497 402.852 170.842 402.852 178.668C402.852 186.494 409.199 192.839 417.028 192.839C424.858 192.839 431.205 186.494 431.205 178.668C431.205 170.842 424.858 164.497 417.028 164.497ZM417.028 167.419C423.244 167.419 428.282 172.455 428.282 178.668C428.282 184.881 423.244 189.917 417.028 189.917C410.813 189.917 405.775 184.881 405.775 178.668C405.775 172.455 410.813 167.419 417.028 167.419Z" fill="#473131"/>
<path fill-rule="evenodd" clip-rule="evenodd" d="M341.147 225.158C341.762 224.714 342.61 224.816 343.103 225.38L343.368 225.713C343.545 225.936 343.755 226.196 343.997 226.489C344.69 227.33 345.495 228.268 346.401 229.28C348.991 232.172 351.868 235.065 354.952 237.761C362.358 244.237 369.732 248.529 376.583 249.638C377.147 249.729 377.607 250.142 377.758 250.694L377.79 250.819C377.839 251.028 377.896 251.335 377.95 251.742C378.236 253.899 378.19 256.872 377.602 260.709L377.549 261.049C377.245 262.955 377.707 264.292 379.245 266.648L380.013 267.808C381.13 269.513 381.681 270.557 382.093 271.943C382.686 273.937 382.664 276.047 381.941 278.419L381.932 278.463C381.757 279.439 380.306 293.544 379.612 299.609L379.549 300.158C377.707 315.99 375.497 330.767 372.646 344.762C368.887 363.213 364.328 378.582 358.813 390.057C352.165 403.889 344.263 411.753 334.853 412.457C334.048 412.517 333.346 411.914 333.286 411.109C333.226 410.304 333.83 409.603 334.635 409.543C342.663 408.943 349.792 401.922 355.991 389.179L356.178 388.791C361.57 377.573 366.066 362.415 369.782 344.179C372.538 330.652 374.693 316.371 376.496 301.096L376.765 298.769C377.439 292.775 378.903 278.595 379.133 277.611L379.14 277.584C380.127 274.346 379.628 272.542 377.442 269.219L376.93 268.447C374.926 265.418 374.206 263.447 374.662 260.589C375.223 257.074 375.301 254.383 375.094 252.466L375.078 252.333L374.808 252.278C367.82 250.796 360.583 246.504 353.366 240.254L353.027 239.96C349.847 237.179 346.888 234.204 344.223 231.228C343.459 230.376 342.765 229.572 342.144 228.832L341.762 228.372L341.1 228.902C339.824 229.929 338.196 231.283 336.18 233.004C334.895 234.102 333.492 234.685 331.906 234.864L331.666 234.889C330.678 234.981 329.837 234.928 328.15 234.734L327.943 234.71C323.96 234.242 322.318 234.559 320.17 236.967L320.058 237.093C318.678 238.667 311.624 249.964 300.856 267.699L297.446 273.326L296.052 275.631C292.781 281.045 289.384 286.688 285.961 292.393L277.588 306.378L275.443 309.971C275.03 310.665 274.133 310.892 273.439 310.479C272.772 310.081 272.536 309.235 272.888 308.554L275.347 304.429L279.78 297.019C284.191 289.654 288.617 282.289 292.847 275.285L298.058 266.676C309.24 248.249 316.293 236.955 317.858 235.169C319.509 233.28 321.293 232.209 323.298 231.795C324.627 231.521 325.682 231.525 327.608 231.731L328.685 231.853C331.678 232.181 332.852 232.004 334.282 230.783L335.505 229.743C336.991 228.486 338.239 227.454 339.268 226.625L340.032 226.015C340.218 225.868 340.388 225.735 340.543 225.616L341.047 225.231C341.089 225.2 341.122 225.176 341.147 225.158Z" fill="#473131"/>
<path fill-rule="evenodd" clip-rule="evenodd" d="M377.615 260.625C378.833 253.369 379.32 250.252 379.32 250.252C360.71 247.379 341.564 224.005 341.564 224.005C341.564 224.005 339.664 225.417 334.305 230.043C332.161 231.894 329.92 231.894 327.582 231.65C325.925 251.957 362.415 270.023 379.661 270.9C378.59 266.03 376.69 266.127 377.615 260.625Z" fill="#473131"/>
<path fill-rule="evenodd" clip-rule="evenodd" d="M271.71 285.494C277.167 284.804 281.974 286.07 285.806 289.652C286.396 290.203 286.427 291.128 285.875 291.717C285.324 292.306 284.399 292.337 283.81 291.786C280.66 288.842 276.723 287.805 272.077 288.393C267.861 288.927 263.278 290.768 258.632 293.511C256.651 294.681 254.793 295.936 253.116 297.189L252.689 297.512C252.412 297.722 252.152 297.924 251.91 298.116L251.56 298.396C251.436 298.497 251.324 298.588 251.226 298.67L251.027 298.838C250.415 299.365 249.492 299.297 248.965 298.686C248.438 298.075 248.506 297.152 249.117 296.625L249.319 296.455C249.405 296.384 249.508 296.299 249.628 296.201L250.093 295.828C250.478 295.523 250.903 295.195 251.365 294.85C253.123 293.536 255.067 292.222 257.145 290.995C262.105 288.068 267.036 286.086 271.71 285.494Z" fill="#473131"/>
<path fill-rule="evenodd" clip-rule="evenodd" d="M393.714 171.807L393.585 171.822C391.626 172.104 386.231 175.171 378.631 180.069L377.075 181.077C370.165 185.579 363.369 190.358 361.114 192.321L360.991 192.433C358.97 194.334 354.412 201.823 347.738 213.785L347.318 214.538C346.927 215.241 346.531 215.956 346.129 216.681L344.947 218.825C342.768 222.788 340.526 226.928 338.294 231.094L336.356 234.724C335.647 236.055 334.98 237.312 334.362 238.481L333.059 240.955C332.696 241.648 332.943 242.503 333.62 242.896L370.451 264.274L370.53 264.317C371.278 264.693 372.2 264.362 372.531 263.58L390.572 220.929L390.82 220.925C398.443 220.75 403.54 218.733 405.841 215.48C408.055 212.351 406.991 208.345 403.697 208.085L403.61 208.079C403.181 208.051 402.611 208.05 401.908 208.076L401.46 208.095L401.515 208.077C405.94 206.608 408.604 204.372 409.448 201.647C410.401 198.57 408.593 195.349 405.866 195.179L405.802 195.175C405.151 195.138 403.967 195.272 402.282 195.559L402.017 195.605L402.114 195.553C404.544 194.221 406.142 192.219 406.657 189.962C407.312 187.096 406.014 184.379 403.369 183.683L403.289 183.664C401.767 183.332 397.768 184.117 392.263 185.658L391.675 185.824L391.942 185.669C393.66 184.671 395.126 183.776 396.299 183.005C399.504 180.895 400.605 178.032 399.482 175.399C398.523 173.148 396.066 171.606 393.714 171.807ZM396.793 176.544C397.323 177.787 396.785 179.187 394.691 180.564L394.305 180.816C392.916 181.712 391.124 182.782 389.005 183.987L387.946 184.586C387.69 184.729 387.431 184.874 387.169 185.02C385.117 186.163 382.932 187.344 380.733 188.508L379.269 189.28L376.963 190.479L376.608 190.662C374.991 191.489 376.035 193.937 377.752 193.343L378.836 192.97C390.479 188.987 400.981 186.082 402.63 186.51C403.608 186.767 404.136 187.873 403.807 189.312C403.394 191.121 401.784 192.782 399.141 193.673L398.902 193.751L379.074 200.812C377.352 201.425 378.094 203.973 379.834 203.625L379.99 203.588L382.746 202.907L383.432 202.739C386.097 202.089 388.823 201.439 391.449 200.833L392.601 200.568L394.238 200.197C400.382 198.819 404.667 198.016 405.661 198.094C406.377 198.139 407.085 199.398 406.656 200.783C405.963 203.018 402.9 205.07 397.102 206.204L395.157 206.575C384.893 208.562 381.231 209.866 380.664 211.14C380.21 212.162 381.025 213.283 382.121 213.189L384.76 212.835C386.719 212.576 388.755 212.317 390.76 212.076L391.79 211.953L394.092 211.689C398.835 211.162 402.217 210.899 403.467 210.998C404.169 211.053 404.503 212.312 403.454 213.793C401.672 216.313 397.046 218.035 389.604 218.015L389.506 218.018C388.957 218.053 388.47 218.395 388.254 218.907L370.484 260.914L336.299 241.072L338.702 236.536C339.012 235.953 339.331 235.355 339.657 234.744L340.87 232.474C343.503 227.56 346.149 222.685 348.688 218.095L349.872 215.959L351.062 213.831C357.162 202.954 361.535 195.83 363.034 194.525C368.357 189.891 391.391 174.939 393.963 174.718C395.034 174.627 396.32 175.435 396.793 176.544Z" fill="#473131"/>
<path fill-rule="evenodd" clip-rule="evenodd" d="M312.32 356.221C320.143 355.623 326.938 361.49 327.481 369.302C328.078 377.122 322.209 383.914 314.371 384.458C312.503 384.571 310.731 384.379 309.143 383.85C308.378 383.595 307.964 382.767 308.219 382.002C308.474 381.236 309.302 380.823 310.068 381.078C311.277 381.481 312.679 381.633 314.181 381.542C320.388 381.111 325.04 375.728 324.565 369.514C324.134 363.31 318.749 358.66 312.535 359.134C311.922 359.178 311.307 359.266 310.691 359.398C309.902 359.567 309.125 359.064 308.956 358.276C308.787 357.487 309.289 356.71 310.079 356.541C310.827 356.381 311.577 356.274 312.32 356.221Z" fill="#473131"/>
<path fill-rule="evenodd" clip-rule="evenodd" d="M257.721 353.148V394.93C257.721 403.014 264.249 409.539 272.336 409.539H296.987C305.075 409.539 311.603 403.014 311.603 394.93V353.148H257.721ZM279.498 383.73C279.839 383.973 279.985 384.217 279.985 384.606C279.985 384.899 279.887 385.093 279.692 385.288C279.498 385.483 279.254 385.58 279.01 385.58C278.816 385.58 278.669 385.532 278.523 385.434L268.78 379.591C268.439 379.347 268.244 379.055 268.244 378.714C268.244 378.373 268.439 378.081 268.78 377.838L278.523 371.994C278.669 371.897 278.816 371.848 279.01 371.848C279.303 371.848 279.498 371.945 279.692 372.14C279.887 372.335 279.985 372.578 279.985 372.822C279.985 373.163 279.839 373.455 279.498 373.698L271.118 378.714L279.498 383.73ZM291.677 369.316L283.834 388.892C283.785 388.989 283.736 389.087 283.639 389.184C283.444 389.379 283.2 389.476 282.957 389.476C282.664 389.476 282.47 389.379 282.275 389.184C282.08 388.989 281.982 388.746 281.982 388.502C281.982 388.356 282.031 388.21 282.08 388.064L289.923 368.488C289.972 368.391 290.021 368.293 290.118 368.196C290.313 368.001 290.557 367.904 290.8 367.904C291.093 367.904 291.287 368.001 291.482 368.196C291.677 368.391 291.775 368.634 291.775 368.877C291.775 369.072 291.726 369.218 291.677 369.316ZM304.929 379.591L295.185 385.434C295.039 385.532 294.893 385.58 294.698 385.58C294.405 385.58 294.211 385.483 294.016 385.288C293.821 385.093 293.723 384.85 293.723 384.606C293.723 384.266 293.87 383.973 294.211 383.73L302.59 378.714L294.211 373.698C293.87 373.455 293.723 373.212 293.723 372.822C293.723 372.53 293.821 372.335 294.016 372.14C294.211 371.945 294.454 371.848 294.698 371.848C294.893 371.848 295.039 371.897 295.185 371.994L304.929 377.838C305.27 378.081 305.464 378.373 305.464 378.714C305.513 379.055 305.318 379.396 304.929 379.591Z" fill="#473131"/>
<path fill-rule="evenodd" clip-rule="evenodd" d="M799.61 409.296C800.417 409.296 801.072 409.95 801.072 410.757C801.072 411.535 800.463 412.17 799.696 412.215L799.61 412.217H2.38976C1.58258 412.217 0.928223 411.563 0.928223 410.757C0.928223 409.979 1.53667 409.343 2.30388 409.298L2.38976 409.296H799.61Z" fill="#473131"/>
<path fill-rule="evenodd" clip-rule="evenodd" d="M416.833 203.309L414.154 161.624L360.369 165.082L362.22 193.277C366.995 189.187 390.477 173.506 393.887 173.214C397.297 172.922 401.39 177.889 395.544 181.736C389.697 185.583 377.323 191.914 377.323 191.914C387.603 188.31 400.61 184.414 403.046 185.047C406.749 186.021 406.505 192.839 399.441 195.079L379.613 202.14C379.613 202.14 402.705 196.345 405.823 196.588C408.941 196.832 411.669 204.916 397.151 207.643C382.633 210.418 382.049 211.684 382.049 211.684C382.049 211.684 399.928 209.152 403.631 209.493C407.333 209.834 407.431 219.476 389.649 219.427L389.551 219.671L403.241 218.794C411.231 218.307 417.369 211.344 416.833 203.309Z" fill="#473131"/>
</svg>
