<svg width="1664" height="505" viewBox="0 0 1664 505" fill="none" xmlns="http://www.w3.org/2000/svg">
<path fill-rule="evenodd" clip-rule="evenodd" d="M525.132 468.5C526.733 468.076 528.376 469.029 528.801 470.631C531.657 481.396 533.418 490.472 534.091 498.551C534.228 500.202 533.001 501.652 531.35 501.79C529.699 501.927 528.249 500.7 528.111 499.049C527.472 491.37 525.774 482.621 523.001 472.169C522.577 470.568 523.53 468.925 525.132 468.5Z" fill="#242424"/>
<path fill-rule="evenodd" clip-rule="evenodd" d="M348.158 205.303C349.813 205.224 351.218 206.502 351.297 208.157C351.376 209.812 350.099 211.217 348.444 211.296C328.128 212.267 312.274 213.886 292.8 216.475L289.604 216.905L289.267 217.076C264.384 230.003 242.255 272.768 231.21 324.68L230.876 326.272C220.176 377.801 223.515 423.952 240.174 438.44C246.727 444.163 257.638 450.199 271.949 456.128C273.157 456.629 273.901 457.854 273.79 459.156L273.546 462.073C272.403 476.069 271.801 488.629 271.801 499.9C271.801 501.557 270.458 502.9 268.801 502.9C267.144 502.9 265.801 501.557 265.801 499.9C265.801 488.846 266.369 476.612 267.448 463.049L267.628 460.822L267.252 460.663C253.822 454.938 243.385 449.083 236.625 443.303L236.232 442.964C217.357 426.548 213.887 378.578 225.001 325.052C236.382 270.243 259.807 224.924 287.372 211.31C287.663 211.166 287.975 211.071 288.297 211.027L291.915 210.54C311.585 207.923 327.606 206.286 348.158 205.303Z" fill="#242424"/>
<path fill-rule="evenodd" clip-rule="evenodd" d="M418.017 209.595C418.186 207.946 419.659 206.747 421.307 206.916L423.826 207.182C434.613 208.348 443.85 209.754 456.613 212.049L471.159 214.717L471.252 214.722C481.743 215.508 494.268 232.479 503.615 256.386L503.9 257.12C504.497 258.666 503.727 260.403 502.181 260.999C500.636 261.596 498.899 260.827 498.302 259.281L497.781 257.948C489.211 236.305 477.798 221.008 470.671 220.698C470.534 220.692 470.398 220.677 470.263 220.652L459.574 218.685C443.746 215.782 433.548 214.203 420.695 212.885C419.047 212.716 417.848 211.243 418.017 209.595Z" fill="#242424"/>
<path fill-rule="evenodd" clip-rule="evenodd" d="M350.342 183.107C350.614 181.473 352.16 180.369 353.794 180.641C355.37 180.904 356.453 182.35 356.284 183.919L356.26 184.093L351.257 214.11C351.18 214.556 351.805 216.177 353.229 218.334C354.893 220.853 357.421 223.825 360.506 226.862C361.686 228.025 361.701 229.924 360.539 231.105C359.376 232.286 357.477 232.3 356.296 231.138L355.561 230.406C348.799 223.599 344.781 217.408 345.309 213.324L345.342 213.107L350.342 183.107Z" fill="#242424"/>
<path fill-rule="evenodd" clip-rule="evenodd" d="M418.91 193.006C420.504 192.904 421.887 194.067 422.079 195.633L422.095 195.809L423.795 222.409C423.808 222.607 423.801 222.807 423.774 223.004C421.004 243.379 411.694 253.353 397.647 253.1C395.991 253.07 394.672 251.703 394.702 250.046C394.732 248.389 396.099 247.071 397.755 247.101C408.225 247.289 415.155 240.094 417.679 223.24L417.788 222.486L416.107 196.191C416.005 194.597 417.168 193.214 418.734 193.023L418.91 193.006Z" fill="#242424"/>
<path fill-rule="evenodd" clip-rule="evenodd" d="M394.962 45.4807C391.292 45.6235 388.295 45.9687 385.416 46.4397C360.68 50.6741 345.291 63.3463 337.711 81.7147C333.05 93.0071 331.888 104.799 332.704 115.147L332.784 116.088L332.869 116.938C332.887 117.109 332.905 117.269 332.923 117.417L333.005 118.05L333.019 118.231L333.082 118.632L333.78 122.701C334.014 124.042 334.266 125.469 334.534 126.968L335.229 130.82C336.048 135.307 336.89 139.752 337.738 144.01L338.101 145.823C338.813 149.35 339.505 152.627 340.173 155.608L340.632 157.625C342.006 163.582 343.231 168.05 344.306 170.837L344.413 171.11C349.499 183.883 353.491 188.507 368.174 197.183C376.604 202.197 388.374 204.862 399.48 204.106C412.171 203.241 422.977 198.105 429.645 188.74C435.59 180.389 439.489 168.841 441.81 155.439C442.626 150.728 443.189 146.091 443.543 141.703C443.634 140.573 443.708 139.509 443.765 138.518L443.826 137.365C443.849 136.89 443.866 136.47 443.879 136.118L443.9 135.354C444.602 114.784 443.167 93.3618 439.199 74.6948L438.93 73.4544C435.604 58.365 425.474 49.8622 411.06 46.7432C405.901 45.6266 400.466 45.2664 394.962 45.4807ZM409.791 52.6074C421.924 55.2329 430.092 61.9942 432.964 74.277L433.071 74.7451C437.035 92.7579 438.539 113.659 437.945 133.853L437.882 135.923C437.871 136.243 437.855 136.632 437.833 137.076C437.773 138.316 437.685 139.705 437.563 141.22C437.222 145.436 436.681 149.894 435.898 154.415C433.716 167.011 430.079 177.785 424.757 185.26C419.227 193.027 410.092 197.369 399.072 198.12C389.159 198.795 378.602 196.404 371.234 192.022L370.272 191.45C357.529 183.835 354.468 180.144 349.988 168.891C348.967 166.326 347.674 161.565 346.206 155.088L345.666 152.664C345.121 150.174 344.558 147.489 343.982 144.636C342.89 139.224 341.799 133.455 340.753 127.654L339.93 123.032L338.995 117.616L338.985 117.491L338.899 116.846L338.833 116.276C338.8 115.972 338.768 115.641 338.736 115.283C337.894 105.653 338.921 94.5099 343.257 84.0037C350.063 67.5135 363.759 56.2342 386.407 52.3573L387.468 52.1911C389.788 51.8449 392.257 51.5905 395.195 51.4761C400.229 51.2802 405.172 51.6078 409.791 52.6074Z" fill="#242424"/>
<path fill-rule="evenodd" clip-rule="evenodd" d="M415.999 119.361C417.564 119.041 419.094 120.003 419.499 121.528L419.539 121.699L425.039 148.599C425.408 150.401 424.085 152.091 422.277 152.195L422.1 152.2H412C410.343 152.2 409 150.857 409 149.2C409 147.603 410.249 146.297 411.824 146.205L412 146.2H418.424L413.661 122.901C413.341 121.336 414.303 119.806 415.827 119.402L415.999 119.361Z" fill="#242424"/>
<path fill-rule="evenodd" clip-rule="evenodd" d="M431.947 120.07C431.972 117.53 430.649 115.457 428.992 115.441C427.336 115.424 425.972 117.471 425.947 120.011C425.923 122.552 427.245 124.624 428.902 124.641C430.559 124.657 431.923 122.611 431.947 120.07Z" fill="#242424"/>
<path fill-rule="evenodd" clip-rule="evenodd" d="M403.518 120.812C404.017 118.321 403.105 116.038 401.481 115.712C399.856 115.386 398.134 117.141 397.635 119.632C397.135 122.123 398.047 124.407 399.672 124.732C401.297 125.058 403.018 123.303 403.518 120.812Z" fill="#242424"/>
<path fill-rule="evenodd" clip-rule="evenodd" d="M385.897 97.3208C389.191 94.786 393.278 93.4596 398.051 94.0212C399.696 94.2148 400.873 95.7056 400.68 97.3511C400.486 98.9966 398.995 100.174 397.35 99.9801C394.236 99.6137 391.676 100.445 389.556 102.076C388.928 102.559 388.391 103.076 387.951 103.586L387.748 103.83C387.717 103.868 387.688 103.905 387.66 103.94L387.52 104.129C386.621 105.52 384.764 105.92 383.372 105.02C381.981 104.121 381.581 102.264 382.481 100.872L382.643 100.633C382.828 100.371 383.084 100.042 383.41 99.6637C384.105 98.8602 384.931 98.0638 385.897 97.3208Z" fill="#242424"/>
<path fill-rule="evenodd" clip-rule="evenodd" d="M425.161 91.1007C427.535 90.4031 429.95 90.0367 432.296 90.1929C435.797 90.426 438.788 91.826 440.829 94.6376C441.802 95.9785 441.504 97.8545 440.163 98.8277C438.874 99.7635 437.09 99.5239 436.089 98.3121L435.973 98.162C435.076 96.9267 433.743 96.3026 431.897 96.1796C430.355 96.077 428.605 96.3424 426.853 96.8572C426.455 96.9742 426.081 97.0973 425.737 97.2211L425.288 97.3897L424.934 97.5346C423.424 98.2157 421.647 97.5435 420.966 96.0331C420.285 94.5227 420.957 92.7462 422.468 92.065L422.783 91.9282C423.357 91.6883 424.169 91.3925 425.161 91.1007Z" fill="#242424"/>
<path fill-rule="evenodd" clip-rule="evenodd" d="M382.3 74.2997C382.3 74.2997 404.6 152.5 352.6 160.5C352.6 160.5 322.3 165.9 315.4 155.2C315.4 155.2 337.3 143.5 334.6 131C334.6 131 309.9 158.1 288.4 138.6C288.4 138.6 324.2 132.6 321.1 100.4C318.8 77.1997 374.3 55.4997 382.3 74.2997Z" fill="#242424"/>
<path fill-rule="evenodd" clip-rule="evenodd" d="M449.8 117.7C454.8 85.1003 447.5 65.3003 435 70.5003C435.4 71.7003 435.7 72.8003 436 74.1003C440.6 95.0003 441.5 117.7 440.9 135.3C440.9 135.3 440.8 139.1 440.3 144.7C444.1 147.3 449.3 148.6 456.3 146.8C456.3 146.8 447.3 133.6 449.8 117.7Z" fill="#242424"/>
<path fill-rule="evenodd" clip-rule="evenodd" d="M393.925 153.34C395.395 152.714 397.086 153.352 397.787 154.765L397.904 155.011L397.931 155.063C398.034 155.261 398.168 155.49 398.334 155.744C398.827 156.5 399.465 157.265 400.258 157.982C403.203 160.645 407.373 161.939 413.244 161.035C414.882 160.783 416.414 161.907 416.665 163.544C416.917 165.182 415.794 166.714 414.157 166.965C406.48 168.147 400.503 166.293 396.233 162.432C395.039 161.352 394.072 160.193 393.309 159.023C392.831 158.291 392.515 157.687 392.34 157.276C391.691 155.751 392.401 153.989 393.925 153.34Z" fill="#242424"/>
<path fill-rule="evenodd" clip-rule="evenodd" d="M287.3 85.3002L319 80.5002C322.3 59.2002 334.7 28.6002 378.4 23.6002C446.7 15.7002 448.8 82.1002 448.8 82.1002L290.5 105.7C284.9 106.6 279.6 102.7 278.7 97.0002C277.7 91.4002 281.6 86.2002 287.3 85.3002Z" fill="#242424"/>
<path fill-rule="evenodd" clip-rule="evenodd" d="M517.522 222.256C515.826 257.135 487.031 284.9 451.701 284.9C416.402 284.9 387.577 257.165 385.88 222.259L385.869 221.999L378.901 222C366.681 222 356.8 231.759 356.604 243.93L356.601 244.3V407.7C356.601 409.357 355.257 410.7 353.601 410.7C352.003 410.7 350.697 409.451 350.606 407.876L350.601 407.7V244.3C350.601 228.8 362.992 216.253 378.432 216.004L378.901 216H388.801C390.457 216 391.801 217.343 391.801 219C391.801 252.108 418.622 278.9 451.701 278.9C484.808 278.9 511.601 252.078 511.601 219C511.601 217.402 512.85 216.096 514.424 216.005L514.601 216H524.501C540.001 216 552.547 228.392 552.797 243.831L552.801 244.3V275.669L553.059 275.679C587.606 277.359 615.128 305.61 615.692 340.41L615.701 341.5C615.701 376.83 587.935 405.625 553.057 407.321L552.801 407.331V427.1C552.801 429.428 552.471 431.835 551.867 434.235L551.695 434.889C551.259 436.488 549.61 437.43 548.011 436.994C546.413 436.558 545.47 434.909 545.906 433.311C546.434 431.377 546.741 429.458 546.793 427.642L546.801 427.1V404.4C546.801 402.743 548.144 401.4 549.801 401.4C582.879 401.4 609.701 374.608 609.701 341.5C609.701 308.422 582.908 281.6 549.801 281.6C548.203 281.6 546.897 280.351 546.806 278.776L546.801 278.6V244.3C546.801 232.08 537.042 222.199 524.87 222.003L524.501 222L517.532 221.999L517.522 222.256Z" fill="#242424"/>
<path fill-rule="evenodd" clip-rule="evenodd" d="M477.501 449.4C479.158 449.4 480.501 450.744 480.501 452.4C480.501 453.998 479.252 455.304 477.677 455.395L477.501 455.4H411.301C409.644 455.4 408.301 454.057 408.301 452.4C408.301 450.803 409.55 449.497 411.125 449.405L411.301 449.4H477.501Z" fill="#242424"/>
<path fill-rule="evenodd" clip-rule="evenodd" d="M491.853 400.305C493.761 398.351 496.091 398.826 498.366 400.447C499.63 401.347 501.062 402.733 502.758 404.64L503.473 405.455C505.508 407.799 507.243 410.001 511.162 415.19L515.901 421.485C523.527 431.567 527.77 436.444 529.783 437.23L529.87 437.262C531.438 437.797 532.275 439.503 531.739 441.071C531.203 442.638 529.498 443.475 527.93 442.939L527.657 442.84C524.047 441.454 520.03 436.892 511.42 425.508L504.987 416.974C502.117 413.198 500.618 411.32 498.947 409.394L498.568 408.959C497.47 407.706 496.525 406.728 495.755 406.04L495.482 405.803L495.478 405.818C495.087 407.065 494.794 409.026 494.71 411.416L494.699 411.777C494.657 413.434 493.28 414.742 491.623 414.699C489.967 414.657 488.659 413.28 488.701 411.623C488.836 406.36 489.7 402.458 491.853 400.305Z" fill="#242424"/>
<path fill-rule="evenodd" clip-rule="evenodd" d="M480.142 405.927C483.434 403.093 487.301 404.413 491.451 408.21C494.05 410.588 496.867 413.971 500.548 418.948L501.825 420.691C502.184 421.185 502.557 421.701 502.957 422.257L507.057 427.956C512.975 436.133 514.703 438.166 516.499 439.202C517.934 440.03 518.426 441.865 517.598 443.3C516.77 444.735 514.936 445.227 513.501 444.399L512.999 444.1C510.252 442.402 508.448 440.178 500.753 429.475L497.515 424.969C497.145 424.456 496.795 423.975 496.453 423.508L495.747 422.547C492.272 417.848 489.647 414.692 487.4 412.636C486.157 411.499 485.124 410.802 484.396 410.553L484.132 410.465C484.077 410.451 484.069 410.464 484.032 410.495C482.823 411.514 482.042 412.917 481.618 414.696C481.235 416.307 479.617 417.303 478.005 416.919C476.393 416.535 475.398 414.918 475.781 413.306C476.485 410.353 477.896 407.819 480.142 405.927Z" fill="#242424"/>
<path fill-rule="evenodd" clip-rule="evenodd" d="M472.376 411.719C474.337 410.218 476.669 410.225 478.836 411.449C480.323 412.29 481.767 413.69 483.376 415.702L483.82 416.267C484.866 417.622 485.989 419.235 487.384 421.355L492.257 428.881L492.906 429.863C497.827 437.252 501.492 441.51 505.05 443.474C506.501 444.275 507.027 446.1 506.227 447.55C505.426 449.001 503.601 449.528 502.15 448.727C497.384 446.096 493.203 441.193 487.594 432.71L486.187 430.552C484.914 428.584 483.108 425.777 482.667 425.102L482.133 424.29C480.749 422.199 479.67 420.675 478.69 419.449C477.592 418.076 476.681 417.174 476.014 416.751L475.847 416.653L475.797 416.71C474.849 417.863 474.632 421.005 475.395 425.814L475.459 426.207C475.732 427.842 474.628 429.387 472.993 429.66C471.359 429.932 469.813 428.828 469.541 427.194C468.282 419.639 468.742 414.545 472.376 411.719Z" fill="#242424"/>
<path fill-rule="evenodd" clip-rule="evenodd" d="M517.504 407.248C517.213 401.353 521.792 398.643 527.326 399.58C532.04 400.377 536.402 403.47 536.879 407.443C537.055 408.911 537.323 409.48 538.126 410.201L538.273 410.33C538.236 410.298 542.517 413.449 544.637 415.319L544.781 415.447C547.741 418.05 549.294 422.895 550.065 429.531C550.526 433.494 550.646 437.626 550.563 441.371L550.534 442.421L550.523 442.696L550.556 442.788C550.605 442.937 550.655 443.097 550.704 443.269L550.776 443.534C551.527 446.385 551.474 449.806 550.133 453.589C548.335 458.658 544.419 463.708 538.019 468.586C536.898 469.441 535.752 470.215 534.583 470.909C525.078 476.561 514.98 476.724 505.616 473.644C503.645 472.995 502.119 472.337 501.122 471.824L500.952 471.735L500.305 471.48L499.674 471.219C498.536 470.742 497.273 470.173 495.916 469.51C492.042 467.62 488.167 465.357 484.535 462.713C473.899 454.971 467.4 445.56 467.4 434.4C467.4 429.94 467.681 427.328 468.506 425.735C469.353 424.1 471.006 423.153 472.894 423.654C474.003 423.947 474.841 424.623 475.731 425.655C477.069 427.208 483.448 437.688 484.954 439.89C488.816 445.536 492.471 449.497 496.227 451.718C497.653 452.561 498.126 454.401 497.283 455.827C496.44 457.253 494.6 457.726 493.174 456.883C488.647 454.206 484.578 449.867 480.406 443.864L480.002 443.278C478.928 441.709 476.228 437.347 474.074 433.942L473.414 432.905L473.412 433.054C473.407 433.37 473.403 433.702 473.401 434.049L473.4 434.4C473.4 443.278 478.827 451.136 488.066 457.862C491.39 460.282 494.969 462.372 498.547 464.118C499.62 464.641 500.625 465.1 501.543 465.495L501.994 465.686C502.263 465.799 502.508 465.899 502.727 465.987L503.236 466.185C503.331 466.22 503.424 466.259 503.514 466.303L503.876 466.491C504.045 466.575 504.283 466.689 504.586 466.825C505.427 467.204 506.402 467.586 507.491 467.944C515.351 470.53 523.709 470.394 531.517 465.752C532.488 465.175 533.443 464.53 534.382 463.814C539.898 459.61 543.092 455.491 544.478 451.584C545.396 448.993 545.43 446.795 544.974 445.062L544.911 444.837C544.853 444.64 544.811 444.529 544.802 444.511C544.58 444.053 544.477 443.547 544.505 443.039L544.543 442.044C544.657 438.347 544.562 434.153 544.105 430.224C543.497 424.996 542.298 421.254 540.798 419.934L540.499 419.672C538.544 417.984 534.566 415.054 534.371 414.887C532.305 413.118 531.287 411.198 530.922 408.158C530.831 407.399 528.717 405.9 526.325 405.496C524.133 405.125 523.427 405.543 523.498 406.973C523.641 410.333 525.334 415.736 528.009 422.154L528.452 423.204C530.686 428.342 531.268 434.162 530.142 439.789C529.817 441.413 528.237 442.467 526.612 442.142C524.987 441.817 523.934 440.237 524.259 438.612C525.115 434.331 524.72 429.925 523.123 426.009L522.429 424.361C519.508 417.344 517.685 411.491 517.504 407.248Z" fill="#242424"/>
<path fill-rule="evenodd" clip-rule="evenodd" d="M389.535 400.447C391.81 398.826 394.14 398.351 396.022 400.279C398.282 402.539 399.06 406.371 399.2 412.127C399.24 413.784 397.93 415.159 396.274 415.2C394.618 415.24 393.242 413.93 393.202 412.274C393.135 409.525 392.866 407.368 392.47 405.991L392.414 405.807L392.335 405.875C391.594 406.514 390.677 407.445 389.604 408.652L388.704 409.683C386.84 411.85 385.095 414.079 381.274 419.142L376.481 425.509C367.653 437.181 363.654 441.681 359.971 442.939C358.403 443.475 356.698 442.639 356.162 441.071C355.645 439.559 356.405 437.919 357.865 437.324L358.031 437.262C360.007 436.586 364.262 431.715 372 421.486L376.227 415.869C380.51 410.189 382.307 407.899 384.428 405.455L384.821 405.004C386.659 402.908 388.192 401.403 389.535 400.447Z" fill="#242424"/>
<path fill-rule="evenodd" clip-rule="evenodd" d="M396.45 408.21C400.6 404.413 404.467 403.093 407.744 405.915C410.183 407.988 411.71 410.843 412.257 413.987C412.54 415.619 411.447 417.173 409.815 417.457C408.241 417.73 406.74 416.724 406.38 415.188L406.345 415.015C406.048 413.305 405.278 411.798 404.074 410.679L403.822 410.457C403.797 410.446 403.757 410.468 403.505 410.553C402.777 410.802 401.744 411.499 400.501 412.636C398.179 414.761 395.453 418.06 391.804 423.023L390.386 424.969L385.343 431.979C378.743 441.102 377.214 442.776 374.4 444.399C372.965 445.227 371.13 444.735 370.302 443.3C369.474 441.865 369.967 440.03 371.402 439.202L371.545 439.117C373.412 437.981 375.329 435.618 382.085 426.237L384.944 422.257C385.344 421.701 385.717 421.185 386.076 420.691L386.605 419.965C390.657 414.427 393.677 410.747 396.45 408.21Z" fill="#242424"/>
<path fill-rule="evenodd" clip-rule="evenodd" d="M409.066 411.449C411.232 410.225 413.565 410.217 415.575 411.758C418.978 414.48 419.55 419.447 418.465 426.365C418.208 428.002 416.673 429.121 415.036 428.864C413.4 428.607 412.281 427.072 412.538 425.435C413.246 420.918 412.99 417.848 412.116 416.727L412.053 416.652L412.018 416.672C411.383 417.031 410.502 417.87 409.429 419.181L409.212 419.449L408.839 419.923C407.957 421.064 406.98 422.46 405.769 424.29L404.773 425.813C403.705 427.466 401.42 431.017 400.66 432.174L399.959 433.235C394.524 441.396 390.418 446.151 385.751 448.727C384.301 449.527 382.476 449.001 381.675 447.55C380.874 446.099 381.401 444.275 382.852 443.474C386.409 441.51 390.074 437.251 394.996 429.862L396.086 428.203C397.281 426.364 399.679 422.635 400.214 421.817L400.812 420.908C402.266 418.713 403.424 417.079 404.526 415.702C406.135 413.69 407.578 412.29 409.066 411.449Z" fill="#242424"/>
<path fill-rule="evenodd" clip-rule="evenodd" d="M360.575 399.58C366.11 398.644 370.688 401.354 370.398 407.228C370.217 411.49 368.394 417.344 365.465 424.379L364.952 425.596C363.212 429.599 362.755 434.172 363.643 438.612C363.968 440.237 362.914 441.817 361.289 442.142C359.665 442.467 358.084 441.413 357.759 439.789C356.67 434.343 357.18 428.717 359.231 423.722L359.884 422.172C362.567 415.736 364.261 410.332 364.405 406.952C364.474 405.543 363.768 405.125 361.576 405.496C359.185 405.9 357.071 407.399 356.979 408.158C356.629 411.081 355.674 412.969 353.764 414.683L353.531 414.887C353.325 415.063 348.916 418.309 347.082 419.953C345.505 421.34 343.981 425.156 342.847 430.452C342.249 433.247 341.791 436.263 341.456 439.282C341.359 440.164 341.278 440.993 341.212 441.754L341.134 442.723C341.115 442.974 341.103 443.161 341.096 443.277C341.088 443.414 341.07 443.55 341.043 443.685L340.996 443.893C340.993 443.917 340.984 443.969 340.972 444.049C340.745 445.636 340.982 447.861 342.116 450.592C343.896 454.877 347.524 459.372 353.519 463.914C354.458 464.63 355.413 465.275 356.384 465.852C364.193 470.494 372.55 470.63 380.41 468.044C381.344 467.737 382.193 467.412 382.947 467.087L383.316 466.925C383.739 466.734 384.036 466.588 384.194 466.505L384.253 466.473C384.341 466.424 384.432 466.38 384.524 466.341L384.963 466.17C385.165 466.091 385.394 465.999 385.646 465.895L385.907 465.786C386.943 465.352 388.103 464.829 389.354 464.218C392.933 462.472 396.511 460.382 399.835 457.962C409.075 451.236 414.501 443.378 414.501 434.5L414.495 433.585L414.486 433.005L412.709 435.817C410.958 438.602 409.099 441.581 408.122 443.048L407.9 443.378C403.585 449.685 399.4 454.22 394.728 456.983C393.301 457.826 391.462 457.353 390.618 455.927C389.775 454.501 390.248 452.661 391.674 451.818C395.431 449.597 399.085 445.636 402.947 439.99L403.142 439.7C404.937 436.995 410.884 427.248 412.17 425.755C413.06 424.723 413.898 424.047 415.007 423.754C416.896 423.253 418.548 424.2 419.395 425.835C420.22 427.428 420.501 430.04 420.501 434.5C420.501 445.66 414.002 455.071 403.367 462.813C399.735 465.457 395.86 467.72 391.985 469.61C390.628 470.273 389.365 470.842 388.227 471.319L387.415 471.653L386.948 471.835L386.779 471.924L386.352 472.137C385.443 472.576 384.202 473.095 382.673 473.614L382.285 473.744C372.921 476.824 362.823 476.661 353.318 471.009C352.149 470.315 351.004 469.541 349.889 468.692C343.085 463.536 338.781 458.204 336.575 452.894C335.011 449.126 334.658 445.816 335.033 443.198L335.078 442.912L335.122 442.679L335.178 441.922L335.194 441.716C335.27 440.781 335.369 439.741 335.493 438.621C335.848 435.417 336.335 432.21 336.98 429.197C338.334 422.872 340.157 418.225 342.864 415.68L343.098 415.467C345.183 413.598 349.666 410.297 349.628 410.33C350.546 409.544 350.836 408.998 351.022 407.443C351.499 403.47 355.861 400.377 360.575 399.58Z" fill="#242424"/>
<path fill-rule="evenodd" clip-rule="evenodd" d="M316.853 294.041C317.162 292.413 318.732 291.344 320.36 291.653C321.93 291.951 322.98 293.421 322.776 294.985L322.748 295.159L309.521 364.866L347.441 378.886C348.94 379.44 349.732 381.065 349.271 382.573L349.215 382.741C348.661 384.239 347.036 385.031 345.528 384.57L345.361 384.514L305.061 369.614C303.744 369.127 302.949 367.797 303.125 366.421L303.153 366.241L316.853 294.041Z" fill="#242424"/>
<path fill-rule="evenodd" clip-rule="evenodd" d="M265.4 456.9L363.8 472.6L265.4 456.9Z" fill="white"/>
<path fill-rule="evenodd" clip-rule="evenodd" d="M262.438 456.427C262.69 454.849 264.129 453.757 265.699 453.915L265.874 453.937L364.274 469.637C365.91 469.898 367.024 471.436 366.763 473.073C366.512 474.65 365.073 475.743 363.503 475.585L363.328 475.562L264.928 459.862C263.292 459.601 262.177 458.063 262.438 456.427Z" fill="#242424"/>
<path fill-rule="evenodd" clip-rule="evenodd" d="M896.225 187.361L896.295 187.2C897.671 184.265 902.142 185.365 901.999 188.603L901.987 188.781L900.771 201.66L914.655 202.81C919.43 203.217 924.052 204.396 928.323 206.288L928.726 206.471L928.962 206.537C937.644 209.029 944.711 214.755 948.268 222.401L948.458 222.82L997.935 338.498L998.447 339.031L998.962 339.578C1000.08 340.778 1001.33 342.172 1002.66 343.749C1006.48 348.242 1010.29 353.304 1013.85 358.833C1028.2 381.123 1034.37 404.034 1027.49 425.657C1022.68 440.79 1011.58 454.375 993.542 466.044L992.972 466.409L994.397 499.27C994.467 500.866 993.275 502.225 991.706 502.384L991.53 502.397C989.934 502.466 988.575 501.275 988.416 499.705L988.403 499.53L986.903 464.93C986.856 463.847 987.397 462.823 988.318 462.251C1006.42 451.012 1017.24 438.098 1021.77 423.839C1028 404.257 1022.28 383.016 1008.8 362.081C1005.39 356.787 1001.74 351.933 998.089 347.631L997.254 346.656C996.432 345.708 995.656 344.84 994.933 344.057L994.576 343.673C994.282 343.358 994.016 343.078 993.779 342.832L993.289 342.331C993.069 342.113 992.884 341.862 992.741 341.589L992.642 341.379L942.959 225.218C940.182 218.97 934.288 214.197 926.914 212.195C926.751 212.15 926.592 212.092 926.439 212.021C922.84 210.354 918.927 209.281 914.87 208.857L914.152 208.789L897.252 207.389C895.647 207.256 894.445 205.884 894.502 204.295L894.513 204.118L895.337 195.386L895.188 195.467C894.24 195.969 893.193 196.457 892.043 196.929L891.544 197.131C889.662 197.877 887.542 198.569 885.17 199.199C883.569 199.624 881.926 198.671 881.501 197.07C881.075 195.468 882.029 193.825 883.63 193.4C885.779 192.829 887.675 192.21 889.332 191.553C892.239 190.401 894.231 189.213 895.477 188.093C895.795 187.808 896.025 187.562 896.181 187.36L896.273 187.239C896.274 187.241 896.27 187.252 896.261 187.272L896.225 187.361Z" fill="#242424"/>
<path fill-rule="evenodd" clip-rule="evenodd" d="M779.322 201.4C780.978 201.357 782.356 202.665 782.399 204.321C782.443 205.977 781.135 207.355 779.479 207.398C772.585 207.578 766.728 208.711 761.279 211.371C754.485 214.686 748.833 220.226 744.465 228.595L744.235 229.038L684.188 379.809L684.114 379.978L684.031 380.143C674.089 398.26 679.268 425.122 695.439 439.182L695.719 439.421L730.552 458.674C731.53 459.214 732.121 460.25 732.1 461.356L732.09 461.552L728.79 500.552C728.65 502.203 727.198 503.428 725.547 503.289C723.956 503.154 722.759 501.799 722.801 500.223L722.811 500.046L725.946 462.983L692.549 444.525C692.435 444.462 692.326 444.392 692.221 444.315L692.068 444.194C673.531 428.589 667.462 398.692 678.433 377.884L678.674 377.431L738.739 226.627L738.825 226.442C743.818 216.603 750.52 209.944 758.647 205.978C764.975 202.89 771.641 201.601 779.322 201.4Z" fill="#242424"/>
<path fill-rule="evenodd" clip-rule="evenodd" d="M709.653 377.561C722.241 368.543 734.443 364.659 746.062 365.158C755.224 365.55 763.468 368.617 770.676 373.469C773.377 375.288 775.746 377.236 777.769 379.191L778.243 379.655C779.225 380.629 779.924 381.408 780.332 381.912C781.375 383.199 781.176 385.088 779.889 386.131C778.651 387.134 776.856 386.989 775.793 385.831L775.385 385.357C775.328 385.293 775.263 385.22 775.191 385.14C774.748 384.652 774.217 384.103 773.6 383.507C771.819 381.786 769.72 380.059 767.325 378.446C760.979 374.175 753.772 371.494 745.805 371.152C735.568 370.713 724.675 374.18 713.148 382.438C711.801 383.403 709.927 383.094 708.962 381.747C707.997 380.4 708.307 378.526 709.653 377.561Z" fill="#242424"/>
<path fill-rule="evenodd" clip-rule="evenodd" d="M716.816 362.038C730.054 355.147 741.778 352.875 752.02 354.585C760.316 355.97 767.189 359.869 772.715 365.473C775.089 367.88 777.063 370.453 778.668 373.043C779.244 373.974 779.738 374.852 780.153 375.659L780.361 376.071C780.518 376.387 780.636 376.641 780.742 376.881C781.415 378.395 780.733 380.168 779.219 380.84C777.705 381.513 775.932 380.831 775.259 379.317C774.925 378.566 774.412 377.567 773.567 376.203C772.187 373.976 770.484 371.755 768.443 369.686C763.757 364.934 757.996 361.665 751.032 360.503C742.152 359.02 731.726 361.041 719.586 367.36C718.116 368.125 716.305 367.554 715.54 366.084C714.775 364.615 715.346 362.803 716.816 362.038Z" fill="#242424"/>
<path fill-rule="evenodd" clip-rule="evenodd" d="M965.962 357.597C977.89 355.906 990.853 359.131 1004.73 368.078C1006.12 368.976 1006.52 370.832 1005.62 372.225C1004.72 373.617 1002.87 374.018 1001.47 373.12C988.768 364.926 977.241 362.058 966.804 363.538C958.568 364.705 951.31 368.529 945.046 374.206C942.349 376.651 940.024 379.274 938.082 381.894C937.502 382.675 936.995 383.405 936.56 384.071L936.159 384.698C935.989 384.971 935.875 385.164 935.817 385.266C935.007 386.711 933.179 387.226 931.733 386.416C930.288 385.605 929.774 383.777 930.584 382.332L930.769 382.011C931.273 381.153 932.104 379.881 933.262 378.32C935.427 375.4 938.01 372.485 941.017 369.761C948.11 363.331 956.43 358.948 965.962 357.597Z" fill="#242424"/>
<path fill-rule="evenodd" clip-rule="evenodd" d="M937.304 360.295C948.714 348.909 964.819 343.503 986.036 347.347C987.666 347.643 988.748 349.204 988.453 350.834C988.158 352.464 986.596 353.547 984.966 353.251C965.732 349.766 951.593 354.512 941.542 364.542C938.82 367.259 936.618 370.171 934.898 373.077C934.387 373.942 933.952 374.749 933.591 375.483L933.416 375.844C933.275 376.142 933.169 376.379 933.095 376.549L932.999 376.781C932.401 378.327 930.664 379.095 929.119 378.497C927.574 377.9 926.805 376.163 927.403 374.617L927.552 374.247C927.966 373.257 928.681 371.802 929.735 370.021C931.7 366.701 934.204 363.389 937.304 360.295Z" fill="#242424"/>
<path fill-rule="evenodd" clip-rule="evenodd" d="M1310.8 386.199C1307.6 386.199 1304.4 386.499 1301.3 387.199C1305 387.199 1309.7 389.699 1310 392.599C1310.6 397.599 1313.1 397.299 1318.9 402.499C1324.7 407.599 1323.6 427.999 1323.6 427.999C1323.6 427.999 1328.7 438.499 1312.3 450.999C1295.9 463.499 1278.3 453.799 1278.3 453.799C1278.3 453.799 1274.8 452.499 1270.1 449.899C1277.2 465.099 1292.6 475.599 1310.4 475.699C1335.1 475.799 1355.2 455.899 1355.3 431.199C1355.4 406.399 1335.5 386.299 1310.8 386.199Z" fill="#242424"/>
<path fill-rule="evenodd" clip-rule="evenodd" d="M820.9 143.499C822.498 143.499 823.804 144.748 823.895 146.323L823.9 146.499V173.399C823.9 175.056 822.557 176.399 820.9 176.399C819.303 176.399 817.997 175.15 817.905 173.575L817.9 173.399V146.499C817.9 144.842 819.244 143.499 820.9 143.499Z" fill="#242424"/>
<path fill-rule="evenodd" clip-rule="evenodd" d="M879.611 176.402C881.208 176.461 882.466 177.757 882.499 179.334L882.498 179.511L882.098 190.311C882.037 191.967 880.645 193.259 878.989 193.198C877.392 193.139 876.133 191.842 876.101 190.265L876.102 190.089L876.502 179.289C876.561 177.692 877.858 176.433 879.435 176.4L879.611 176.402Z" fill="#242424"/>
<path fill-rule="evenodd" clip-rule="evenodd" d="M862.434 48.1803C848.145 50.2439 833.608 60.9363 817.036 82.1528L816.909 82.3281C816.668 82.6871 816.507 83.0947 816.438 83.5232L812.357 108.896L811.935 108.815C798.087 106.273 789.834 114.602 793.29 128.427L793.404 128.879C797.02 142.968 805.695 149.533 818.494 147.074L818.759 147.622C827.167 164.952 840.303 177.246 859.165 181.332C880.409 185.955 894.03 180.597 902.479 168.376C903.755 166.53 904.864 164.602 905.934 162.452L906.332 161.64C906.53 161.229 906.73 160.806 906.941 160.349L908.122 157.761C910.905 151.446 914.747 130.527 915.535 113.11C916.68 87.7808 912.386 68.9797 900.607 60.8322C885.84 50.6185 874.655 46.4155 862.434 48.1803ZM897.194 65.7669C906.692 72.3367 910.599 89.4419 909.541 112.839L909.487 113.936C908.623 130.452 905.014 149.933 902.655 155.29L901.701 157.383C901.285 158.291 900.933 159.036 900.564 159.778C899.612 161.688 898.642 163.375 897.544 164.964C890.479 175.183 879.312 179.576 860.438 175.468C842.692 171.624 830.563 159.59 822.943 142.385C822.346 141.036 820.857 140.322 819.432 140.7L819.046 140.802C808.434 143.547 802.094 139.086 799.113 126.982C796.534 116.664 802.154 111.905 813.931 115.471L814.105 115.518C815.788 115.921 817.483 114.81 817.762 113.076L822.238 85.2415L823.201 84.028C838.291 65.1399 851.198 55.8653 863.292 54.1187C873.671 52.6198 883.556 56.3343 897.194 65.7669Z" fill="#242424"/>
<path fill-rule="evenodd" clip-rule="evenodd" d="M887.251 112.62C888.838 112.434 890.28 113.523 890.554 115.076L890.58 115.251L893.58 140.851C893.785 142.6 892.448 144.135 890.712 144.198L890.538 144.199L880.938 143.999C879.281 143.965 877.966 142.594 878.001 140.937C878.034 139.34 879.31 138.06 880.886 138.002L881.062 138.001L887.219 138.128L884.62 115.949C884.434 114.362 885.523 112.92 887.076 112.646L887.251 112.62Z" fill="#242424"/>
<path fill-rule="evenodd" clip-rule="evenodd" d="M898.701 120C900.302 120 901.601 118.03 901.601 115.6C901.601 113.17 900.302 111.2 898.701 111.2C897.099 111.2 895.801 113.17 895.801 115.6C895.801 118.03 897.099 120 898.701 120Z" fill="#242424"/>
<path fill-rule="evenodd" clip-rule="evenodd" d="M871.3 119.5C872.902 119.5 874.2 117.53 874.2 115.1C874.2 112.67 872.902 110.7 871.3 110.7C869.699 110.7 868.4 112.67 868.4 115.1C868.4 117.53 869.699 119.5 871.3 119.5Z" fill="#242424"/>
<path fill-rule="evenodd" clip-rule="evenodd" d="M896.934 86.776C898.725 86.4888 900.622 86.473 902.489 86.928C905.759 87.7252 908.275 89.8659 909.368 93.4177C909.855 95.0013 908.966 96.68 907.383 97.1673C905.856 97.6371 904.24 96.8275 903.69 95.3492L903.633 95.1822C903.199 93.7701 902.386 93.0787 901.068 92.7574C900.091 92.5194 898.953 92.5288 897.884 92.7003L897.643 92.7419C897.539 92.7613 897.46 92.7779 897.411 92.7895L897.371 92.7992C895.77 93.2249 894.127 92.2719 893.701 90.6706C893.275 89.0694 894.228 87.4263 895.83 87.0006L896.071 86.9412C896.298 86.889 896.588 86.8314 896.934 86.776Z" fill="#242424"/>
<path fill-rule="evenodd" clip-rule="evenodd" d="M868.8 146.5C868.8 146.5 878 149.8 885.7 148.5C885.7 148.5 882.8 161.8 875.3 160.2C867.9 158.5 868.8 146.5 868.8 146.5Z" fill="#242424"/>
<path fill-rule="evenodd" clip-rule="evenodd" d="M773.7 32.5995C758.4 2.6995 733.9 0.0994942 705.6 5.79949C677.3 11.3995 661.5 49.4995 660.5 52.9995C649 94.1995 664.2 138.199 698.2 164.199C702 167.099 705.7 169.999 709.3 172.799C729.3 188.399 685 201.799 685 201.799C769.7 208.599 751.2 123.799 749.4 116.299C776.6 105.999 787.9 60.3995 773.7 32.5995Z" fill="#242424"/>
<path fill-rule="evenodd" clip-rule="evenodd" d="M819.3 91.7997V91.7997C816.6 98.6997 808.8 102.1 801.9 99.3997L752.8 80.2997C745.9 77.5997 742.5 69.7997 745.2 62.8997V62.8997C747.9 55.9997 755.7 52.5997 762.6 55.2997L811.7 74.3997C818.6 77.0997 822 84.8997 819.3 91.7997Z" fill="#242424"/>
<path fill-rule="evenodd" clip-rule="evenodd" d="M922.7 92.4997C922.4 71.6997 917.4 53.4997 904.9 41.4997C903.2 39.3997 900.9 37.5997 897.8 35.8997C887.6 29.2997 873.7 25.6997 855.2 26.3997C854.9 26.3997 854.5 26.4997 854.1 26.6997C851.2 26.9997 848.3 27.3997 845.5 27.9997C844 28.1997 842.5 28.5997 840.9 29.0997C835.6 30.4997 830.7 32.3997 826.1 34.4997C784.7 52.2997 768.5 84.3997 787 128.7C796.5 151.5 808.9 158.9 820.9 158.9V145.1C819.9 142.9 818.2 143.8 818.2 143.8C805.3 147.3 799.6 141.1 796.2 127.7C794.6 121.2 795.9 116.3 799.4 113.6C799.5 113.5 799.6 113.5 799.7 113.4C799.8 113.3 800 113.2 800.1 113.1C800.2 113 800.3 113 800.4 112.9C800.6 112.8 800.7 112.7 800.9 112.6C801 112.6 801.1 112.5 801.2 112.5C801.4 112.4 801.6 112.3 801.7 112.3C801.8 112.3 801.9 112.2 802 112.2C802.2 112.1 802.4 112.1 802.6 112C802.7 112 802.7 112 802.8 111.9C803.9 111.6 805.1 111.4 806.4 111.4H806.5C806.8 111.4 807.1 111.4 807.4 111.4C807.5 111.4 807.5 111.4 807.6 111.4C807.9 111.4 808.2 111.4 808.5 111.4C808.6 111.4 808.6 111.4 808.7 111.4C809 111.4 809.4 111.5 809.7 111.5H809.8C811.3 111.7 813 112.1 814.7 112.6V112.6C815.8 112.9 815 113.4 816.2 113.9L819.2 113.7C820.2 113.7 821.3 113.6 822.4 113.5C848.5 110.4 889.1 91.6997 903.5 67.6997C913.7 80.0997 914.8 104.4 912.9 125C919.1 115.3 922.9 104.4 922.7 92.4997ZM875.5 85.2997C875.3 86.8997 873.7 88.0997 872.1 87.7997C866 86.8997 862.7 91.2997 862.6 91.3997C862 92.1997 861.1 92.5997 860.2 92.5997C859.6 92.5997 859 92.3997 858.5 91.9997C857.2 90.9997 856.8 89.1997 857.8 87.8997C858 87.5997 863.2 80.2997 873.1 81.7997C874.6 82.1997 875.7 83.6997 875.5 85.2997Z" fill="#242424"/>
<path fill-rule="evenodd" clip-rule="evenodd" d="M822.051 170.15C856.42 163.744 889.497 185.454 897.571 219.087L897.622 219.311L904.354 218.05C919.354 215.272 933.85 225.045 936.958 239.989L937.048 240.443L943.348 273.843C943.656 275.474 942.581 277.045 940.95 277.349C908.777 283.345 887.558 314.378 893.649 346.545C897.448 366.745 911.384 383.26 930.204 390.71C931.745 391.32 932.5 393.063 931.89 394.604C931.28 396.144 929.537 396.899 927.996 396.289C907.283 388.09 891.937 369.903 887.753 347.658C881.246 313.294 903.038 280.107 936.694 272.118L936.907 272.068L931.154 241.563C928.892 229.732 917.582 221.902 905.81 223.885L905.453 223.948L895.853 225.748C894.227 226.053 892.661 224.983 892.353 223.358C886.262 191.19 855.332 170.05 823.158 176.047C790.99 182.138 769.851 213.068 775.85 245.25C776.142 246.819 775.155 248.331 773.625 248.711L773.453 248.748L763.864 250.546C752.033 252.808 744.203 264.117 746.185 275.887L746.248 276.243L752.004 306.761L752.226 306.729C786.141 302.006 818.175 324.503 825.041 358.28L825.248 359.34C828.716 377.598 824.208 396.131 813.194 410.708C812.195 412.03 810.314 412.292 808.992 411.293C807.67 410.294 807.408 408.413 808.407 407.091C818.411 393.85 822.501 377.034 819.351 360.449C813.354 328.276 782.322 307.057 750.158 313.147C748.588 313.444 747.072 312.459 746.69 310.928L746.652 310.755L740.35 277.346C737.573 262.346 747.346 247.85 762.293 244.741L762.747 244.651L769.469 243.39L769.437 243.165C764.803 209.251 787.217 177.322 820.992 170.36L822.051 170.15Z" fill="#242424"/>
<path fill-rule="evenodd" clip-rule="evenodd" d="M958.891 438.669C960.013 437.449 961.91 437.369 963.13 438.49C964.35 439.611 964.43 441.509 963.309 442.729C959.5 446.875 954.375 449.779 948.676 450.946L948.156 451.047L806.549 477.749C801.795 478.633 797.077 478.32 792.652 476.845C791.08 476.321 790.23 474.622 790.754 473.051C791.278 471.479 792.977 470.629 794.549 471.153C797.848 472.253 801.357 472.525 804.933 471.941L805.445 471.851L947.054 445.149C951.689 444.291 955.844 441.985 958.891 438.669Z" fill="#242424"/>
<path fill-rule="evenodd" clip-rule="evenodd" d="M751.62 392.091C756.704 390.259 762.019 390.181 766.97 391.127L767.524 391.238C768.408 391.423 769.084 391.604 769.517 391.743C769.867 391.855 770.192 392.03 770.478 392.259L770.644 392.403L777.597 398.873L778.03 399.121L778.775 399.539C779.166 399.756 779.586 399.987 780.032 400.228C782.155 401.376 784.416 402.525 786.713 403.595C788.738 404.539 790.696 405.375 792.547 406.076L793.334 406.368C798.385 408.199 802.173 408.769 803.643 408.024C808.258 405.684 812.422 405.255 815.14 407.69C818.075 410.32 817.885 414.926 815.252 420.994C812.954 426.289 807.961 428.798 801.442 429.216C800.987 429.245 800.528 429.264 800.067 429.273L799.418 429.278L800.622 430.254C801.897 431.29 803.156 432.321 804.387 433.337L806.31 434.932L808.281 436.583C813.856 441.282 817.78 444.836 819.629 446.973L819.764 447.131C822.813 450.638 823.568 455.515 820.186 457.994C816.851 460.438 811.51 458.857 804.462 453.844C803.111 452.884 802.795 451.011 803.755 449.661C804.715 448.311 806.588 447.994 807.939 448.954C810.886 451.05 813.294 452.333 815.076 452.86C815.516 452.991 815.89 453.066 816.192 453.096L816.336 453.107L816.322 453.036C816.2 452.505 815.878 451.864 815.381 451.242L815.208 451.035C813.573 449.1 809.256 445.217 803.149 440.109L801.776 438.965C798.578 436.31 795.148 433.526 791.718 430.784L789.749 429.215L787.149 427.16C784.59 425.154 786.606 421.127 789.686 421.878L790.305 422.046C790.391 422.069 790.488 422.094 790.594 422.12C791.233 422.28 791.955 422.441 792.743 422.592C795.577 423.134 798.445 423.395 801.059 423.228C805.562 422.94 808.51 421.458 809.748 418.605C810.728 416.348 811.218 414.547 811.27 413.276C811.289 412.818 811.248 412.482 811.176 412.264L811.136 412.159L811.094 412.143C811.075 412.137 811.047 412.129 811.009 412.119C810.804 412.07 810.505 412.057 810.122 412.096C809.209 412.19 808.029 412.563 806.694 413.208L806.357 413.375C802.742 415.208 797.43 414.34 790.422 411.687C788.423 410.93 786.331 410.036 784.179 409.034C781.765 407.909 779.4 406.708 777.177 405.505L776.278 405.015C775.991 404.856 775.716 404.703 775.454 404.556L774.647 404.098C774.486 404.006 774.363 403.934 774.279 403.885C774.154 403.811 774.034 403.729 773.921 403.638L773.756 403.496L767.092 397.294L767.007 397.273C766.747 397.209 766.463 397.145 766.157 397.082L765.844 397.021C761.859 396.259 757.578 396.322 753.654 397.736C747.581 399.925 743.163 405.09 741.024 414.373C741.007 414.447 740.987 414.52 740.964 414.592C738.79 421.567 739.774 427.922 742.748 433.475C743.392 434.678 744.08 435.738 744.762 436.64L745.008 436.958C745.236 437.249 745.413 437.457 745.523 437.577L745.654 437.719L747.109 439.405C747.823 440.223 748.522 440.994 749.305 441.815C751.418 444.029 753.861 446.312 756.811 448.749C764.661 455.234 774.999 461.901 788.438 468.663L789.181 469.035L789.588 469.176L790.05 469.327L790.271 469.395L789.887 469.018L789.616 468.758C786.884 466.12 783.999 463.699 781.141 461.629C779.799 460.657 779.499 458.782 780.47 457.44C781.442 456.098 783.318 455.798 784.66 456.77C787.748 459.006 790.85 461.608 793.772 464.43L794.322 464.961C798.243 468.795 799.744 471.318 798.481 473.908C797.684 475.542 796.214 476.136 794.477 476.206C793.543 476.244 792.499 476.119 791.322 475.874C790.698 475.743 790.049 475.58 789.386 475.392L788.795 475.22C788.035 474.992 787.398 474.775 786.961 474.614C786.859 474.576 786.759 474.533 786.662 474.484C772.385 467.368 761.376 460.302 752.99 453.375C749.854 450.785 747.237 448.339 744.964 445.956C744.285 445.245 743.664 444.568 743.05 443.875L741.168 441.705L741.129 441.662C740.884 441.396 740.55 441.003 740.152 440.488L739.977 440.259C739.114 439.118 738.257 437.798 737.459 436.308C733.847 429.566 732.59 421.766 735.082 413.315L735.205 412.908L735.305 412.486C737.911 401.754 743.53 395.158 751.233 392.235L751.62 392.091Z" fill="#242424"/>
<path fill-rule="evenodd" clip-rule="evenodd" d="M782.694 435.207C783.645 433.93 785.419 433.626 786.736 434.484L787.151 434.777C789.145 436.152 798.696 442.217 801.369 444.006L802.736 444.929C804.296 445.992 805.734 447.006 807.068 447.987C811.79 451.462 815.063 454.417 816.801 457.043C818.336 459.362 819.092 461.489 818.797 463.425C818.382 466.141 816.131 467.595 813.287 467.536C809.183 467.451 802.726 464.31 794.444 458.332C793.1 457.362 792.798 455.487 793.767 454.143C794.737 452.8 796.612 452.497 797.956 453.467L798.838 454.097C804.805 458.318 809.511 460.755 812.253 461.378L812.43 461.415L812.346 461.26C812.228 461.044 812.089 460.807 811.925 460.551L811.798 460.355C810.56 458.484 807.697 455.9 803.511 452.819C802.057 451.749 800.46 450.63 798.699 449.441L797.538 448.665C794.258 446.505 784.618 440.381 783.308 439.405C781.979 438.416 781.704 436.536 782.694 435.207Z" fill="#242424"/>
<path fill-rule="evenodd" clip-rule="evenodd" d="M776.343 441.977C777.469 441.351 778.824 441.527 779.75 442.318L779.87 442.427L780.22 442.66L781.228 443.288C781.756 443.612 782.41 444.006 783.554 444.69L787.467 447.036C790.305 448.745 792.288 449.963 794.531 451.382L794.853 451.586C795.963 452.29 797.022 452.974 798.031 453.639L798.779 454.134C802.429 456.566 805.337 458.702 807.436 460.548L807.73 460.81C811.048 463.796 812.574 466.116 811.338 468.824C809.748 472.379 806.48 473.667 801.837 472.51C797.836 471.513 792.095 468.627 783.751 463.399L782.695 462.734L782.588 462.663L768.188 452.663C766.828 451.718 766.491 449.849 767.436 448.488C768.346 447.178 770.113 446.816 771.458 447.635L771.611 447.735L785.964 457.701L786.406 457.981C794.372 463 799.758 465.751 803.082 466.635L803.287 466.688C804.394 466.964 804.968 467.054 805.315 466.955L805.355 466.941L805.326 466.905C805.002 466.507 804.537 466.024 803.945 465.478L803.716 465.27C801.94 463.672 799.297 461.707 795.918 459.439L795.452 459.128C794.499 458.493 793.495 457.838 792.44 457.163L791.638 456.652C789.305 455.172 787.3 453.938 784.357 452.167L777.979 448.334L777.278 447.899C776.978 447.71 776.732 447.55 776.532 447.414C776.352 447.292 776.2 447.182 776.064 447.074C775.683 446.771 775.45 446.546 775.177 446.056C774.373 444.608 774.894 442.781 776.343 441.977Z" fill="#242424"/>
<path fill-rule="evenodd" clip-rule="evenodd" d="M977.259 375.409L977.476 375.399L977.78 375.402C978.05 375.408 978.397 375.423 978.812 375.453C979.721 375.516 980.72 375.632 981.787 375.811C984.806 376.32 987.825 377.243 990.67 378.696C999.698 383.307 1004.85 392.056 1004.03 405.401L1004 405.809L1004 406.244C1003.88 413.662 1001.35 419.898 997.195 424.947L996.888 425.314C995.339 427.142 993.679 428.68 992.012 429.943C991.243 430.526 990.588 430.966 990.087 431.272L989.729 431.48L988.681 432.143C988.119 432.497 987.617 432.807 987.073 433.133C985.604 434.015 984.058 434.875 982.319 435.759C977.71 438.103 972.285 440.337 965.791 442.428C957.421 445.123 947.706 447.432 936.482 449.26L936.317 449.283L936.15 449.296C936.059 449.3 935.907 449.306 935.702 449.312C934.498 449.347 933.175 449.33 931.895 449.221C930.679 449.117 929.62 448.939 928.717 448.646C927.063 448.109 925.823 447.207 925.408 445.494C924.651 442.372 927.11 440.27 932.658 437.516C935.999 435.846 939.459 434.432 943.601 432.97C945.164 432.419 946.877 433.239 947.429 434.801C947.98 436.363 947.16 438.077 945.598 438.628C941.672 440.014 938.431 441.338 935.334 442.886L934.664 443.225L934.468 443.326L934.919 443.327L935.692 443.309L936.643 443.153C946.726 441.465 955.504 439.383 963.112 436.985L963.953 436.717C970.144 434.723 975.274 432.61 979.599 430.411C981.209 429.592 982.633 428.8 983.986 427.988C984.363 427.762 984.72 427.543 985.098 427.308L986.616 426.352L986.958 426.149L987.137 426.037C987.508 425.801 987.929 425.509 988.388 425.161C989.721 424.151 991.061 422.91 992.311 421.434C995.775 417.348 997.88 412.322 997.995 406.225L998 405.699L998.008 405.482C998.822 394.282 994.962 387.626 987.941 384.04C985.687 382.888 983.244 382.141 980.79 381.728C980.066 381.606 979.386 381.521 978.761 381.467L978.217 381.426L978.127 381.42L969.88 385.312C969.754 385.372 969.624 385.423 969.49 385.464L969.289 385.519L968.741 385.644C968.398 385.721 968.014 385.804 967.594 385.893L967.271 385.96C965.709 386.286 964.002 386.611 962.202 386.914C959.006 387.453 955.87 387.865 952.913 388.1C944.701 388.75 938.875 388.063 935.797 385.039C934.607 383.87 933.487 383.056 932.568 382.65C932.21 382.492 931.918 382.412 931.706 382.395L931.581 382.391C931.512 382.421 931.333 382.667 931.135 383.399C930.802 384.634 930.728 386.516 930.983 388.988C931.343 392.429 934.263 394.906 939.324 396.504C941.415 397.165 943.69 397.609 945.969 397.872C946.61 397.946 947.213 398.001 947.767 398.04L948.173 398.066C948.504 398.085 948.745 398.095 948.884 398.098L948.945 398.1C952.193 398.149 953.026 402.565 950.13 403.836L945.618 405.574L944.389 406.052C940.729 407.478 937.069 408.932 933.599 410.349L931.257 411.311L928.625 412.41C922.405 415.034 917.944 417.11 916.007 418.332C915.248 418.814 914.654 419.413 914.339 419.951L914.308 420.008C914.575 420.073 914.909 420.116 915.314 420.133L915.565 420.14C917.429 420.165 920.122 419.66 923.578 418.544C925.155 418.035 926.846 418.901 927.355 420.478C927.864 422.055 926.998 423.745 925.421 424.254C917.165 426.919 911.608 426.845 909.161 423.531C906.678 420.169 908.846 415.771 912.799 413.262L913.183 413.026C915.733 411.497 920.561 409.281 927.254 406.478L929.839 405.405C931.809 404.594 933.848 403.769 935.921 402.941L937.632 402.26L937.518 402.226C930.557 400.028 925.852 396.105 925.056 389.952L925.016 389.608L924.942 388.822C924.429 382.62 925.676 378.449 929.144 376.908C932.47 375.43 936.295 377.118 940.002 380.759C941.35 382.083 945.985 382.63 952.439 382.118C955.203 381.899 958.17 381.51 961.205 380.998C962.924 380.708 964.557 380.397 966.048 380.086L966.922 379.901L967.612 379.747L976.219 375.686C976.547 375.532 976.899 375.438 977.259 375.409Z" fill="#242424"/>
<path fill-rule="evenodd" clip-rule="evenodd" d="M948.036 411.058C949.605 410.526 951.308 411.366 951.841 412.935C952.354 414.448 951.591 416.086 950.129 416.679L949.964 416.74C948.499 417.237 936.127 420.544 932.342 421.678L930.758 422.161C923.695 424.349 918.764 426.396 916.478 428.238C916.154 428.499 915.879 428.743 915.652 428.962L915.544 429.068L915.576 429.073C918.394 429.381 923.886 428.437 931.267 426.013L931.751 425.853C933.323 425.329 935.022 426.179 935.546 427.751C936.07 429.322 935.22 431.021 933.649 431.545L932.562 431.902C923.422 434.852 916.691 435.776 912.888 434.635C910.169 433.82 908.475 431.746 908.895 429.041C909.196 427.098 910.561 425.295 912.717 423.563C915.913 420.988 921.671 418.641 930.02 416.111L931.285 415.734C935.468 414.515 945.311 411.872 947.638 411.182L948.036 411.058Z" fill="#242424"/>
<path fill-rule="evenodd" clip-rule="evenodd" d="M952.505 420.647C953.67 420.141 955.076 420.417 955.957 421.424C957.048 422.671 956.922 424.566 955.675 425.657L955.463 425.839C955.092 426.146 954.841 426.267 953.93 426.513L952.182 426.96L944.837 428.727C942.298 429.343 940.267 429.852 938.243 430.382L936.333 430.89C930.849 432.369 926.507 433.747 923.524 435.014C922.434 435.477 921.562 435.912 920.939 436.295L920.718 436.436L920.736 436.449C921.025 436.632 921.555 436.723 922.558 436.791L922.78 436.805C926.198 437.011 932.218 436.008 941.452 433.554L941.956 433.418L958.592 428.14C960.115 427.657 961.737 428.452 962.301 429.925L962.359 430.092C962.842 431.615 962.047 433.237 960.573 433.801L960.407 433.859L943.707 439.159L943.577 439.197L941.788 439.67C932.638 442.049 926.467 443.039 922.418 442.794C917.643 442.506 914.89 440.31 914.421 436.457C914.05 433.368 916.347 431.58 920.86 429.628L921.178 429.492C924.349 428.145 928.691 426.754 934.115 425.275L936.331 424.681C939.036 423.967 941.688 423.31 945.435 422.411L951.115 421.041L951.938 420.828L952.396 420.697L952.505 420.647Z" fill="#242424"/>
<path fill-rule="evenodd" clip-rule="evenodd" d="M1087.41 384.043C1088.61 382.891 1090.5 382.923 1091.66 384.114C1092.81 385.305 1092.78 387.204 1091.59 388.356C1079.67 399.881 1072.8 415.65 1072.8 432.516C1072.61 466.525 1103.14 497.208 1137.32 497.399C1138.97 497.409 1140.31 498.759 1140.3 500.416C1140.29 502.073 1138.94 503.408 1137.28 503.399C1099.8 503.19 1066.59 469.813 1066.8 432.499C1066.8 414.003 1074.34 396.684 1087.41 384.043Z" fill="#242424"/>
<path fill-rule="evenodd" clip-rule="evenodd" d="M1247.26 152.366C1248.72 151.573 1250.54 152.108 1251.33 153.563C1252.13 155.018 1251.59 156.84 1250.14 157.633C1228.45 169.462 1220.64 186.685 1227.19 203.3C1227.8 204.841 1227.04 206.583 1225.5 207.191C1223.96 207.798 1222.22 207.041 1221.61 205.5C1213.87 185.867 1223.08 165.558 1247.26 152.366Z" fill="#242424"/>
<path fill-rule="evenodd" clip-rule="evenodd" d="M1349.67 140.459C1350.02 138.84 1351.62 137.815 1353.24 138.168C1376.86 143.327 1391.7 155.919 1398.69 173.82C1403.49 186.089 1404.24 200.184 1402.03 213.037L1401.89 213.816L1402.63 214.025C1405.4 214.814 1408.48 215.784 1411.8 216.944C1421.27 220.258 1430.74 224.438 1439.6 229.562C1465.36 244.458 1480.94 264.208 1480.8 289.415C1480.71 306.9 1471.83 334.932 1456.77 369.931L1455.67 372.462L1455.89 374.463C1458.44 397.832 1460.07 422.173 1460.92 446.588L1461.02 449.518C1461.57 466.401 1461.71 481.329 1461.59 493.372L1461.54 497.134L1461.5 499.572C1461.46 501.228 1460.08 502.539 1458.43 502.498C1456.77 502.458 1455.46 501.083 1455.5 499.427L1455.56 496.211L1455.58 494.141C1455.71 482.313 1455.59 467.583 1455.06 450.882L1455.03 449.713C1454.17 423.49 1452.44 397.316 1449.62 372.336C1449.56 371.813 1449.64 371.283 1449.85 370.801L1450.78 368.663C1465.81 333.887 1474.72 305.972 1474.8 289.383C1474.93 266.739 1460.69 248.685 1436.6 234.757C1428.09 229.838 1418.95 225.805 1409.82 222.607C1406.88 221.581 1404.15 220.71 1401.66 219.989L1400.99 219.796C1400.33 219.607 1399.72 219.44 1399.17 219.293L1398.08 219.01C1397.91 218.968 1397.79 218.937 1397.71 218.919C1396.12 218.543 1395.12 216.959 1395.47 215.359C1398.25 202.65 1397.87 188.208 1393.11 176.003C1386.85 159.978 1373.62 148.762 1351.96 144.03C1350.34 143.677 1349.32 142.078 1349.67 140.459Z" fill="#242424"/>
<path fill-rule="evenodd" clip-rule="evenodd" d="M1345.68 181.246C1346.45 179.85 1348.17 179.312 1349.59 179.99L1349.75 180.074L1370.35 191.474C1372.48 192.65 1372.38 195.705 1370.26 196.774L1369.75 197.012L1369.52 197.127C1368.98 197.397 1368.35 197.739 1367.63 198.158C1365.53 199.377 1363.18 200.962 1360.63 202.953C1353.29 208.696 1345.92 216.531 1339.01 226.776C1328.4 242.532 1319.9 262.52 1314.33 287.258C1313.96 288.875 1312.36 289.89 1310.74 289.525C1309.12 289.161 1308.11 287.556 1308.47 285.939C1314.21 260.485 1323 239.806 1334.04 223.423C1341.3 212.647 1349.1 204.352 1356.94 198.227C1358.91 196.682 1360.79 195.354 1362.55 194.227L1362.73 194.114L1346.85 185.324C1345.45 184.551 1344.91 182.83 1345.59 181.409L1345.68 181.246Z" fill="#242424"/>
<path fill-rule="evenodd" clip-rule="evenodd" d="M1347.3 279.2C1356.2 275.2 1381.7 242.8 1395.4 215.8C1406.9 215.6 1426.4 223.5 1433.6 229.1C1400.9 280.7 1347.2 279.2 1347.3 279.2Z" fill="#242424"/>
<path fill-rule="evenodd" clip-rule="evenodd" d="M1346.2 370.224C1352.3 368.427 1359.06 367.58 1366.19 368.207C1375.61 369.036 1384.79 372.394 1393.39 378.776C1400.31 383.91 1406.68 390.895 1412.43 399.883C1413.32 401.279 1412.91 403.134 1411.52 404.027C1410.12 404.919 1408.26 404.51 1407.37 403.114C1402.01 394.724 1396.13 388.279 1389.81 383.594C1382.13 377.889 1374 374.918 1365.66 374.184C1359.34 373.628 1353.32 374.383 1347.89 375.98C1346.61 376.356 1345.46 376.754 1344.44 377.152L1344.02 377.322C1343.37 377.586 1342.94 377.782 1342.75 377.878C1341.27 378.623 1339.47 378.028 1338.72 376.549C1337.98 375.069 1338.57 373.265 1340.05 372.52L1340.28 372.409C1340.62 372.246 1341.11 372.026 1341.75 371.765C1343.05 371.237 1344.54 370.712 1346.2 370.224Z" fill="#242424"/>
<path fill-rule="evenodd" clip-rule="evenodd" d="M1344.96 363.924C1353.11 359.338 1362.46 356.893 1372.8 357.742C1386.15 358.838 1399.92 365.401 1413.85 378.407C1415.06 379.538 1415.12 381.436 1413.99 382.647C1412.86 383.858 1410.96 383.922 1409.75 382.791C1396.78 370.671 1384.25 364.702 1372.31 363.722C1363.26 362.979 1355.07 365.119 1347.9 369.153C1345.73 370.374 1343.82 371.679 1342.2 372.978L1341.67 373.414C1341.42 373.625 1341.18 373.827 1340.97 374.018L1340.52 374.431L1340.34 374.603C1339.18 375.784 1337.28 375.799 1336.09 374.637C1334.91 373.475 1334.9 371.575 1336.06 370.395L1336.27 370.183C1336.74 369.728 1337.47 369.079 1338.45 368.295C1340.32 366.8 1342.49 365.311 1344.96 363.924Z" fill="#242424"/>
<path fill-rule="evenodd" clip-rule="evenodd" d="M1452.01 372.31C1453.55 372.741 1454.47 374.296 1454.13 375.837L1454.08 376.053L1453.78 377.055L1453.45 378.135C1453.23 378.837 1452.99 379.602 1452.72 380.426L1452.55 380.928C1451.27 384.789 1449.71 389.087 1447.86 393.712C1442.58 406.925 1436.03 420.139 1428.13 432.491C1415.48 452.261 1400.6 467.905 1383.3 477.846C1362.47 489.808 1339.04 492.941 1313.06 485.706L1312.28 485.486L1311.88 485.381C1311.68 485.324 1311.43 485.255 1311.15 485.173L1310.93 485.109C1309.84 484.783 1308.62 484.383 1307.31 483.907C1303.57 482.546 1299.83 480.835 1296.32 478.737C1291.43 475.821 1287.39 472.387 1284.47 468.359C1283.5 467.017 1283.8 465.141 1285.14 464.169C1286.48 463.197 1288.36 463.498 1289.33 464.839C1291.72 468.136 1295.16 471.057 1299.39 473.586C1302.55 475.472 1305.95 477.029 1309.36 478.269C1310.38 478.64 1311.34 478.96 1312.21 479.228L1313 479.463C1313.34 479.559 1313.59 479.627 1313.75 479.668L1313.92 479.715C1338.64 486.784 1360.67 483.926 1380.31 472.643C1396.68 463.242 1410.91 448.279 1423.07 429.259C1430.75 417.253 1437.14 404.369 1442.29 391.484C1443.97 387.275 1445.41 383.35 1446.6 379.796L1446.86 379.04C1447.18 378.059 1447.47 377.162 1447.72 376.354L1448.11 375.092L1448.31 374.39C1448.76 372.794 1450.41 371.863 1452.01 372.31Z" fill="#242424"/>
<path fill-rule="evenodd" clip-rule="evenodd" d="M1370.52 303.215C1372.06 303.833 1372.8 305.58 1372.18 307.118L1371.02 309.986C1370.09 312.261 1369.05 314.797 1367.91 317.527L1366.28 321.426C1363.55 327.916 1360.77 334.346 1358.07 340.419L1356.94 342.927C1356.57 343.751 1356.2 344.563 1355.84 345.363L1355.29 346.554C1353.25 351.015 1351.34 355.033 1349.59 358.535C1349.3 359.107 1349.01 359.678 1348.73 360.246C1344.5 368.553 1339.97 376.117 1335.44 382.796C1333.85 385.139 1332.37 387.206 1331.04 388.979L1330.37 389.855L1329.59 390.863C1329.47 391.012 1329.38 391.123 1329.33 391.193C1328.28 392.478 1326.39 392.671 1325.11 391.625C1323.87 390.619 1323.64 388.833 1324.56 387.555L1324.67 387.404C1324.74 387.328 1324.87 387.162 1325.07 386.91L1325.61 386.205C1325.81 385.95 1326.02 385.674 1326.24 385.379L1326.95 384.423C1328.03 382.947 1329.21 381.278 1330.47 379.427C1334.87 372.947 1339.27 365.596 1343.38 357.525L1343.8 356.694L1344.22 355.857C1345.94 352.416 1347.82 348.457 1349.84 344.054L1350.92 341.677C1351.47 340.47 1352.02 339.235 1352.59 337.975C1355.54 331.341 1358.58 324.269 1361.56 317.159L1363.36 312.829C1363.9 311.532 1364.41 310.288 1364.9 309.106L1366.62 304.88C1367.23 303.343 1368.98 302.597 1370.52 303.215Z" fill="#242424"/>
<path fill-rule="evenodd" clip-rule="evenodd" d="M1349.42 151.101L1349.6 151.101C1351.2 151.155 1352.46 152.448 1352.5 154.025L1352.5 154.201L1351.4 186.721L1351.41 187.042C1351.49 193.893 1348.5 200.467 1343.26 205.108L1342.92 205.402L1341.58 206.531C1332.42 214.255 1323.88 222.168 1313.16 233.282C1312.01 234.475 1310.11 234.509 1308.92 233.359C1307.72 232.209 1307.69 230.31 1308.84 229.117L1310.42 227.49C1321.08 216.526 1329.7 208.636 1339.05 200.819C1343.12 197.342 1345.45 192.353 1345.41 187.183L1345.4 186.795L1345.4 186.599L1346.5 153.999C1346.56 152.402 1347.85 151.139 1349.42 151.101Z" fill="#242424"/>
<path fill-rule="evenodd" clip-rule="evenodd" d="M1154 438.699C1144.9 446.699 1133.9 450.799 1133.9 450.799C1133.9 450.799 1116.4 460.499 1099.9 447.999C1083.5 435.499 1088.6 424.999 1088.6 424.999C1088.6 424.999 1087.5 404.599 1093.3 399.499C1099.1 394.399 1101.6 394.699 1102.2 389.599C1102.2 389.499 1102.2 389.499 1102.2 389.399C1098.1 388.699 1094.1 387.599 1090.4 386.199C1078.3 395.599 1070.5 410.099 1070.5 426.599C1070.4 454.999 1093.3 478.099 1121.6 478.199C1145.9 478.299 1166.4 461.499 1171.8 438.799L1154 438.699Z" fill="#242424"/>
<path fill-rule="evenodd" clip-rule="evenodd" d="M1356.47 112.001L1356.81 112.014C1357.49 112.048 1358.45 112.142 1359.62 112.33C1361.91 112.699 1364.21 113.322 1366.38 114.269C1374.32 117.733 1378.52 124.558 1376.44 134.797C1375.02 141.789 1371.08 145.977 1365.26 147.502C1363.66 147.922 1362.02 146.963 1361.6 145.36C1361.18 143.757 1362.14 142.118 1363.74 141.698C1367.34 140.754 1369.59 138.36 1370.56 133.603C1372.04 126.327 1369.48 122.167 1363.98 119.769C1362.31 119.042 1360.49 118.548 1358.67 118.254C1358.15 118.171 1357.67 118.109 1357.23 118.066L1356.91 118.036C1356.61 118.011 1356.41 118.001 1356.33 117.999C1354.67 117.96 1353.36 116.585 1353.4 114.928C1353.44 113.272 1354.81 111.961 1356.47 112.001Z" fill="#242424"/>
<path fill-rule="evenodd" clip-rule="evenodd" d="M1349.59 143.352C1350.01 141.748 1351.64 140.781 1353.25 141.194C1357.13 142.194 1360.56 142.471 1363.36 141.796L1363.7 141.707C1365.3 141.267 1366.95 142.206 1367.39 143.804C1367.83 145.401 1366.89 147.053 1365.3 147.492C1361.23 148.611 1356.72 148.283 1351.75 147.005C1350.15 146.592 1349.18 144.957 1349.59 143.352Z" fill="#242424"/>
<path fill-rule="evenodd" clip-rule="evenodd" d="M1246.22 84.7148C1246.44 83.0716 1247.94 81.912 1249.59 82.1248C1251.23 82.3375 1252.39 83.842 1252.18 85.4851C1249.49 106.203 1249.52 129.779 1251.88 148.526C1252.08 150.17 1250.92 151.67 1249.27 151.877C1247.63 152.083 1246.13 150.918 1245.92 149.274C1243.5 130.029 1243.48 105.943 1246.22 84.7148Z" fill="#242424"/>
<path fill-rule="evenodd" clip-rule="evenodd" d="M1345.34 115.81L1357.54 116.81C1359.35 116.958 1360.62 118.668 1360.23 120.441L1358.82 126.82L1357.46 132.867C1356.6 136.713 1355.73 140.529 1354.88 144.222L1353.6 149.742L1352.26 155.406C1350.36 163.327 1348.86 169.213 1347.84 172.545L1347.48 173.692C1343.67 185.841 1340.01 190.81 1327.31 199.853L1326.36 200.531C1319.32 205.616 1308.97 209.152 1298.36 210.088C1296.71 210.234 1295.26 209.014 1295.11 207.363C1294.97 205.713 1296.19 204.257 1297.84 204.111C1307.21 203.285 1316.32 200.223 1322.46 195.94L1323.8 194.991C1335.46 186.701 1338.35 182.777 1341.77 171.877L1342.17 170.558C1343.15 167.32 1344.6 161.603 1346.43 153.971L1347.75 148.374L1348.19 146.509C1349.58 140.527 1351.04 134.116 1352.47 127.704L1353.63 122.508L1346.4 121.916L1346.35 121.997C1342.7 127.102 1334.97 143.958 1332.89 152.014L1332.81 152.32C1332.39 154.034 1330.58 155.013 1328.91 154.433L1328.38 154.257L1327.86 154.089C1326.96 153.803 1325.89 153.484 1324.66 153.138C1321.14 152.145 1317.07 151.151 1312.52 150.221C1301.05 147.881 1288.56 146.357 1275.36 146.03L1274 146L1272.88 146.026C1271.94 146.051 1270.89 146.085 1269.75 146.13C1266.52 146.258 1263.29 146.444 1260.29 146.7L1259.08 146.809C1256.51 147.05 1254.27 147.335 1252.48 147.658L1252.06 147.735L1252.19 149.126C1252.32 150.536 1252.49 152.045 1252.7 153.634L1252.8 154.435C1253.74 161.352 1255.2 168.263 1257.28 174.685C1259.79 182.471 1263.05 188.974 1267.09 193.765C1269.47 196.586 1272.42 198.85 1275.81 200.502C1277.3 201.227 1277.92 203.022 1277.2 204.512C1276.47 206.002 1274.68 206.622 1273.19 205.897C1269.05 203.884 1265.43 201.104 1262.51 197.633C1257.9 192.169 1254.31 184.998 1251.57 176.531C1249.37 169.736 1247.84 162.488 1246.86 155.244C1246.51 152.711 1246.26 150.358 1246.09 148.242L1245.99 146.992L1245.91 145.7C1245.91 145.63 1245.9 145.572 1245.9 145.526C1245.84 144.151 1246.73 142.913 1248.05 142.523C1250.72 141.732 1254.72 141.153 1259.78 140.722C1262.5 140.49 1265.38 140.315 1268.27 140.187L1269.52 140.135C1270.29 140.104 1271.03 140.078 1271.72 140.057L1273.95 140L1274.05 140C1288.16 140.257 1301.5 141.849 1313.72 144.343C1318.1 145.238 1322.06 146.194 1325.55 147.157L1326.76 147.498L1327.86 147.818L1327.95 147.538C1331.26 137.294 1339.16 120.726 1342.84 116.826L1342.98 116.678C1343.55 116.103 1344.33 115.788 1345.14 115.8L1345.34 115.81Z" fill="#242424"/>
<path fill-rule="evenodd" clip-rule="evenodd" d="M1354.5 126C1354.5 126 1364.4 110.8 1368.3 94.9997C1371.9 80.0997 1365.1 64.4997 1351.3 57.7997C1339.8 52.1997 1331.2 56.4997 1331.2 56.4997C1331.2 56.4997 1343.5 35.6997 1325.2 17.1997C1318.8 10.6997 1309.8 7.09968 1300.7 7.29968C1278.3 7.89968 1271.3 26.7997 1271.3 26.7997C1271.3 26.7997 1247.5 -17.4003 1198.2 8.49968C1193.2 11.0997 1187.6 18.3997 1184.9 23.3997C1168.5 53.2997 1221.9 88.9997 1249.8 91.8997C1280.4 95.0997 1298.4 90.0997 1308.2 82.6997C1300.9 86.9997 1308.9 132.9 1354.5 126Z" fill="#242424"/>
<path fill-rule="evenodd" clip-rule="evenodd" d="M1291.25 164.264C1292.21 162.383 1294.5 161.573 1296.45 162.456C1298.46 163.367 1299.35 165.737 1298.44 167.75L1298.29 168.063C1298.12 168.406 1297.88 168.838 1297.57 169.336C1296.91 170.404 1296.11 171.468 1295.15 172.471C1290.75 177.071 1284.68 178.831 1277.57 175.897C1275.53 175.054 1274.56 172.715 1275.4 170.673C1276.25 168.631 1278.58 167.659 1280.63 168.502C1284.45 170.079 1287.1 169.308 1289.37 166.942C1289.92 166.366 1290.39 165.74 1290.78 165.117L1290.96 164.816L1291.16 164.45L1291.25 164.264Z" fill="#242424"/>
<path fill-rule="evenodd" clip-rule="evenodd" d="M1268.51 129.448C1269.04 127.302 1271.21 125.989 1273.35 126.514C1275.43 127.023 1276.73 129.072 1276.33 131.15L1276.28 131.351L1271.28 151.78L1279.6 152.62C1281.73 152.834 1283.3 154.685 1283.19 156.801L1283.18 157C1282.96 159.132 1281.11 160.703 1279 160.594L1278.8 160.579L1265.9 159.279C1263.55 159.042 1261.93 156.836 1262.37 154.544L1262.41 154.348L1268.51 129.448Z" fill="#242424"/>
<path fill-rule="evenodd" clip-rule="evenodd" d="M1262.98 126.57C1262.99 124.03 1261.66 121.965 1260 121.957C1258.34 121.95 1256.99 124.004 1256.98 126.545C1256.97 129.085 1258.3 131.15 1259.96 131.157C1261.62 131.165 1262.97 129.111 1262.98 126.57Z" fill="#242424"/>
<path fill-rule="evenodd" clip-rule="evenodd" d="M1291.41 126.238C1291.42 123.698 1290.08 121.633 1288.43 121.625C1286.77 121.618 1285.42 123.672 1285.41 126.212C1285.39 128.753 1286.73 130.818 1288.39 130.825C1290.04 130.833 1291.39 128.779 1291.41 126.238Z" fill="#242424"/>
<path fill-rule="evenodd" clip-rule="evenodd" d="M1289.73 100.34C1294.78 99.6179 1299.18 100.934 1302.75 103.544C1303.75 104.28 1304.62 105.069 1305.36 105.868L1305.68 106.233C1305.99 106.582 1306.22 106.88 1306.38 107.109C1307.64 108.92 1307.2 111.414 1305.39 112.679C1303.64 113.903 1301.25 113.528 1299.95 111.861L1299.78 111.641C1299.73 111.576 1299.63 111.454 1299.47 111.289C1299.08 110.857 1298.59 110.416 1298.03 110.002C1296.13 108.616 1293.9 107.913 1291.22 108.214L1290.87 108.259C1288.68 108.572 1286.65 107.052 1286.34 104.865C1286.03 102.678 1287.55 100.652 1289.73 100.34Z" fill="#242424"/>
<path fill-rule="evenodd" clip-rule="evenodd" d="M1256.87 99.7329C1258.94 99.2377 1261.02 99.2601 1262.98 99.5788L1263.42 99.6549C1263.76 99.7186 1264.03 99.782 1264.24 99.8367C1266.37 100.409 1267.64 102.603 1267.06 104.737C1266.51 106.804 1264.43 108.056 1262.36 107.612L1262.05 107.538C1261.97 107.522 1261.85 107.5 1261.7 107.476C1260.7 107.312 1259.62 107.301 1258.74 107.513C1257.72 107.756 1257.14 108.21 1256.78 109.204L1256.72 109.396C1256.06 111.504 1253.81 112.678 1251.7 112.017C1249.6 111.356 1248.42 109.112 1249.08 107.004C1250.33 103.026 1253.2 100.614 1256.87 99.7329Z" fill="#242424"/>
<path fill-rule="evenodd" clip-rule="evenodd" d="M1140.11 201.099L1286.22 201.699C1301.75 201.81 1314.36 214.334 1314.5 229.745L1314.5 230.213L1313.8 387.913C1313.79 389.569 1312.44 390.907 1310.79 390.899C1309.19 390.892 1307.89 389.637 1307.8 388.062L1307.8 387.886L1308.5 230.178C1308.59 217.994 1298.76 207.99 1286.56 207.705L1286.19 207.699L1140.08 207.099C1127.9 207.012 1117.89 216.841 1117.61 229.038L1117.6 229.408L1117.5 263.808C1117.5 265.468 1116.14 266.809 1114.48 266.799C1081.25 266.609 1054.2 293.459 1054.1 326.711C1054.01 348.797 1075.8 375.724 1099.45 386.572C1100.96 387.263 1101.62 389.044 1100.93 390.55C1100.24 392.056 1098.46 392.717 1096.95 392.026C1071.35 380.283 1048 351.431 1048.1 326.691C1048.2 291.22 1076.21 262.368 1111.25 260.86L1111.51 260.85L1111.6 229.378C1111.71 213.853 1124.24 201.242 1139.64 201.099L1140.11 201.099Z" fill="#242424"/>
<path fill-rule="evenodd" clip-rule="evenodd" d="M1156.21 435.5L1255.31 435.9C1256.97 435.907 1258.31 437.255 1258.3 438.912C1258.29 440.51 1257.04 441.811 1255.46 441.896L1255.29 441.9L1156.19 441.5C1154.53 441.493 1153.19 440.145 1153.2 438.488C1153.21 436.89 1154.46 435.589 1156.04 435.504L1156.21 435.5Z" fill="#242424"/>
<path fill-rule="evenodd" clip-rule="evenodd" d="M1137.8 382.315C1140.02 380.715 1142.35 380.262 1144.22 382.179C1146.68 384.636 1147.4 388.882 1147.4 395.5C1147.4 397.157 1146.06 398.5 1144.4 398.5C1142.74 398.5 1141.4 397.157 1141.4 395.5C1141.4 392.079 1141.13 389.447 1140.67 387.861L1140.63 387.73L1140.49 387.858C1139.82 388.464 1139.02 389.31 1138.09 390.383L1137.24 391.383C1135.53 393.432 1133.97 395.493 1130.5 400.255L1125.83 406.68C1117.46 418.139 1113.56 422.662 1109.88 423.935C1108.32 424.477 1106.61 423.647 1106.07 422.081C1105.54 420.571 1106.3 418.929 1107.75 418.327L1107.92 418.265C1109.79 417.616 1113.74 413.017 1120.65 403.588L1126.78 395.177C1129.87 390.953 1131.31 389.097 1133.14 386.941L1133.27 386.793C1135.02 384.733 1136.49 383.256 1137.8 382.315Z" fill="#242424"/>
<path fill-rule="evenodd" clip-rule="evenodd" d="M1144.75 390.109C1148.9 386.312 1152.77 384.993 1156.05 387.822C1158.58 389.986 1160.01 392.89 1160.56 396.326C1160.82 397.962 1159.71 399.501 1158.07 399.763C1156.44 400.024 1154.9 398.91 1154.64 397.274C1154.32 395.27 1153.59 393.718 1152.36 392.572L1152.12 392.357C1152.1 392.346 1152.06 392.367 1151.8 392.453C1151.08 392.701 1150.04 393.398 1148.8 394.536C1146.48 396.66 1143.75 399.959 1140.1 404.922L1138.69 406.868L1133.64 413.878C1127.04 423.001 1125.51 424.675 1122.7 426.299C1121.26 427.127 1119.43 426.635 1118.6 425.199C1117.77 423.764 1118.27 421.93 1119.7 421.102L1119.85 421.017C1121.71 419.88 1123.63 417.517 1130.38 408.136L1133.24 404.156C1133.64 403.6 1134.02 403.084 1134.38 402.591L1134.9 401.865C1138.96 396.326 1141.98 392.646 1144.75 390.109Z" fill="#242424"/>
<path fill-rule="evenodd" clip-rule="evenodd" d="M1156.33 394.472C1158.47 393.294 1160.78 393.331 1162.71 394.81C1166.51 397.693 1167.04 403.189 1165.76 410.985C1165.49 412.62 1163.95 413.728 1162.32 413.461C1160.68 413.193 1159.57 411.651 1159.84 410.016C1160.72 404.628 1160.44 400.945 1159.26 399.741L1159.24 399.721L1159.22 399.729C1158.67 400.032 1157.91 400.74 1156.99 401.849L1156.58 402.348L1156.23 402.803C1155.45 403.821 1154.59 405.052 1153.54 406.648L1152.78 407.814C1152.37 408.443 1149.51 412.954 1148.47 414.549L1148.38 414.69C1142.93 423.054 1138.77 427.964 1133.95 430.627C1132.5 431.427 1130.67 430.901 1129.87 429.45C1129.07 427.999 1129.6 426.174 1131.05 425.374C1134.65 423.388 1138.27 419.159 1143.04 411.901L1144.04 410.355C1145.29 408.403 1147.38 405.115 1147.74 404.56L1148.32 403.672C1149.72 401.529 1150.82 399.952 1151.88 398.618C1153.44 396.65 1154.85 395.285 1156.33 394.472Z" fill="#242424"/>
<path fill-rule="evenodd" clip-rule="evenodd" d="M1108.78 381.479C1114.31 380.543 1118.89 383.253 1118.6 389.127C1118.42 393.389 1116.59 399.243 1113.66 406.278L1113.15 407.496C1111.41 411.498 1110.95 416.072 1111.84 420.511C1112.17 422.136 1111.11 423.716 1109.49 424.041C1107.86 424.366 1106.28 423.313 1105.96 421.688C1104.87 416.243 1105.38 410.617 1107.43 405.621L1108.08 404.071C1110.77 397.635 1112.46 392.232 1112.6 388.852C1112.67 387.442 1111.97 387.024 1109.78 387.395C1107.38 387.8 1105.27 389.299 1105.18 390.057C1104.83 392.981 1103.87 394.868 1101.96 396.582L1101.73 396.787C1101.52 396.963 1097.12 400.209 1095.28 401.853C1093.8 403.153 1092.6 406.895 1092 412.124C1091.57 415.75 1091.46 419.603 1091.54 423.082L1091.56 423.943C1091.57 424.428 1091.59 424.768 1091.6 424.938C1091.62 425.374 1091.55 425.808 1091.39 426.211L1091.3 426.41C1091.29 426.434 1091.22 426.624 1091.13 426.962C1090.67 428.694 1090.7 430.892 1091.62 433.483C1093.01 437.39 1096.2 441.509 1101.72 445.714C1102.66 446.429 1103.61 447.074 1104.58 447.652C1112.39 452.294 1120.75 452.429 1128.61 449.844C1129.54 449.536 1130.39 449.212 1131.15 448.887L1131.52 448.724C1131.94 448.534 1132.24 448.387 1132.39 448.304L1132.45 448.272C1132.54 448.224 1132.63 448.179 1132.72 448.14L1133.16 447.97C1133.37 447.89 1133.59 447.798 1133.85 447.694L1134.11 447.586C1135.14 447.151 1136.3 446.628 1137.55 446.018C1141.13 444.271 1144.71 442.182 1148.03 439.762C1157.27 433.036 1162.7 425.178 1162.7 416.3L1162.7 415.833L1162.69 414.805L1160.91 417.617C1159.16 420.401 1157.3 423.381 1156.32 424.847L1156.1 425.177C1151.78 431.484 1147.6 436.02 1142.93 438.782C1141.5 439.625 1139.66 439.153 1138.82 437.726C1137.97 436.3 1138.45 434.46 1139.87 433.617C1143.63 431.396 1147.28 427.436 1151.15 421.79L1151.34 421.5C1153.14 418.795 1159.08 409.047 1160.37 407.555C1161.26 406.522 1162.1 405.847 1163.21 405.553C1165.1 405.053 1166.75 406 1167.59 407.635C1168.42 409.227 1168.7 411.839 1168.7 416.3C1168.7 427.459 1162.2 436.87 1151.57 444.613C1147.93 447.257 1144.06 449.519 1140.18 451.41C1138.83 452.072 1137.56 452.642 1136.43 453.119L1135.61 453.452L1135.15 453.635L1134.98 453.724L1134.55 453.936C1133.64 454.375 1132.4 454.894 1130.87 455.413L1130.48 455.543C1121.12 458.624 1111.02 458.46 1101.52 452.809C1100.35 452.114 1099.2 451.34 1098.08 450.486C1091.68 445.608 1087.77 440.557 1085.97 435.488C1084.63 431.706 1084.57 428.285 1085.32 425.434C1085.4 425.16 1085.47 424.911 1085.55 424.688L1085.58 424.596L1085.56 424.127C1085.44 420.162 1085.54 415.698 1086.04 411.431C1086.79 404.964 1088.28 400.199 1091.07 397.569L1091.3 397.366C1093.38 395.497 1097.87 392.197 1097.83 392.229C1098.75 391.443 1099.04 390.897 1099.22 389.342C1099.7 385.37 1104.06 382.277 1108.78 381.479Z" fill="#242424"/>
<path fill-rule="evenodd" clip-rule="evenodd" d="M1267.95 385.004C1269.85 383.061 1272.18 383.517 1274.42 385.119C1275.66 386.003 1277.04 387.361 1278.68 389.231L1279.76 390.489C1281.51 392.568 1283.11 394.639 1286.51 399.239L1291.52 406.025C1298.69 415.68 1302.8 420.451 1304.78 421.228L1304.87 421.261C1306.44 421.797 1307.28 423.502 1306.74 425.07C1306.2 426.638 1304.5 427.475 1302.93 426.939L1302.64 426.833C1299.06 425.447 1295.12 420.931 1287.03 410.04L1280.65 401.402C1277.62 397.34 1276.24 395.584 1274.47 393.528L1273.95 392.938C1273.2 392.087 1272.53 391.39 1271.95 390.854L1271.59 390.528L1271.54 390.704C1271.15 392.024 1270.89 394.023 1270.81 396.585L1270.8 396.973C1270.76 398.63 1269.38 399.94 1267.73 399.899C1266.07 399.859 1264.76 398.483 1264.8 396.827L1264.83 395.875C1265.03 390.736 1265.84 387.24 1267.95 385.004Z" fill="#242424"/>
<path fill-rule="evenodd" clip-rule="evenodd" d="M1256.24 390.727C1259.53 387.893 1263.4 389.212 1267.55 393.009C1270.15 395.388 1272.97 398.771 1276.65 403.748L1277.93 405.491C1278.28 405.985 1278.66 406.5 1279.06 407.056L1283.16 412.756C1289.08 420.933 1290.8 422.966 1292.6 424.002C1294.03 424.83 1294.53 426.665 1293.7 428.1C1292.87 429.535 1291.04 430.027 1289.6 429.199L1289.1 428.9C1286.35 427.202 1284.55 424.978 1276.85 414.275L1273.62 409.768C1273.25 409.256 1272.9 408.775 1272.55 408.308L1271.85 407.347C1268.37 402.648 1265.75 399.492 1263.5 397.436C1262.26 396.299 1261.22 395.602 1260.5 395.353L1260.23 395.264C1260.18 395.248 1260.18 395.256 1260.15 395.278C1258.8 396.437 1258 398.052 1257.66 400.174C1257.4 401.811 1255.86 402.925 1254.23 402.663C1252.59 402.401 1251.48 400.863 1251.74 399.227C1252.29 395.79 1253.72 392.886 1256.24 390.727Z" fill="#242424"/>
<path fill-rule="evenodd" clip-rule="evenodd" d="M1248.58 396.518C1250.54 395.017 1252.87 395.025 1255.04 396.249C1256.52 397.09 1257.97 398.49 1259.58 400.502L1260.02 401.067C1261.07 402.422 1262.19 404.035 1263.59 406.155L1268.46 413.681L1269.11 414.662C1274.03 422.051 1277.69 426.31 1281.25 428.274C1282.7 429.075 1283.23 430.9 1282.43 432.35C1281.63 433.801 1279.8 434.327 1278.35 433.527C1273.59 430.896 1269.4 425.992 1263.79 417.509L1262.39 415.351C1261.11 413.384 1259.31 410.577 1258.87 409.901L1258.33 409.09C1256.95 406.999 1255.87 405.475 1254.89 404.249C1253.79 402.876 1252.88 401.973 1252.21 401.551L1252.05 401.453L1252.01 401.501C1251.05 402.683 1250.84 406.111 1251.69 410.986L1251.75 411.364C1252.05 412.994 1250.97 414.556 1249.34 414.852C1247.71 415.148 1246.15 414.067 1245.85 412.437C1244.47 404.842 1244.91 399.367 1248.58 396.518Z" fill="#242424"/>
<path fill-rule="evenodd" clip-rule="evenodd" d="M1293.7 392.048C1293.41 386.153 1297.99 383.443 1303.53 384.38C1308.24 385.177 1312.6 388.27 1313.08 392.243C1313.26 393.711 1313.52 394.28 1314.33 395.001L1314.47 395.13C1314.44 395.098 1318.72 398.249 1320.84 400.119L1320.98 400.247C1323.94 402.85 1325.49 407.694 1326.27 414.331C1326.73 418.294 1326.85 422.426 1326.76 426.171L1326.73 427.221L1326.72 427.496L1326.76 427.588C1326.81 427.737 1326.85 427.897 1326.9 428.069L1326.98 428.334C1327.73 431.185 1327.67 434.606 1326.33 438.388C1324.54 443.457 1320.62 448.508 1314.22 453.386C1313.1 454.241 1311.95 455.014 1310.78 455.709C1301.28 461.36 1291.18 461.524 1281.82 458.443C1279.85 457.795 1278.32 457.136 1277.32 456.624L1277.15 456.535L1276.5 456.28L1275.87 456.019C1274.74 455.542 1273.47 454.972 1272.12 454.31C1268.24 452.42 1264.37 450.157 1260.73 447.513C1250.1 439.77 1243.6 430.359 1243.6 419.2C1243.6 414.74 1243.88 412.128 1244.71 410.535C1245.55 408.9 1247.21 407.953 1249.09 408.454C1250.2 408.747 1251.04 409.423 1251.93 410.455C1253.27 412.007 1259.65 422.488 1261.15 424.69C1265.02 430.336 1268.67 434.297 1272.43 436.518C1273.85 437.361 1274.33 439.2 1273.48 440.627C1272.64 442.053 1270.8 442.526 1269.37 441.682C1264.85 439.006 1260.78 434.666 1256.61 428.664L1256.2 428.078C1255.13 426.509 1252.43 422.147 1250.27 418.742L1249.61 417.705L1249.61 417.854C1249.61 418.17 1249.6 418.502 1249.6 418.848L1249.6 419.2C1249.6 428.078 1255.03 435.936 1264.27 442.662C1267.59 445.082 1271.17 447.172 1274.75 448.918C1275.82 449.441 1276.83 449.9 1277.74 450.294L1278.19 450.486C1278.46 450.599 1278.71 450.699 1278.93 450.786L1279.44 450.985C1279.53 451.019 1279.62 451.059 1279.71 451.103L1280.08 451.291C1280.25 451.375 1280.48 451.488 1280.79 451.625C1281.63 452.003 1282.6 452.386 1283.69 452.744C1291.55 455.33 1299.91 455.194 1307.72 450.552C1308.69 449.975 1309.64 449.33 1310.58 448.614C1316.1 444.409 1319.29 440.29 1320.68 436.383C1321.6 433.792 1321.63 431.595 1321.17 429.862L1321.11 429.637C1321.05 429.44 1321.01 429.329 1321 429.311C1320.78 428.853 1320.68 428.346 1320.7 427.838L1320.74 426.844C1320.86 423.147 1320.76 418.952 1320.31 415.024C1319.7 409.795 1318.5 406.053 1317 404.734L1316.7 404.472C1314.74 402.784 1310.77 399.854 1310.57 399.687C1308.5 397.918 1307.49 395.998 1307.12 392.957C1307.03 392.199 1304.92 390.7 1302.53 390.295C1300.33 389.925 1299.63 390.342 1299.7 391.772C1299.84 395.133 1301.53 400.535 1304.21 406.954L1304.65 408.004C1306.89 413.142 1307.47 418.961 1306.34 424.588C1306.02 426.213 1304.44 427.267 1302.81 426.942C1301.19 426.617 1300.13 425.036 1300.46 423.412C1301.32 419.13 1300.92 414.725 1299.32 410.809L1298.63 409.161C1295.71 402.144 1293.88 396.291 1293.7 392.048Z" fill="#242424"/>
<path fill-rule="evenodd" clip-rule="evenodd" d="M1660.5 498.8C1662.16 498.8 1663.5 500.143 1663.5 501.8C1663.5 503.397 1662.25 504.703 1660.68 504.795L1660.5 504.8H3.90039C2.24354 504.8 0.900391 503.457 0.900391 501.8C0.900391 500.202 2.14931 498.896 3.72412 498.805L3.90039 498.8H1660.5Z" fill="#242424"/>
</svg>
